<svg xmlns="http://www.w3.org/2000/svg" xml:space="preserve" id="Layer_1" width="55.2" height="38.4" x="0" y="0" viewBox="0 0 55.2 38.4"><style>.st2{fill:#fff}</style><path d="M52.17 0H3.03A3.03 3.03 0 0 0 0 3.03v32.33a3.03 3.03 0 0 0 3.03 3.03h49.13a3.04 3.04 0 0 0 3.03-3.03V3.03A3.03 3.03 0 0 0 52.17 0" style="fill:#00008b"/><path d="m16.07 22.94 1.01 3.16 3.11-1.18-1.84 2.78 2.86 1.69-3.31.29.46 3.3-2.29-2.42-2.3 2.42.46-3.3-3.31-.29 2.86-1.69-1.84-2.78 3.11 1.18zm27.09 5.7.48 1.5 1.48-.56-.87 1.32 1.36.81-1.58.14.22 1.57-1.09-1.15-1.09 1.15.21-1.57-1.57-.14 1.36-.81-.88-1.32 1.48.56zm0-23.47.48 1.5 1.48-.56-.87 1.32 1.36.81-1.58.14.22 1.57-1.09-1.15-1.09 1.15.21-1.57-1.57-.14 1.36-.81-.88-1.32 1.48.56zm-6.91 9.53.49 1.51 1.48-.56-.88 1.32 1.36.81-1.57.13.21 1.57-1.09-1.15-1.09 1.15.22-1.57-1.58-.13 1.36-.81-.87-1.32 1.48.56zm14.73-2.35.49 1.51 1.48-.56-.88 1.32 1.36.81-1.57.14.21 1.56-1.09-1.14-1.09 1.14.22-1.56-1.58-.14 1.36-.81-.87-1.32 1.48.56zm-4.3 7.07.38.94 1.01.07-.77.65.24.99-.86-.53-.86.53.24-.99-.78-.65 1.02-.07z" style="fill-rule:evenodd;clip-rule:evenodd;fill:#fff"/><path d="m.23 1.87 27.62 13.81h3.51v-1.75L3.51 0h-.48C1.78 0 .69.77.23 1.87M31.36 0v1.75L3.51 15.68H0v-1.75L27.85 0z" class="st2"/><path d="M13.07 0v15.68h5.23V0zM0 5.23v5.23h31.36V5.23z" class="st2"/><path d="M0 6.27v3.14h31.36V6.27zM14.11 0v15.68h3.14V0zM0 15.68l10.45-5.23h2.34L2.34 15.68zM.48 1.41q.3-.47.74-.8l9.24 4.62H8.12zm18.09 3.82L29.02 0h2.34L20.9 5.23zm12.79 10.45L20.9 10.45h2.34l8.11 4.06v1.17z" style="fill:red"/></svg>