<svg xmlns="http://www.w3.org/2000/svg" width="512" height="356.18" fill-rule="evenodd" clip-rule="evenodd" image-rendering="optimizeQuality" shape-rendering="geometricPrecision" text-rendering="geometricPrecision" viewBox="0 0 512 356.18"><path fill="#e1000f" d="M345.04 0h139A28.2 28.2 0 0 1 512 28.13v299.91a28.2 28.2 0 0 1-28.13 28.14H345.04zM5.57 344.8"/><path fill="#fff" d="M27.96 0h317.08v356.18H27.98A28.2 28.2 0 0 1 0 328.04V28.14A28.2 28.2 0 0 1 27.96 0"/><path fill="#273375" d="M27.96 0h138.99v356.18H28a28.2 28.2 0 0 1-28-28.14V28.14A28.2 28.2 0 0 1 27.96 0"/></svg>