<svg xmlns="http://www.w3.org/2000/svg" width="512" height="356.18" fill-rule="evenodd" clip-rule="evenodd" image-rendering="optimizeQuality" shape-rendering="geometricPrecision" text-rendering="geometricPrecision" viewBox="0 0 512 356.18"><g fill-rule="nonzero"><path fill="#006b3f" d="M28.137 0H483.86C499.337 0 512 12.663 512 28.14v299.9c0 15.477-12.663 28.14-28.14 28.14H28.137C12.663 356.18 0 343.517 0 328.04V28.14C0 12.663 12.663 0 28.137 0"/><path fill="#fcd116" d="M512 237.454H0V28.14C0 12.663 12.663 0 28.137 0H483.86C499.337 0 512 12.663 512 28.14z"/><path fill="#ce1126" d="M512 118.726H0V28.14C0 12.663 12.663 0 28.137 0H483.86C499.337 0 512 12.663 512 28.14z"/><path d="m256 118.726 38.577 118.728-100.997-73.378h124.839l-100.996 73.378z"/></g></svg>