<svg xmlns="http://www.w3.org/2000/svg" xml:space="preserve" id="Layer_1" width="122.88" height="85.48" x="0" y="0" viewBox="0 0 122.88 85.48"><style>.st2{fill:#fff}.st3{fill:#008}</style><path d="M6.71 0h109.46a6.76 6.76 0 0 1 6.71 6.75v71.98a6.77 6.77 0 0 1-6.75 6.75H6.71A6.77 6.77 0 0 1 0 78.73V6.75C0 3.05 3.01.02 6.71 0" style="fill:#f93"/><path d="M0 28.49h122.88v28.5H0z" class="st2"/><path d="M0 56.99h122.88v21.74a6.77 6.77 0 0 1-6.75 6.75H6.71A6.77 6.77 0 0 1 0 78.73z" style="fill:#128807"/><path d="M72.84 42.74a11.4 11.4 0 1 0-22.79-.01 11.4 11.4 0 0 0 22.79.01" class="st3"/><path d="M71.41 42.74a9.97 9.97 0 1 0-19.93-.01 9.97 9.97 0 0 0 19.93.01" class="st2"/><path d="M63.43 42.74a2 2 0 1 0-3.98-.02 2 2 0 0 0 3.98.02m8.39 1.37a.5.5 0 0 0-.43-.56c-.27-.04-.52.16-.56.43s.16.52.43.56a.5.5 0 0 0 .56-.43" class="st3"/><path d="m61.44 52.71.34-5.98-.34-2.85-.34 2.85z" class="st3"/><path d="M71.11 46.75a.5.5 0 1 0-.92-.38.5.5 0 1 0 .92.38m-12.25 5.62 1.88-5.69.41-2.84-1.07 2.67zm10.89-3.25a.5.5 0 0 0-.09-.7.5.5 0 0 0-.7.09.5.5 0 0 0 .09.7.5.5 0 0 0 .7-.09m-13.3 2.26 3.29-5.01 1.13-2.64-1.72 2.29zm11.36-.33a.5.5 0 0 0 .09-.7.5.5 0 0 0-.7-.09.5.5 0 0 0-.09.7c.17.21.49.26.7.09m-13.42-1.26 4.47-3.99 1.77-2.25-2.25 1.77zm11.06 2.63a.5.5 0 0 0 .27-.65.5.5 0 1 0-.27.65M52.8 47.73l5.36-2.7 2.29-1.72-2.64 1.13zm10.01 5.39a.5.5 0 0 0 .43-.56.5.5 0 0 0-.56-.43.5.5 0 0 0-.43.56c.03.28.28.47.56.43m-11-7.8 5.87-1.22 2.66-1.06-2.84.4zm8.26 7.8a.5.5 0 0 0 .56-.43.5.5 0 0 0-.43-.56.5.5 0 1 0-.13.99m-8.6-10.38 5.98.34 2.85-.34-2.85-.34zm5.96 9.68a.5.5 0 1 0 .38-.92.5.5 0 0 0-.65.27.5.5 0 0 0 .27.65m-5.62-12.26 5.69 1.88 2.84.41-2.66-1.07zm3.25 10.89a.5.5 0 0 0 .7-.09.5.5 0 0 0-.09-.7.5.5 0 0 0-.7.09.5.5 0 0 0 .09.7m-2.26-13.3 5.01 3.29 2.64 1.13-2.29-1.72zm.33 11.37a.5.5 0 0 0 .7.09.5.5 0 0 0 .09-.7.5.5 0 0 0-.7-.09.5.5 0 0 0-.09.7m1.26-13.43 3.99 4.47 2.25 1.78-1.77-2.26zm-2.63 11.06c.11.25.4.38.65.27a.5.5 0 0 0 .27-.65.5.5 0 0 0-.65-.27.5.5 0 0 0-.27.65m4.69-12.65 2.7 5.36 1.72 2.29-1.13-2.63zm-5.39 10.01c.04.27.29.46.56.43a.5.5 0 0 0 .43-.56.5.5 0 0 0-.56-.43.5.5 0 0 0-.43.56m7.8-11 1.22 5.87 1.07 2.66-.41-2.84zm-7.8 8.26a.5.5 0 0 0 .43.56.5.5 0 0 0 .56-.43.5.5 0 1 0-.99-.13m10.38-8.6-.34 5.98.34 2.85.34-2.85zm-9.67 5.96a.5.5 0 1 0 .92.38.5.5 0 1 0-.92-.38m12.25-5.62-1.88 5.69-.41 2.84 1.07-2.66zm-10.89 3.26a.5.5 0 0 0 .09.7.5.5 0 0 0 .7-.09.5.5 0 0 0-.09-.7.5.5 0 0 0-.7.09m13.3-2.27-3.29 5.02-1.13 2.63 1.72-2.29zm-11.36.33a.5.5 0 0 0-.09.7.5.5 0 0 0 .7.09c.22-.17.26-.48.09-.7s-.49-.25-.7-.09m13.42 1.26-4.47 3.99-1.77 2.26 2.25-1.78zm-11.06-2.62a.5.5 0 0 0-.27.65c.11.25.4.38.65.27a.5.5 0 0 0 .27-.65.5.5 0 0 0-.65-.27m12.65 4.68-5.36 2.7-2.29 1.72 2.64-1.13zm-10.01-5.39a.5.5 0 0 0-.43.56c.04.27.29.46.56.43a.5.5 0 0 0 .43-.56.5.5 0 0 0-.56-.43m11 7.8-5.87 1.22-2.66 1.07 2.84-.41zm-8.26-7.8a.5.5 0 0 0-.56.43.5.5 0 0 0 .43.56.5.5 0 0 0 .56-.43.5.5 0 0 0-.43-.56m8.6 10.38-5.98-.34-2.85.34 2.85.34zm-5.96-9.67a.5.5 0 1 0-.38.92.5.5 0 0 0 .38-.92m5.62 12.25-5.69-1.88-2.84-.4 2.66 1.06zm-3.26-10.89a.5.5 0 0 0-.7.09.5.5 0 0 0 .09.7.5.5 0 0 0 .7-.09.5.5 0 0 0-.09-.7m2.27 13.3-5.01-3.29-2.64-1.13 2.29 1.72zm-.33-11.36c-.17-.22-.48-.26-.7-.09s-.26.48-.09.7a.5.5 0 0 0 .7.09c.21-.17.26-.49.09-.7m-1.26 13.42-3.99-4.47-2.25-1.77 1.77 2.25zm2.63-11.06c-.11-.25-.4-.38-.65-.27s-.38.4-.27.65.4.37.65.27a.5.5 0 0 0 .27-.65m-4.69 12.65-2.7-5.36-1.72-2.29 1.13 2.64zm5.39-10.01a.5.5 0 0 0-.56-.43.5.5 0 0 0-.43.56c.04.27.29.46.56.43a.5.5 0 0 0 .43-.56m-7.8 11-1.22-5.86-1.07-2.67.41 2.84z"/></svg>