<svg xmlns="http://www.w3.org/2000/svg" width="513" height="357.071" fill-rule="evenodd" clip-rule="evenodd" image-rendering="optimizeQuality" shape-rendering="geometricPrecision" text-rendering="geometricPrecision" viewBox="0 0 513 357.071"><g fill-rule="nonzero"><path fill="#9d2235" d="M28.477.32h456.044c15.488 0 28.159 12.672 28.159 28.16v300.111c0 15.488-12.671 28.16-28.159 28.16H28.477c-15.486 0-28.157-12.672-28.157-28.16V28.48C.32 12.992 12.991.32 28.477.32"/><path fill="#fff" d="M.32 142.892h512.36v71.287H.32z"/><path fill="#ccc" d="M28.48 0h456.04c7.833 0 14.953 3.204 20.115 8.365C509.796 13.527 513 20.647 513 28.479v300.112c0 7.832-3.204 14.953-8.365 20.115-5.162 5.161-12.282 8.365-20.115 8.365H28.48c-7.833 0-14.953-3.204-20.115-8.365C3.204 343.544 0 336.423 0 328.591V28.479c0-7.832 3.204-14.952 8.365-20.114C13.527 3.204 20.647 0 28.48 0m456.04.641H28.48c-7.656 0-14.616 3.132-19.661 8.178C3.773 13.864.641 20.824.641 28.479v300.112c0 7.656 3.132 14.616 8.178 19.661 5.045 5.046 12.005 8.178 19.661 8.178h456.04c7.656 0 14.616-3.132 19.661-8.178 5.046-5.045 8.178-12.005 8.178-19.661V28.479c0-7.655-3.132-14.615-8.178-19.66C499.136 3.773 492.176.641 484.52.641"/></g></svg>