<svg xmlns="http://www.w3.org/2000/svg" xml:space="preserve" id="Layer_1" width="55.2" height="38.4" x="0" y="0" viewBox="0 0 55.2 38.4"><style>.st0{fill:#c7202f}.st3{fill:#fff}</style><path d="m16.07 22.94 1.01 3.16 3.11-1.18-1.84 2.78 2.86 1.69-3.31.29.46 3.29-2.29-2.41-2.3 2.41.46-3.29-3.31-.29 2.86-1.69-1.84-2.78 3.11 1.18zM43.16 5.17l.48 1.5 1.49-.56-.88 1.32 1.36.81-1.58.14.22 1.57-1.09-1.15-1.09 1.15.22-1.57-1.58-.14 1.36-.81-.88-1.32 1.48.56z" style="fill:#fff;fill-rule:evenodd;clip-rule:evenodd"/><path d="M0 0v1.75l27.85 13.92h3.5v-1.75L3.51 0zm31.36 0v1.75L3.51 15.68H0v-1.75L27.85 0z" class="st3"/><path d="M13.07 0v15.68h5.23V0zM0 5.23v5.23h31.35V5.23z" class="st3"/><path d="M0 6.27v3.14h31.35V6.27zM14.11 0v15.68h3.14V0z" style="fill:red"/><path d="M52.17 0H3.03A3.03 3.03 0 0 0 0 3.03v32.33a3.03 3.03 0 0 0 3.03 3.03h49.13a3.04 3.04 0 0 0 3.03-3.03V3.03A3.03 3.03 0 0 0 52.17 0" style="fill:#012169"/><path d="m.23 1.87 27.62 13.81h3.5v-1.75L3.51 0h-.48C1.78 0 .69.77.23 1.87M31.36 0v1.75L3.51 15.68H0v-1.75L27.85 0z" class="st3"/><path d="M13.07 0v15.68h5.23V0zM0 5.23v5.23h31.35V5.23z" class="st3"/><path d="M0 6.27v3.14h31.35V6.27zM14.11 0v15.68h3.14V0zM0 15.68l10.45-5.23h2.34L2.34 15.68zM.48 1.41q.3-.47.74-.8l9.24 4.62H8.12zm18.09 3.82L29.02 0h2.34L20.9 5.23zm12.79 10.45L20.9 10.45h2.34l8.11 4.06v1.17z" style="fill:#c8102e"/><path d="M43.25 7.3v1.21l2.41-1.21z" class="st3"/><path d="M43.71 8.72 43 7.75l2.66-.45z" class="st3"/><path d="M43.25 7.3v1.21L40.84 7.3z" class="st3"/><path d="m42.79 8.72.71-.97-2.66-.45z" class="st3"/><path d="m44 7.85-1.15.37 1.89 1.92z" class="st3"/><path d="m42.79 8.72.71-.97 1.24 2.39z" class="st3"/><path d="m42.5 7.85 1.15.37-.4-2.67z" class="st3"/><path d="m44 7.85-1.15.37.4-2.67z" class="st3"/><path d="m42.5 7.85 1.15.37-1.89 1.92z" class="st3"/><path d="M43.71 8.72 43 7.75l-1.24 2.39z" class="st3"/><path d="M43.25 7.57v.8l1.59-.8z" class="st0"/><path d="m43.55 8.51-.47-.65 1.76-.29z" class="st0"/><path d="M43.25 7.57v.8l-1.59-.8z" class="st0"/><path d="m42.95 8.51.46-.65-1.75-.29z" class="st0"/><path d="m43.74 7.93-.76.24 1.25 1.27z" class="st0"/><path d="m42.95 8.51.46-.65.82 1.58z" class="st0"/><path d="m42.76 7.93.75.24-.26-1.76z" class="st0"/><path d="m43.74 7.93-.76.24.27-1.76z" class="st0"/><path d="m42.76 7.93.75.24-1.25 1.27z" class="st0"/><path d="m43.55 8.51-.47-.65-.82 1.58z" class="st0"/><path d="M49.56 12.88v1.07l2.15-1.07z" class="st3"/><path d="m49.97 14.14-.63-.87 2.37-.39z" class="st3"/><path d="M49.56 12.88v1.07l-2.14-1.07z" class="st3"/><path d="m49.15 14.14.64-.87-2.37-.39z" class="st3"/><path d="m50.23 13.36-1.02.33 1.68 1.71z" class="st3"/><path d="m49.15 14.14.64-.87 1.1 2.13z" class="st3"/><path d="m48.9 13.36 1.02.33-.36-2.37z" class="st3"/><path d="m50.23 13.36-1.02.33.35-2.37z" class="st3"/><path d="m48.9 13.36 1.02.33-1.68 1.71z" class="st3"/><path d="m49.97 14.14-.63-.87-1.1 2.13z" class="st3"/><path d="M49.56 13.15v.66l1.33-.66z" class="st0"/><path d="m49.82 13.93-.39-.54 1.46-.24z" class="st0"/><path d="M49.56 13.15v.66l-1.32-.66z" class="st0"/><path d="m49.31 13.93.39-.54-1.46-.24z" class="st0"/><path d="m49.98 13.44-.64.21 1.05 1.06z" class="st0"/><path d="m49.31 13.93.39-.54.69 1.32z" class="st0"/><path d="m49.15 13.44.64.21-.23-1.47z" class="st0"/><path d="m49.98 13.44-.64.21.22-1.47z" class="st0"/><path d="m49.15 13.44.64.21-1.05 1.06z" class="st0"/><path d="m49.82 13.93-.39-.54-.69 1.32z" class="st0"/><path d="M35.88 14.72v1.2l2.41-1.2z" class="st3"/><path d="m36.34 16.13-.71-.97 2.66-.44z" class="st3"/><path d="M35.88 14.72v1.2l-2.41-1.2z" class="st3"/><path d="m35.42 16.13.71-.97-2.66-.44z" class="st3"/><path d="m36.63 15.26-1.15.37 1.89 1.92z" class="st3"/><path d="m35.42 16.13.71-.97 1.24 2.39z" class="st3"/><path d="m35.14 15.26 1.14.37-.4-2.67z" class="st3"/><path d="m36.63 15.26-1.15.37.4-2.67z" class="st3"/><path d="m35.14 15.26 1.14.37-1.89 1.92z" class="st3"/><path d="m36.34 16.13-.71-.97-1.24 2.39z" class="st3"/><path d="M35.88 14.98v.8l1.6-.8z" class="st0"/><path d="m36.19 15.92-.47-.65 1.76-.29z" class="st0"/><path d="M35.88 14.98v.8l-1.59-.8z" class="st0"/><path d="m35.58 15.92.47-.65-1.76-.29z" class="st0"/><path d="m36.37 15.34-.75.25 1.25 1.27z" class="st0"/><path d="m35.58 15.92.47-.65.82 1.59z" class="st0"/><path d="m35.39 15.34.76.25-.27-1.77z" class="st0"/><path d="m36.37 15.34-.75.25.26-1.77z" class="st0"/><path d="m35.39 15.34.76.25-1.25 1.27z" class="st0"/><path d="m36.19 15.92-.47-.65-.82 1.59z" class="st0"/><path d="M43.25 26.35v1.34l2.68-1.34z" class="st3"/><path d="m43.76 27.92-.79-1.08 2.96-.49z" class="st3"/><path d="M43.25 26.35v1.34l-2.68-1.34z" class="st3"/><path d="m42.74 27.92.79-1.08-2.96-.49z" class="st3"/><path d="m44.08 26.95-1.28.42 2.11 2.13z" class="st3"/><path d="m42.74 27.92.79-1.08 1.38 2.66z" class="st3"/><path d="m42.42 26.95 1.28.42-.45-2.97z" class="st3"/><path d="m44.08 26.95-1.28.42.45-2.97z" class="st3"/><path d="m42.42 26.95 1.28.42-2.11 2.13z" class="st3"/><path d="m43.76 27.92-.79-1.08-1.38 2.66z" class="st3"/><path d="M43.25 26.62v.92l1.86-.92z" class="st0"/><path d="m43.6 27.71-.54-.75 2.05-.34z" class="st0"/><path d="M43.25 26.62v.92l-1.86-.92z" class="st0"/><path d="m42.89 27.71.55-.75-2.05-.34z" class="st0"/><path d="m43.82 27.03-.88.29 1.46 1.48z" class="st0"/><path d="m42.89 27.71.55-.75.96 1.84z" class="st0"/><path d="m42.67 27.03.89.29-.31-2.06z" class="st0"/><path d="m43.82 27.03-.88.29.31-2.06z" class="st0"/><path d="m42.67 27.03.89.29-1.46 1.48z" class="st0"/><path d="m43.6 27.71-.54-.75-.96 1.84z" class="st0"/></svg>