<svg xmlns="http://www.w3.org/2000/svg" width="123.36" height="85.96" data-name="Layer 1" viewBox="0 0 123.36 85.96"><title>slovenia-flag</title><path d="M7 .24h109.37A6.77 6.77 0 0 1 123.12 7v72a6.77 6.77 0 0 1-6.75 6.75H7A6.77 6.77 0 0 1 .24 79V7A6.77 6.77 0 0 1 7 .24" style="fill:red"/><path d="M123.12 57.49H.24V7A6.77 6.77 0 0 1 7 .24h109.37A6.77 6.77 0 0 1 123.12 7z" style="fill:#005ce5"/><path d="M123.12 28.47H.24V7A6.77 6.77 0 0 1 7 .24h109.37A6.77 6.77 0 0 1 123.12 7z" style="fill:#fff"/><path d="M18.14 14.72h-.58A26 26 0 0 0 7.73 17l-.8.34.86 13.56a14.3 14.3 0 0 0 10.36 12.84A14.3 14.3 0 0 0 28.5 30.9l.86-13.52a9 9 0 0 0-.8-.39 25 25 0 0 0-10.41-2.26Z" style="fill:#005ce5;fill-rule:evenodd"/><path d="m18.15 24.1-2.54 4.95L14 26.92l-4.3 5.66q.1.53.26 1a3.2 3.2 0 0 0 2.58 1.73c.93 0 1.87-.75 2.8-.75s1.87.75 2.81.75 1.87-.75 2.8-.75 1.87.75 2.81.75a3.2 3.2 0 0 0 2.56-1.71q.15-.51.27-1l-4.27-5.65-1.64 2.13zm-2.81 11.23c-.93 0-1.87.75-2.8.75a3 3 0 0 1-1.87-.64 12 12 0 0 0 .56 1.07 2.5 2.5 0 0 0 1.31.4c.93 0 1.87-.75 2.8-.75s1.87.75 2.81.75 1.87-.75 2.8-.75 1.87.75 2.81.75a2.5 2.5 0 0 0 1.29-.39q.3-.52.56-1.06a3 3 0 0 1-1.85.62c-.94 0-1.87-.75-2.81-.75s-1.87.75-2.8.75-1.87-.75-2.81-.75m0 1.58c-.93 0-1.87.75-2.8.75a3 3 0 0 1-.54-.06 13 13 0 0 0 6.15 4.4 13 13 0 0 0 6.18-4.44 3 3 0 0 1-.57.06c-.94 0-1.87-.75-2.81-.75s-1.87.75-2.8.75-1.87-.75-2.81-.75Z" style="fill:#fff;fill-rule:evenodd"/><path d="m13.93 17.75.35-.61-.35-.61h.71l.35-.61.35.61h.71l-.35.61.35.61h-.71l-.35.62-.35-.62ZM17.08 22l.36-.62-.36-.61h.71l.35-.61.36.61h.7l-.35.61.35.62h-.7l-.36.61-.35-.61Zm3.16-4.24.36-.61-.36-.61H21l.36-.61.35.61h.71l-.36.61.36.61h-.71l-.35.62-.36-.63Zm-6.31 0" style="fill-rule:evenodd;fill:#ffe500"/><path d="m7.73 17-.8.34.86 13.56a14.3 14.3 0 0 0 10.36 12.84A14.3 14.3 0 0 0 28.5 30.9l.86-13.52a9 9 0 0 0-.8-.39l-.8 13.46a13.75 13.75 0 0 1-9.61 12.48 13.75 13.75 0 0 1-9.62-12.48z" style="fill:red;fill-rule:evenodd"/><path d="M7 .24h109.37A6.77 6.77 0 0 1 123.12 7v72a6.77 6.77 0 0 1-6.75 6.75H7A6.77 6.77 0 0 1 .24 79V7A6.77 6.77 0 0 1 7 .24Z" style="fill:none;stroke:#ccc;stroke-miterlimit:22.93;stroke-width:.48px"/></svg>