<svg xmlns="http://www.w3.org/2000/svg" width="512" height="512" fill-rule="evenodd" clip-rule="evenodd" image-rendering="optimizeQuality" shape-rendering="geometricPrecision" text-rendering="geometricPrecision" viewBox="0 0 512 512"><path fill="#fff" d="M512 256C512 114.62 397.38 0 256 0S0 114.62 0 256s114.62 256 256 256 256-114.62 256-256m-396.12-2.7q111.94-48.77 149.29-64.31c71.1-29.57 85.87-34.71 95.5-34.88 2.12-.03 6.85.49 9.92 2.98 2.59 2.1 3.3 4.94 3.64 6.93.34 2 .77 6.53.43 10.08-3.85 40.48-20.52 138.71-29 184.05-3.59 19.19-10.66 25.62-17.5 26.25-14.86 1.37-26.15-9.83-40.55-19.27-22.53-14.76-35.26-23.96-57.13-38.37-25.28-16.66-8.89-25.81 5.51-40.77 3.77-3.92 69.27-63.5 70.54-68.9.16-.68.31-3.2-1.19-4.53s-3.71-.87-5.3-.51q-3.39.76-107.98 71.37-15.33 10.52-27.77 10.26c-9.14-.2-26.72-5.17-39.79-9.42-16.03-5.21-28.77-7.97-27.66-16.82q.86-6.91 19.04-14.14"/></svg>