<svg xmlns="http://www.w3.org/2000/svg" width="512" height="356.18" fill-rule="evenodd" clip-rule="evenodd" image-rendering="optimizeQuality" shape-rendering="geometricPrecision" text-rendering="geometricPrecision" viewBox="0 0 512 356.18"><path fill-rule="nonzero" d="M28.137 0H483.86C499.337 0 512 12.663 512 28.14v299.9c0 15.477-12.663 28.14-28.14 28.14H28.137C12.663 356.18 0 343.517 0 328.04V28.14C0 12.663 12.663 0 28.137 0"/><path fill="#fcdc04" fill-rule="nonzero" d="M0 59.361h512v89.047H0zm512 178.093v90.586c0 15.477-12.663 28.14-28.14 28.14H28.137C12.663 356.18 0 343.517 0 328.04v-90.586z"/><path fill="#d90000" fill-rule="nonzero" d="M0 118.726h512v59.364H0zm512 178.093v31.221c0 15.477-12.663 28.14-28.14 28.14H28.137C12.663 356.18 0 343.517 0 328.04v-31.221z"/><path fill="#fff" fill-rule="nonzero" d="M311.506 178.09c0-30.655-24.851-55.506-55.506-55.506s-55.506 24.851-55.506 55.506 24.851 55.506 55.506 55.506 55.506-24.851 55.506-55.506"/><path fill-rule="nonzero" d="m245.682 135.835-3.585-6.605a.59.59 0 0 1 .102-.7c.801-.805 1.892-1.508 3.339-1.987 1.234-.407 2.731-.652 4.532-.652.328 0 .594.267.594.594l-.001.022c-.013.489-.381 7.254-.381 7.274a.59.59 0 0 1-.315.491l-3.474 1.832a.594.594 0 0 1-.801-.248zm-2.326-6.764 3.102 5.713 2.659-1.404c.061-1.13.259-4.821.333-6.29-1.393.047-2.563.257-3.541.581-1.069.352-1.907.841-2.553 1.4"/><path fill="#d90000" fill-rule="nonzero" d="m246.217 135.58-3.6-6.632c1.389-1.389 3.726-2.463 7.453-2.463 0 .253-.38 7.263-.38 7.263z"/><path fill-rule="nonzero" d="m249.1 133.773.504-7.327a.595.595 0 0 1 .587-.554c.483-.023 7.853-.296 11.953 4.636a.59.59 0 0 1-.037.796l-.418-.418-.454.378-.019-.022c-.243.53-.598 1.23-.982 1.958 1.334-1.343 2.479-2.499 1.874-1.895l-.001-.001-.04.037a.59.59 0 0 1-.832-.077l.454-.378-.229-.229a8 8 0 0 1-.244.585c-3.231-3.861-8.752-4.191-10.466-4.196l-.437 6.336 7.248 2.509 2.673-2.691a141 141 0 0 1-2.041 3.713.59.59 0 0 1-.707.203l-7.988-2.766a.59.59 0 0 1-.398-.597"/><path fill="#fcdc04" fill-rule="nonzero" d="m249.69 133.812.506-7.327s7.451-.441 11.493 4.421c.064-.064-3.978 5.684-3.978 5.684z"/><path fill-rule="nonzero" d="m257.339 136.206 3.663-5.684a.592.592 0 0 1 .944-.071c1.259 1.327 2.152 2.466 2.784 3.64.619 1.152.983 2.324 1.186 3.719q.183.327-.145.655l-.025.019a.6.6 0 0 1-.315.145l-.069.005c-.572.185-1.649.466-2.717.72-1.441.342-2.926.673-3.095.673-.4 0-.602-.238-.602-.596 0-.084-.3-.394-.632-.96l-.9-1.53a.594.594 0 0 1-.077-.735m4.246-4.402-3.049 4.732c.215.349.522.86.801 1.336.19.323.37.643.512.91a152 152 0 0 0 2.522-.584c.99-.235 1.912-.42 2.328-.512-.189-1.125-.505-2.09-1.014-3.033-.493-.918-1.174-1.826-2.1-2.849"/><path fill="#d90000" fill-rule="nonzero" d="m257.838 136.526 3.662-5.684c2.463 2.591 3.474 4.421 3.852 7.2.064.064-5.81 1.453-5.81 1.389 0-.062-1.642-2.841-1.704-2.905"/><path fill-rule="nonzero" d="M248.049 230.374s6.883-7.895 20.272-6.189c-2.021-3.284-8.526-2.905-8.526-2.905s-2.021-15.347-.442-16.105c1.578-.757 8.272.064 8.272.064.885 0 2.4-2.4 1.2-3.916s-4.736-7.326-3.283-8.462c1.453-1.138 9.347.63 9.347.63l-22.294-28.544s-2.273-10.737 2.273-15.916c5.495-4.547 4.927-9.473 4.738-9.41-.759-4.99-8.336-8.59-13.452-3.979-3.032 3.663-1.011 6.442-1.011 6.442s-7.957 2.147-8.273 3.536 8.968-.251 8.968-.251l-.885 6.378s-18.061 16.419-4.231 30.63c.127-.063.442-.632.442-.632s4.864 6 9.978 7.326c4.8 4.926 4.358 4.168 4.358 4.168s.947 7.768.064 9.284c-1.2-.379-13.453-.82-15.283-.126-1.643.504-7.959.189-6.38 10.483 1.2-2.779 2.274-5.241 2.274-5.241s-.19 3.725 1.326 5.053c-.252-3.917 1.453-6.569 1.453-6.569s.316 4.295 1.263 4.926.947-6.948 6.189-6.316c5.241.632 9.032.442 9.032.442s1.768 14.842 1.2 16.232c-3.791-.885-12.821.378-13.389 2.651 5.304-.315 7.768.316 7.768.316s-4.295 3.79-2.968 6"/><path fill-rule="nonzero" d="M248.143 229.846c1.467-1.462 8.055-7.24 19.532-6.033-2.271-2.562-7.849-2.237-7.866-2.237l-.272.013-.035-.271c-.006-.044-2.048-15.56-.277-16.41 1.608-.771 7.997-.017 8.413.033.097-.005.221-.067.355-.173.241-.19.484-.504.67-.879.186-.376.31-.81.31-1.242 0-.401-.11-.799-.379-1.141l-.027-.033c-.62-.793-1.811-2.641-2.661-4.43-.895-1.882-1.409-3.732-.551-4.411l.005-.004c1.265-.991 6.732-.009 8.797.407l-21.837-27.961-.014-.07c-.008-.03-2.304-10.876 2.341-16.168l.032-.033c3.595-2.975 4.537-6.099 4.711-7.823.039-.389.038-.704.02-.929l-.001-.056-.044.014-.052-.344c-.176-1.152-.737-2.231-1.557-3.14-.855-.949-1.987-1.712-3.257-2.184a8.2 8.2 0 0 0-4.074-.442c-1.404.213-2.805.828-4.056 1.949-2.866 3.477-.987 6.059-.982 6.066l.238.344-.404.111c-.022.005-7.787 2.106-8.062 3.316-.217.955 8.602-.604 8.628-.608l.401-.071-.956 6.885-.078.073c-.051.046-17.63 16.032-4.442 29.969.09-.149.195-.334.195-.335l.213-.374.273.334c.015.016 4.805 5.926 9.824 7.227l.08.02.058.059c2.812 2.887 3.673 4.171 3.849 4.455-.671-.497-1.926-1.636-4.218-3.985-4.469-1.2-8.697-5.825-9.783-7.083-.112.166-.244.339-.347.391l-.194.098-.152-.156c-13.532-13.905 2.902-29.798 4.164-30.981l.816-5.874c-1.825.3-9.274 1.432-8.908-.174.31-1.366 6.518-3.203 8.113-3.653-.453-.892-1.302-3.388 1.231-6.449l.03-.032c1.347-1.213 2.861-1.877 4.382-2.109 1.5-.228 3.006-.032 4.368.475 1.359.506 2.574 1.324 3.491 2.341.88.977 1.489 2.139 1.693 3.387.051.11.095.279.111.49.021.25.021.6-.022 1.033-.184 1.82-1.168 5.107-4.904 8.207-4.223 4.842-2.387 14.658-2.204 15.574l22.756 29.137-.8-.174c-.023-.005-7.765-1.736-9.103-.688l-.002.002c-.576.454-.068 2.038.719 3.694.833 1.751 1.991 3.55 2.592 4.32l.025.032c.363.458.509.981.509 1.505 0 .526-.15 1.051-.373 1.504-.224.453-.528.839-.835 1.082-.242.191-.497.302-.734.302l-.034-.002c-.018-.001-6.614-.809-8.11-.091-1.279.614.314 13.507.573 15.532 1.273-.029 6.659.03 8.52 3.055l.325.526-.614-.077c-13.232-1.686-19.995 6.071-20.015 6.093l-.267.3-.208-.345c-1.175-1.958 1.516-4.907 2.6-5.972-.984-.163-3.304-.427-7.129-.2l-.402.023.097-.391c.297-1.187 2.493-2.097 5.149-2.623 2.829-.56 6.215-.713 8.31-.306.311-2.109-1.02-13.656-1.245-15.576-.962.029-4.365.081-8.803-.454-3.349-.403-4.433 2.868-5.066 4.777-.187.564-.337 1.019-.511 1.281-.209.313-.445.409-.742.21-.746-.497-1.128-2.8-1.292-4.152a11.84 11.84 0 0 0-.964 5.53l.046.711-.536-.47c-.998-.873-1.309-2.663-1.4-3.917l-2.142 4.947-.156-1.02c-1.431-9.321 3.46-10.216 5.832-10.648.302-.056.561-.104.745-.16.829-.306 3.533-.401 6.456-.377 3.6.031 7.564.238 8.753.444.641-1.718-.101-8.165-.182-8.85l.029.05.027-.015-.057-.043-.185-1.55.732 1.32c.001.003.3.531.088.559.186 1.693.773 7.644-.027 9.018l-.119.206-.227-.071c-.667-.212-4.952-.444-8.837-.476-2.872-.024-5.508.061-6.253.344l-.016.005a8 8 0 0 1-.821.176c-2.094.383-6.319 1.158-5.491 8.918.993-2.293 1.845-4.248 1.847-4.253l.634-1.446-.067 1.575c0 .009-.132 2.627.71 4.156.027-3.513 1.521-5.838 1.526-5.843l.48-.742.064.881c.001.012.288 3.912 1.06 4.642.124-.195.262-.611.432-1.126.69-2.08 1.87-5.641 5.698-5.179 5.223.628 8.975.441 8.986.441l.274-.012.032.273c.006.042 1.776 14.917 1.18 16.377l-.096.235-.246-.058c-1.986-.463-5.455-.322-8.346.25-2.092.414-3.862 1.036-4.477 1.79 4.995-.25 7.335.35 7.342.352l.545.135-.42.374c-.011.009-3.633 3.208-3.071 5.25m7.061-36.527.009.014-.001-.008z"/><path fill="#9ca69c" fill-rule="nonzero" d="M242.441 175.1c-5.763-11.268 7.479-25.862 7.515-25.903l.859-.962-.353 1.239c-.345 1.212-.77 2.42-1.194 3.626-1.62 4.599-3.224 9.155-.315 14.377l.273.487-.556-.048c-.005 0-1.763-.146-2.049-.146-.158 0 .869 1.966.871 1.972l.166.452-2.433-.286 1.085 2.017-1.9-.476c.155.484.365 1.21.42 1.77l.756.45-.743-.249v.077c.052.159-.007.274-.163.352-.176.088-.673-.212-1.115-.541a4 4 0 0 1-.334-.283l-.008.121c-.03.437-.072 1.082-.227 1.875l-.164.841zm10.142-31.951c2.534-1.354 1.869-6.126 1.866-6.14l-.086-.619.534.326c1.311.798 1.976 1.892 2.182 3.061.128.713.083 1.452-.088 2.169a7 7 0 0 1-.839 2.01c-.802 1.317-1.984 2.317-3.117 2.523l-.141.034c-1.164.278-1.986.474-2.354-1.136-.255-1.018.876-1.605 1.614-1.988.172-.089.318-.164.396-.22z"/><path fill="#fff" fill-rule="nonzero" d="M249.944 141.283a1.067 1.067 0 1 0-2.135 0 1.067 1.067 0 0 0 2.135 0"/><path fill="#d90000" fill-rule="nonzero" d="M245.649 145.431c-.696.568-4.359 4.359-.759 5.748 3.727-1.011 2.716-1.706 3.537-2.527.021-1.705-1.852-2.147-2.778-3.221"/><path fill-rule="nonzero" d="M245.631 145.843c-.483.458-1.404 1.477-1.812 2.531-.13.337-.205.676-.191.995.013.3.109.586.318.841.203.248.514.473.96.657 2.456-.677 2.649-1.167 2.844-1.657.085-.219.172-.438.379-.674-.045-.907-.779-1.418-1.513-1.928-.343-.239-.688-.479-.985-.765m-2.363 2.318c.522-1.352 1.805-2.642 2.193-2.959l.223-.183.188.218c.282.328.684.606 1.083.884.892.62 1.784 1.24 1.768 2.535l-.001.121-.085.085c-.184.184-.261.376-.336.566-.251.634-.501 1.269-3.332 2.036l-.094.026-.091-.035c-.6-.231-1.019-.529-1.298-.869a1.98 1.98 0 0 1-.45-1.192c-.018-.405.074-.823.232-1.233"/><path fill="#9ca69c" fill-rule="nonzero" d="m253.28 181.33.183-.776.38.51c1.094 1.468 1.891 2.421 2.736 3.266.846.847 1.739 1.582 3.022 2.616l4.447 3.58-4.793-3.102a3.45 3.45 0 0 0-1.904-.583c-.852-.016-1.966.216-3.504.862l-.259.109-.123-.254c-1.119-2.301-.43-5.203-.185-6.228"/><path fill="#fff" fill-rule="nonzero" d="m259.036 195.576.191 7.074s2.462.442 3.6 0c1.136-.443-.064-4.927-3.791-7.074"/><path fill="#fff" fill-rule="nonzero" d="m259.347 196.117.169 6.28c.625.094 2.343.311 3.203-.022a.26.26 0 0 0 .119-.114c.094-.164.126-.442.093-.796a5.3 5.3 0 0 0-.347-1.353c-.519-1.33-1.592-2.898-3.237-3.995m-.416 6.54-.204-7.6.457.263c2.039 1.175 3.346 3.027 3.951 4.578.215.554.344 1.074.385 1.514.044.473-.014.871-.17 1.144q-.151.264-.416.37c-1.214.471-3.755.015-3.761.014l-.236-.044z"/><path fill-rule="nonzero" d="M276.366 196.694c-.014-.033-4.435-10.718-15.761-13.426-3.47-.83-5.825-2.49-7.395-4.454-1.584-1.981-2.36-4.259-2.675-6.307-.314-2.041-.169-3.876.089-4.956.118-.495.281-.875.459-1.1l.079-.177c.575-1.3 1.276-2.882 4.906-1.169.703.332 2.155 1.044 3.945 1.921 5.791 2.84 15.25 7.478 16.87 7.756 1.928.33 1.621 10.334 1.142 16.703a124 124 0 0 1-.318 3.604c-.122 1.157-.366 1.882-.656 1.952l-.039.007a.57.57 0 0 1-.575-.233l-.045-.06zm-15.487-14.577c9.009 2.155 13.86 9.096 15.699 12.371.081-.822.174-1.882.265-3.092.446-5.948.901-15.263-.158-15.445-1.78-.305-11.338-4.993-17.191-7.862-1.707-.837-3.088-1.515-3.931-1.912-2.532-1.195-2.962-.223-3.315.574l-.186.403-.108.088c-.031.023-.095.229-.18.582-.23.962-.356 2.623-.066 4.507.289 1.877.994 3.956 2.425 5.746 1.42 1.776 3.564 3.28 6.746 4.04"/><path fill="#9ca69c" fill-rule="nonzero" d="M276.91 196.461s-4.547-10.989-16.168-13.768-10.106-15.157-9.157-15.916c.505-1.073.883-2.715 4.231-1.136s18.757 9.346 20.968 9.725.315 21.346.126 21.095"/><path fill-rule="nonzero" d="M265.365 182.969q-.335-.502.163-.834l7.78-5.833-2.49-2.577 2.002.498c9.742 2.426 15.09 6.559 17.558 11.224 1.487 2.809 1.928 5.8 1.653 8.726 4.2 4.507 3.1 3.607-.063.574l-.022.174c1.066 1.245 1.255 1.574-.049.334-.437 2.836-1.519 5.579-2.935 7.998-2.847 4.864-7.098 8.432-10.207 8.81a.8.8 0 0 1-.203.023h-.409l-.418-1.115.456-.042a16.5 16.5 0 0 1 1.189-1.837c-1.552.55-1.876-.36-1.877-.363l-.057-.15.026-.155s.028-.207.196-.554c-4.948 2.024-3.666-.14-3.663-.146l.037-.065.81-.812a3.7 3.7 0 0 1-.783-.529l-.655-.568.768-.404c4.187-2.197 5.443-5.525 5.644-8.326-.516 1.164-1.391 2.327-2.831 3.281l-2.18 1.442 1.344-2.24c3.827-6.379-7.124-13.937-9.959-15.892-.452-.311-.731-.504-.823-.642zm1.482-.343.017.012c2.69 1.856 12.243 8.447 11.2 15.045 1.953-2.657 1.054-5.858 1.051-5.87l-3.217-11.976 4.344 11.617c.011.028 3.603 9.379-4.645 14.443.191.06.284.029.284.029l2.075-.518-2.644 2.645c.438-.33 1.536-1.025 4.245-2.339l4.642-2.247-4.013 3.243c-.923.746-1.301 1.31-1.453 1.626.261-.055 1.031-.447 3.282-2.409l7.529-6.557c.615-1.559 1.058-3.197 1.258-4.859l.032-.287c-2.512-2.474-7.655-7.713-16.692-17.06l-.005-.005zm22.581 17.034-6.59 7.117c-1.587 1.713-2.536 2.997-3.083 3.832 2.625-.943 5.862-3.984 8.187-7.954a24 24 0 0 0 1.486-2.995m1.452-5.958-.013-.014zm.036-.721c.065-2.361-.398-4.74-1.585-6.982-2.146-4.055-6.67-7.698-14.737-10.068 8.02 8.309 13.218 13.747 16.322 17.05"/><path fill="#d90000" fill-rule="nonzero" d="M265.857 182.629c-.189.126 15.537 9.283 10.8 17.178 4.485-2.968 3.031-8.146 3.031-8.146s3.664 9.536-5.242 14.21c.949.821 1.579.63 1.579.63l-1.515 1.517s-.696 1.136 5.304-1.769c-1.641 1.326-1.768 2.273-1.768 2.273s.442 1.264 4.359-2.147c-3.159 3.411-3.853 5.179-3.853 5.115 8.525-.757 27.093-28.482-5.874-36.692 1.77 1.832 1.516 1.579 1.516 1.579z"/><path fill-rule="nonzero" d="m266.514 180.612-2.341-1.653 2.466.368c2.045.304 3.811.769 5.679 1.302-.535-.769-1.332-1.758-2.352-2.592l-1.433-1.173 1.846.122c.655.043 3.765 1.477 6.106 2.597l-2.179-2.436c-1.771-.555-5.87-1.558-7.308-2.293-.002-.002-.926-.267-7.153-3.222-1.547-.411-2.49-.312-3.014.054a1.25 1.25 0 0 0-.477.685c-.092.307-.1.663-.046 1.023.134.901.615 1.77 1.099 2.012l.055.031c.009.006 3.124 1.988 3.533 1.988h.116l.111.047c.747.311 4.15 3.509 4.986 4.302a15 15 0 0 1 2.025.08 48 48 0 0 0-1.719-1.242m2.536.381c.695.555 1.038.964 1.221 1.514l.331.994-1.022-.231c-1.867-.421-3.541-.301-3.545-.301l-.266.023-.196-.188c-.011-.011-4.027-3.851-4.775-4.224-.973-.26-3.77-2.016-3.965-2.139-.779-.422-1.517-1.65-1.699-2.876-.077-.52-.061-1.05.084-1.533.155-.517.454-.977.937-1.314.797-.559 2.087-.749 4.046-.219l.051.014.048.023c5.871 2.787 6.952 3.159 7.06 3.192 2.537.79 5.07 1.593 7.607 2.385q3.21 3.591 6.425 7.181l-2.721-1.332c-.015-.008-3.541-1.754-6.029-2.874.972 1.213 1.503 2.249 1.506 2.252l.659 1.236-1.811-.521v-.003c-1.355-.389-2.622-.754-3.946-1.059"/><path fill="#fff" fill-rule="nonzero" d="M266.553 179.914c2.146 1.515 2.904 2.02 3.157 2.779-1.958-.442-3.726-.316-3.726-.316s-4.231-4.043-4.989-4.358c-.568 0-3.853-2.083-3.853-2.083-1.642-.822-3.157-6.506 2.905-4.864 6.252 2.968 7.137 3.221 7.137 3.221q3.725 1.17 7.452 2.337l4.295 4.8s-7.642-3.79-8.589-3.853c2.083 1.705 3.283 4.042 3.283 4.042-2.421-.696-4.526-1.326-7.072-1.705"/><path fill-rule="nonzero" d="M236.807 145.999s7.325-1.768 8.21-1.515zm0 0L28.137 0z"/><path fill="#fff" fill-rule="nonzero" d="M236.737 145.711c.022-.004 7.406-1.784 8.361-1.512l-.163.57c-.813-.232-8.038 1.513-8.058 1.518z"/></svg>