<svg xmlns="http://www.w3.org/2000/svg" xml:space="preserve" id="Layer_1" width="55.2" height="38.4" x="0" y="0" viewBox="0 0 55.2 38.4"><style>.st1{fill:#fff}</style><path d="M3.03 0h49.13a3.03 3.03 0 0 1 3.03 3.03v32.33a3.03 3.03 0 0 1-3.03 3.03H3.03A3 3 0 0 1 0 35.37V3.03A3.03 3.03 0 0 1 3.03 0" style="fill:#b22234"/><path d="M.02 2.73h55.17l.02.31v2.94H0V3.03zM55.2 8.67v3.24H0V8.67zm0 5.94v3.24H0v-3.24zm0 5.94v3.24H0v-3.24zm0 5.94v3.24H0v-3.24zm0 5.94v2.93l-.02.31H.02l-.02-.3v-2.93z" class="st1"/><path d="M20.8 0v20.68H0V3.03A3.03 3.03 0 0 1 3.03 0z" style="fill:#3c3b6e"/><path d="m1.23 2.86.69 2.15L.1 3.68h2.26L.53 5.01zm0 4.16.69 2.15L.1 7.84h2.26L.53 9.17zm0 4.16.69 2.15L.1 12h2.26L.53 13.33zm0 4.16.69 2.15L.1 16.16h2.26L.53 17.49zM3.67.78l.7 2.15L2.54 1.6h2.27L2.97 2.93zm0 4.16.7 2.15-1.83-1.33h2.27L2.97 7.09zm0 4.16.7 2.15-1.83-1.33h2.27l-1.84 1.33zm0 4.16.7 2.15-1.83-1.33h2.27l-1.84 1.33zm0 4.16.7 2.15-1.83-1.33h2.27l-1.84 1.33zM6.12 2.86l.7 2.15-1.83-1.33h2.26L5.42 5.01zm0 4.16.7 2.15-1.83-1.33h2.26L5.42 9.17zm0 4.16.7 2.15L4.99 12h2.26l-1.83 1.33zm0 4.16.7 2.15-1.83-1.33h2.26l-1.83 1.33zM8.57.78l.69 2.15L7.44 1.6H9.7L7.87 2.93zm0 4.16.69 2.15-1.82-1.33H9.7L7.87 7.09zm0 4.16.69 2.15-1.82-1.33H9.7l-1.83 1.33zm0 4.16.69 2.15-1.82-1.33H9.7l-1.83 1.33zm0 4.16.69 2.15-1.82-1.33H9.7l-1.83 1.33zm2.44-14.56.7 2.15-1.83-1.33h2.26l-1.83 1.33zm0 4.16.7 2.15-1.83-1.33h2.26l-1.83 1.33zm0 4.16.7 2.15L9.88 12h2.26l-1.83 1.33zm0 4.16.7 2.15-1.83-1.33h2.26l-1.83 1.33zM13.46.78l.7 2.15-1.83-1.33h2.26l-1.83 1.33zm0 4.16.7 2.15-1.83-1.33h2.26l-1.83 1.33zm0 4.16.7 2.15-1.83-1.33h2.26l-1.83 1.33zm0 4.16.7 2.15-1.83-1.33h2.26l-1.83 1.33zm0 4.16.7 2.15-1.83-1.33h2.26l-1.83 1.33zM15.9 2.86l.7 2.15-1.83-1.33h2.26l-1.82 1.33zm0 4.16.7 2.15-1.83-1.33h2.26l-1.82 1.33zm0 4.16.7 2.15L14.77 12h2.26l-1.82 1.33zm0 4.16.7 2.15-1.83-1.33h2.26l-1.82 1.33zM18.35.78l.7 2.15-1.83-1.33h2.26l-1.83 1.33zm0 4.16.7 2.15-1.83-1.33h2.26l-1.83 1.33zm0 4.16.7 2.15-1.83-1.33h2.26l-1.83 1.33zm0 4.16.7 2.15-1.83-1.33h2.26l-1.83 1.33zm0 4.16.7 2.15-1.83-1.33h2.26l-1.83 1.33z" class="st1"/></svg>