<svg xmlns="http://www.w3.org/2000/svg" xml:space="preserve" id="Layer_1" width="55.2" height="38.4" x="0" y="0" viewBox="0 0 55.2 38.4"><style>.st1{fill:#c8102e}</style><path d="M2.87 38.4h49.46a3.05 3.05 0 0 0 2.87-3.03V3.03A3.04 3.04 0 0 0 52.19 0H3.01A3.04 3.04 0 0 0 0 3.03v32.33a3.05 3.05 0 0 0 2.87 3.04" style="fill:#fefefe"/><path d="M23.74 23.03V38.4h7.68V23.03H55.2v-7.68H31.42V0h-7.68v15.35H0v7.68z" class="st1"/><path d="M33.98 12.43V0h18.23c1.26.02 2.34.81 2.78 1.92zm0 13.54V38.4h18.35a3.1 3.1 0 0 0 2.66-1.92zm-12.8 0V38.4H2.87a3 3 0 0 1-2.66-1.94zm0-13.54V0H2.99A3 3 0 0 0 .21 1.94zM0 12.8h7.65L0 8.97zm55.2 0h-7.69l7.69-3.85zm0 12.8h-7.69l7.69 3.85zM0 25.6h7.65L0 29.43z" style="fill:#012169"/><path d="M55.2 3.25 36.15 12.8h4.26L55.2 5.4zM19.01 25.6h-4.26L0 32.98v2.15l19.05-9.53zm-8.49-12.79h4.26L0 5.41v2.14zm34.11 12.78h-4.26l14.83 7.43v-2.14z" class="st1"/></svg>