<svg xmlns="http://www.w3.org/2000/svg" xml:space="preserve" id="Layer_1" width="55.2" height="38.4" x="0" y="0" viewBox="0 0 55.2 38.4"><style>.st1{fill:#ff0}</style><path d="M3.01 0h49.17a3.04 3.04 0 0 1 3.01 3.03v32.33a3.04 3.04 0 0 1-3.01 3.03H3.01A3 3 0 0 1 0 35.37V3.03A3.04 3.04 0 0 1 3.01 0" style="fill:#da251d"/><path d="m27.6 11.52-2.37 7.3 4.87 1.58zm0 0" class="st1"/><path d="m27.6 11.52 2.37 7.3-4.87 1.58zm0 0" class="st1"/><path d="M34.9 16.83h-7.68v5.12zm0 0" class="st1"/><path d="m34.9 16.83-6.21 4.51-3.01-4.14zm0 0" class="st1"/><path d="m32.11 25.41-2.37-7.3-4.87 1.58zm0 0" class="st1"/><path d="M32.11 25.41 25.9 20.9l3.01-4.14zm0 0" class="st1"/><path d="M20.3 16.83h7.68v5.12zm0 0" class="st1"/><path d="m20.3 16.83 6.21 4.51 3.01-4.14zm0 0" class="st1"/><path d="m23.09 25.41 2.37-7.3 4.87 1.58zm0 0" class="st1"/><path d="m23.09 25.41 6.21-4.51-3.01-4.14zm0 0" class="st1"/></svg>