<svg xmlns="http://www.w3.org/2000/svg" xml:space="preserve" id="Layer_1" width="115.031" height="122.88" x="0" y="0" viewBox="0 0 115.031 122.88"><path fill="#00a912" d="M68.988 7.718H27.144c-2.73 0-5.25.473-7.508 1.418s-4.357 2.362-6.248 4.252c-1.89 1.89-3.307 3.99-4.252 6.248s-1.417 4.777-1.417 7.508V67.99c0 2.73.473 5.25 1.417 7.508s2.363 4.357 4.252 6.248c1.943 1.89 4.043 3.36 6.301 4.252 2.258.945 4.725 1.418 7.455 1.418H45.1c2.101 0 3.833 1.732 3.833 3.833 0 .473-.105.893-.21 1.313-.683 2.52-1.417 5.04-2.258 7.455a93 93 0 0 1-2.888 7.35c-.525 1.208-1.155 2.363-1.837 3.57a72 72 0 0 0 10.343-5.617 71.6 71.6 0 0 0 9.398-7.351c2.939-2.73 5.564-5.723 7.979-8.925a3.78 3.78 0 0 1 3.046-1.522h15.436c2.729 0 5.197-.473 7.455-1.418q3.386-1.416 6.301-4.253c1.89-1.89 3.307-3.99 4.252-6.248s1.418-4.777 1.418-7.508V27.249c0-2.73-.473-5.25-1.418-7.508s-2.362-4.358-4.252-6.248c-1.891-1.89-3.991-3.308-6.248-4.252-2.258-.945-4.778-1.417-7.508-1.417H68.988zM38.325 52.816a4.6 4.6 0 0 1-1.418-3.239 4.615 4.615 0 0 1 4.524-4.711 4.6 4.6 0 0 1 3.294 1.285l7.941 7.64L68.474 33.71c-.007-.02.132-.137.153-.152a4.62 4.62 0 0 1 6.155 6.888L55.81 63.54c.009.009-.104.108-.117.119a4.62 4.62 0 0 1-3.125 1.143 4.6 4.6 0 0 1-3.121-1.285zM46.097.053h41.845c3.675 0 7.14.683 10.395 1.995 3.203 1.313 6.144 3.308 8.769 5.933s4.62 5.565 5.933 8.768 1.994 6.668 1.994 10.396V67.99c0 3.728-.682 7.192-1.994 10.396s-3.308 6.143-5.933 8.768-5.565 4.568-8.769 5.933c-3.202 1.313-6.667 1.995-10.395 1.995H74.396a78 78 0 0 1-7.665 8.4 75 75 0 0 1-10.448 8.19 77 77 0 0 1-11.971 6.458c-4.2 1.838-8.715 3.359-13.44 4.62-1.365.367-2.835-.053-3.833-1.155-1.417-1.575-1.26-3.99.315-5.408 2.205-1.942 4.095-3.938 5.618-5.932 1.47-1.943 2.678-3.938 3.57-5.986v-.052a81 81 0 0 0 2.678-6.721c.262-.787.525-1.627.788-2.467H27.091c-3.675 0-7.14-.683-10.396-1.996-3.203-1.312-6.143-3.307-8.768-5.933s-4.62-5.564-5.933-8.768C.683 75.078 0 71.613 0 67.938V27.091c0-3.675.683-7.141 1.995-10.396 1.313-3.203 3.308-6.143 5.933-8.768s5.565-4.62 8.768-5.933S23.363 0 27.091 0h18.953z"/></svg>