<svg xmlns="http://www.w3.org/2000/svg" xml:space="preserve" id="Layer_1" width="240" height="240" x="0" y="0" viewBox="0 0 240 240"><path fill="#848484" d="M58.57 25.81a7.7 7.7 0 0 1 13.31-7.71l9.88 17.1a7.7 7.7 0 0 1-13.31 7.71zM120 51.17a68.6 68.6 0 0 1 48.67 20.16A68.7 68.7 0 0 1 188.83 120a68.6 68.6 0 0 1-20.16 48.67A68.6 68.6 0 0 1 120 188.83a68.6 68.6 0 0 1-48.67-20.16A68.6 68.6 0 0 1 51.17 120a68.6 68.6 0 0 1 20.16-48.67A68.7 68.7 0 0 1 120 51.17m38.27 30.56A54 54 0 0 0 120 65.88a54 54 0 0 0-38.27 15.85A54 54 0 0 0 65.88 120a54 54 0 0 0 15.85 38.27A54 54 0 0 0 120 174.12a54 54 0 0 0 38.27-15.85A54 54 0 0 0 174.12 120a54 54 0 0 0-15.85-38.27M113.88 7.71a7.7 7.7 0 1 1 15.42 0v19.75a7.7 7.7 0 1 1-15.42 0zm56.99 12.01a7.68 7.68 0 0 1 13.31 7.65l-9.88 17.1a7.68 7.68 0 0 1-13.31-7.65zm43.32 38.85a7.7 7.7 0 0 1 7.71 13.31l-17.1 9.88a7.7 7.7 0 0 1-7.71-13.31zm18.1 55.31a7.7 7.7 0 1 1 0 15.42h-19.75a7.7 7.7 0 1 1 0-15.42zm-12.01 56.99a7.68 7.68 0 0 1-7.65 13.31l-17.1-9.88a7.68 7.68 0 0 1 7.65-13.31zm-38.85 43.32a7.7 7.7 0 0 1-13.31 7.71l-9.88-17.1a7.7 7.7 0 0 1 13.31-7.71zm-55.31 18.1a7.7 7.7 0 1 1-15.42 0v-19.75a7.7 7.7 0 1 1 15.42 0zm-56.99-12.01a7.68 7.68 0 0 1-13.31-7.65l9.88-17.1a7.68 7.68 0 0 1 13.31 7.65zm-43.32-38.85a7.7 7.7 0 0 1-7.71-13.31l17.1-9.88a7.7 7.7 0 0 1 7.71 13.31zm-18.1-55.31a7.7 7.7 0 1 1 0-15.42h19.75a7.7 7.7 0 1 1 0 15.42zm12.01-56.99a7.68 7.68 0 0 1 7.65-13.31l17.1 9.88a7.68 7.68 0 0 1-7.65 13.31z"/></svg>