<svg xmlns="http://www.w3.org/2000/svg" xml:space="preserve" id="Layer_1" width="122.88" height="122.89" x="0" y="0" viewBox="0 0 122.88 122.89"><path fill="#848484" d="M49.06 1.27A62 62 0 0 1 62.07 0a2.19 2.19 0 0 1 .75 4.24 40.8 40.8 0 0 0-20.96 18.62 40.8 40.8 0 0 0-4.09 27.68l.01.07a40.8 40.8 0 0 0 17.58 25.91 40.8 40.8 0 0 0 30.73 5.92l.07-.01a40.7 40.7 0 0 0 20.3-10.78 41 41 0 0 0 11.33-20.16 2.19 2.19 0 0 1 4.29.14 61.3 61.3 0 0 1-10.06 44.71 61.2 61.2 0 0 1-38.18 25.29 61.3 61.3 0 0 1-46.18-8.86A61.3 61.3 0 0 1 1.27 73.83a61.3 61.3 0 0 1 8.26-45.25A61.3 61.3 0 0 1 46.91 1.75l1.06-.25h.01z"/></svg>