<svg xmlns="http://www.w3.org/2000/svg" width="512" height="512" fill-rule="evenodd" clip-rule="evenodd" image-rendering="optimizeQuality" shape-rendering="geometricPrecision" text-rendering="geometricPrecision" viewBox="0 0 512 512"><path fill="#848484" d="M256 0c70.69 0 134.7 28.66 181.02 74.98A255.2 255.2 0 0 1 512 256c0 70.69-28.66 134.7-74.98 181.02A255.2 255.2 0 0 1 256 512a255.2 255.2 0 0 1-181.02-74.98A255.2 255.2 0 0 1 0 256 255.2 255.2 0 0 1 74.98 74.98 255.2 255.2 0 0 1 256 0m-21.91 302.69v-2.07c.16-13.72 1.51-24.59 4.15-32.67 2.59-8.08 6.32-14.65 11.18-19.63a87 87 0 0 1 17.56-13.72q6.62-4.18 11.91-9.37a39 39 0 0 0 8.38-11.91 35 35 0 0 0 3.11-14.91q0-9.78-4.66-16.99a31.5 31.5 0 0 0-12.27-11.08 37.4 37.4 0 0 0-17.09-3.89 38 38 0 0 0-16.21 3.53 30.7 30.7 0 0 0-12.79 10.97q-5.06 7.47-5.85 19.11h-33.56q.8-19.81 10.05-33.55a59 59 0 0 1 24.55-20.82q15.31-7.05 33.81-7.04c13.57 0 25.38 2.48 35.52 7.56q15.24 7.54 23.72 21.08c5.59 9 8.44 19.47 8.44 31.48q0 12.35-3.88 22.21a56 56 0 0 1-10.98 17.61 75 75 0 0 1-17.03 13.67c-6.27 3.94-11.35 7.97-15.18 12.17a38 38 0 0 0-8.44 14.86q-2.66 8.6-2.9 21.33v2.07zm16.68 70.67a21.4 21.4 0 0 1-15.59-6.48 21.2 21.2 0 0 1-6.47-15.63c0-6.01 2.12-11.19 6.47-15.49a21.4 21.4 0 0 1 15.59-6.47c5.95 0 11.12 2.19 15.48 6.47a21 21 0 0 1 6.58 15.49c0 4.04-1.05 7.76-3.06 11.08a23 23 0 0 1-7.97 8.03 21.3 21.3 0 0 1-11.03 3"/></svg>