<svg xmlns="http://www.w3.org/2000/svg" width="300" height="66" fill="none" xmlns:v="https://vecta.io/nano"><path d="M29.791 36.024c3.739-1.724 6.951-3.254 9.264-4.653a26.87 26.87 0 0 0 6.244-5.51c1.76-2.175 2.759-4.833 2.852-7.592.261-2.86-.356-5.731-1.774-8.253-1.501-2.4-3.581-4.414-6.064-5.867-2.719-1.457-5.678-2.448-8.748-2.928a20.18 20.18 0 0 0-4.492-.163h-.123l-8.984.683-4.593 6.377v1.54c-.314.542-.552 1.122-.707 1.724l.887.336.18 5.173 8.916-1.204c1.606-4.143 4.099-5.857 7.142-5.347.676.111 1.322.352 1.901.708a5.08 5.08 0 0 1 1.468 1.364 7.2 7.2 0 0 1 .898 3.959c-.18 1.898-1.246 3.796-3.032 6.03-2.113 2.223-4.444 4.243-6.962 6.03-2.621 1.884-5.358 3.612-8.198 5.173l-5.896 3.438-.528 7.928L44.76 55.817l.708-10.846-21.886-6.03v-.174c.494-.336 2.639-1.193 6.21-2.744z" fill="#bf2824"/><path d="M35.676 57.379l.887-11.019-22.291-6.204v-.13c.528-.173 2.493-1.204 6.244-2.755a90.29 90.29 0 0 0 9.444-4.837 21.46 21.46 0 0 0 6.244-5.683 13.21 13.21 0 0 0 2.852-7.592c.275-2.939-.425-5.887-1.999-8.416-1.469-2.481-3.633-4.511-6.244-5.857a29.04 29.04 0 0 0-8.692-2.972c-2.801-.439-5.669-.262-8.388.521-2.428.648-4.641 1.893-6.423 3.612a14.31 14.31 0 0 0-3.942 6.204l10.342 4.653c1.606-4.338 3.751-6.204 6.738-5.683.676.106 1.324.343 1.903.697s1.078.818 1.466 1.363a7.24 7.24 0 0 1 .898 3.969c-.368 2.292-1.495 4.408-3.212 6.03a47 47 0 0 1-6.906 6.019c-2.621 1.884-5.358 3.612-8.198 5.173L.539 37.922 0 45.84l35.676 11.54z" fill="#e74b4a"/><path d="M56.721 34.995l5.525-17.743-2.673-6.898-2.493.39a10.86 10.86 0 0 0-.932-3.666l4.278-3.254-11.229-1.551c-1.901-.196-3.82-.137-5.705.174-2.809.515-5.482 1.57-7.861 3.102a24.5 24.5 0 0 0-6.423 6.366c-1.937 2.647-3.328 5.63-4.099 8.785l9.803 2.419 11.465-8.633c0 .347.18.868.18 1.388a17.08 17.08 0 0 1-2.145 6.887 85.45 85.45 0 0 1-5.884 9.306c-2.504 3.438-4.997 6.887-8.029 10.499s-5.177 6.377-6.603 8.308v9.132l9.792 4.783 34.598-26.029-11.566-3.763z" fill="#1e5d65"/><path d="M68.5 48.084v-9.653l-18.742 7.755v-.174c.539-.521 2.325-2.928 5.716-6.713 3.212-3.796 5.705-6.898 7.49-9.479a41.3 41.3 0 0 0 4.279-7.755 20 20 0 0 0 1.606-7.592c.136-2.362-.487-4.707-1.785-6.713-1.16-1.713-2.943-2.944-4.997-3.449a16.26 16.26 0 0 0-7.67-.174c-2.977.573-5.818 1.676-8.377 3.254a25.56 25.56 0 0 0-6.962 6.724c-1.947 2.798-3.382 5.898-4.245 9.165l12.353-.347c1.246-5.173 3.369-8.102 6.244-8.785A2.96 2.96 0 0 1 55.125 14a2.89 2.89 0 0 1 1.494.831c.736 1.023 1.085 2.26.988 3.503-.165 2.554-.958 5.034-2.313 7.234a90.94 90.94 0 0 1-6.064 9.815c-2.504 3.622-5.357 7.234-8.388 11.03l-6.951 8.611v9.479l34.61-16.42z" fill="#32909d"/><path d="M97.076 16.054c-.288 0-.433.146-.433.439v19.795c0 .293.144.439.433.439h14.957c1.699 0 3.142.293 4.328.878 1.218.553 2.228 1.333 3.03 2.34.801.975 1.443 2.129 1.923 3.462.481 1.3.866 2.698 1.155 4.193H84.717V14.591c0-1.43.288-2.714.866-3.852.577-1.17 1.331-2.162 2.26-2.974a10.97 10.97 0 0 1 3.27-1.902c1.25-.455 2.533-.683 3.847-.683h27.509c-.289 1.463-.674 2.86-1.155 4.193s-1.138 2.503-1.971 3.51a8.64 8.64 0 0 1-2.982 2.389c-1.186.585-2.629.878-4.328.878l-14.957-.098zm51.23 20.868l.096-2.292.096-2.292c0-.325-.16-.488-.481-.488h-12.84c-.321 0-.481.163-.481.488v5.9c0 1.723-.369 3.169-1.106 4.339a8.97 8.97 0 0 1-2.789 2.828c-1.123.715-2.389 1.252-3.8 1.609s-2.821.618-4.232.78V14.64c0-1.43.289-2.714.866-3.852.577-1.17 1.33-2.162 2.26-2.974.962-.845 2.052-1.495 3.27-1.95a11.17 11.17 0 0 1 3.848-.683h27.412v42.613c-1.699-.195-3.286-.504-4.761-.926s-2.757-1.024-3.847-1.804c-1.09-.813-1.956-1.869-2.597-3.169-.61-1.333-.914-2.991-.914-4.973zm.192-20.38c0-.325-.16-.488-.481-.488h-12.84c-.321 0-.481.163-.481.488v3.998c0 .293.16.439.481.439h12.84c.321 0 .481-.146.481-.439v-3.998zM191.754 47.6h-27.508a26.54 26.54 0 0 1 1.154-4.193c.481-1.333 1.122-2.487 1.924-3.462.801-1.008 1.795-1.788 2.981-2.34 1.218-.585 2.677-.878 4.377-.878h14.956c.289 0 .433-.146.433-.439V32.29c0-.325-.144-.488-.433-.488h-25.2V14.591c0-1.43.289-2.714.866-3.852.577-1.17 1.33-2.162 2.26-2.974a10.99 10.99 0 0 1 3.27-1.902 11.17 11.17 0 0 1 3.848-.683h27.508c-.289 1.463-.673 2.86-1.154 4.193s-1.138 2.503-1.972 3.51a8.63 8.63 0 0 1-2.982 2.389c-1.187.585-2.629.878-4.328.878l-14.956-.098c-.289 0-.433.146-.433.439v3.998c0 .325.144.488.433.488h25.2V38.19c0 1.398-.289 2.682-.866 3.852a9.12 9.12 0 0 1-2.309 2.974c-.929.813-2.019 1.446-3.27 1.901-1.218.455-2.484.683-3.799.683zm13.085.244V14.543c0-1.235.256-2.357.769-3.364.481-1.04 1.138-1.983 1.972-2.828.577-.585 1.234-1.073 1.972-1.463.737-.423 1.507-.748 2.308-.975a17.39 17.39 0 0 1 2.501-.585l2.501-.341v33.252c0 1.235-.257 2.373-.77 3.413-.481 1.008-1.138 1.934-1.972 2.779a7.71 7.71 0 0 1-2.019 1.463c-.738.423-1.523.748-2.357.975a15.82 15.82 0 0 1-2.453.585l-2.452.39zm41.708-.049V16.542c0-.325-.16-.488-.481-.488h-12.84c-.321 0-.481.163-.481.488v21.697c0 1.723-.369 3.169-1.107 4.339a8.97 8.97 0 0 1-2.789 2.828c-1.122.715-2.388 1.252-3.799 1.609s-2.821.618-4.232.78V14.64c0-1.43.288-2.714.866-3.852.577-1.17 1.33-2.162 2.26-2.974.962-.845 2.052-1.495 3.27-1.95 1.25-.455 2.533-.683 3.847-.683h27.413v33.057c0 1.723-.369 3.169-1.107 4.339a8.97 8.97 0 0 1-2.789 2.828c-1.154.715-2.436 1.252-3.847 1.609s-2.805.618-4.184.78zm43.209-.195H262.44V14.591c0-1.43.288-2.714.865-3.852.577-1.17 1.331-2.162 2.261-2.974.961-.813 2.052-1.446 3.27-1.902 1.25-.455 2.533-.683 3.847-.683h27.316v33.01c0 1.398-.288 2.682-.865 3.852a9.14 9.14 0 0 1-2.309 2.974c-.93.813-2.02 1.446-3.27 1.901a10.77 10.77 0 0 1-3.799.683zm-1.684-31.107a.38.38 0 0 0-.432-.439h-12.841c-.288 0-.433.146-.433.439v19.795c0 .293.145.439.433.439h12.841a.38.38 0 0 0 .432-.439V16.493z" fill="#fff"/></svg>