<svg xmlns="http://www.w3.org/2000/svg" width="205" height="35" fill="none" viewBox="0 0 205 35"><path fill="#fff" d="M72.224 14.248C74.139 6.41 69.214 0 61.19 0H44.593l-8.664 34.996h9.302l1.642-6.5h7.204c.456 0 .82 0 1.276-.09l3.101 6.59h10.67l-4.742-9.974c3.738-2.582 6.748-6.411 7.842-10.774M48.605 21.37 52.071 7.3h5.927c4.742 0 6.201 3.207 5.198 7.036-1.003 3.918-3.83 7.034-8.663 7.034z"/><path fill="#3486e3" d="M136.971 19.323c-.638-.98-1.459-1.692-2.553-2.315 1.55-.801 2.827-1.78 3.921-3.117 1.277-1.513 1.915-3.472 2.006-5.61q.136-4.007-3.009-6.144C135.33.712 132.32 0 128.49 0h-17.235l-8.663 34.996h18.876c4.834 0 8.755-.98 11.764-2.76 3.101-1.87 4.742-4.72 4.833-8.46.092-1.692-.273-3.206-1.094-4.453m-21.795 1.425h9.302c4.742 0 4.559 2.226 4.559 3.028-.091 1.424-.638 2.493-1.824 3.205-1.185.802-2.918 1.158-5.015 1.158h-8.846zm13.861-7.925c-1.094.801-2.735 1.157-4.651 1.157h-7.568l1.732-7.034h7.752c4.559 0 4.559 2.048 4.468 2.671-.091 1.425-.638 2.493-1.733 3.206m40.489-5.433 1.824-7.3h-26.081l-8.663 34.906h26.719l1.915-7.302h-17.782l1.641-6.856h14.956l1.824-7.124h-14.956l1.55-6.322zM173.63.089l-1.824 7.39h10.396l-6.839 27.516h9.119l6.839-27.515h11.855L205 .089z"/><path fill="#fff" d="m32.19 21.376 1.642-6.59h-9.21l-1.642 6.59h-9.848L33.742.182h-10.67L1.459 22.444 0 28.5h21.157l-1.55 6.5h9.21l1.641-6.5h7.113l1.824-7.124zm64.93 13.619h9.484L100.038.09h-11.49L64.655 34.995h9.484l4.469-6.5h17.417zM83.44 21.371l8.754-12.734 2.371 12.734z"/></svg>