<svg xmlns="http://www.w3.org/2000/svg" width="136" height="25" fill="none" viewBox="0 0 136 25"><path fill="#3396d3" d="M134.787 2c.258 0 .467.209.467.467v19.43a.467.467 0 0 1-.467.467h-3.901a.47.47 0 0 1-.385-.203L123.305 11.7a.08.08 0 0 0-.064-.034.08.08 0 0 0-.078.078v10.154a.467.467 0 0 1-.467.467h-4.595a.467.467 0 0 1-.467-.467V2.467c0-.258.209-.467.467-.467h3.979c.155 0 .3.077.386.204l7.069 10.41c.02.028.052.045.086.045a.104.104 0 0 0 .104-.104V2.467c0-.258.209-.467.467-.467zm-20.239 0c.257 0 .466.209.466.467v19.43a.467.467 0 0 1-.466.467h-4.595a.467.467 0 0 1-.467-.467V2.467c0-.258.209-.467.467-.467zM84.38 22.364a.47.47 0 0 1-.447-.335l-5.73-19.43A.467.467 0 0 1 78.65 2h5.166c.219 0 .408.152.456.365l2.685 12.084a.101.101 0 0 0 .197.004l3.19-12.105a.47.47 0 0 1 .45-.348h4.133c.212 0 .398.143.451.348l3.19 12.145a.101.101 0 0 0 .197-.004l2.685-12.123a.47.47 0 0 1 .456-.366h5.166c.312 0 .536.3.448.599l-5.731 19.43a.47.47 0 0 1-.447.335h-4.595a.47.47 0 0 1-.447-.331l-3.336-10.968a.107.107 0 0 0-.206 0l-3.336 10.968a.47.47 0 0 1-.447.33zm-19.134 0a.467.467 0 0 1-.467-.467V2.467c0-.258.209-.467.467-.467h4.595c.257 0 .466.209.466.467v14.975c0 .258.21.467.467.467h7.3c.257 0 .466.209.466.467v3.521a.467.467 0 0 1-.466.467zm-15.996 0a.467.467 0 0 1-.467-.467V2.467c0-.258.209-.467.466-.467h4.596c.257 0 .466.209.466.467v14.975c0 .258.21.467.467.467h7.3c.257 0 .466.209.466.467v3.521a.467.467 0 0 1-.466.467zm-17.362-.332a.47.47 0 0 1-.447.332h-4.974a.467.467 0 0 1-.443-.613l6.413-19.43A.47.47 0 0 1 32.881 2h6.882c.2 0 .38.13.443.32l6.413 19.43a.467.467 0 0 1-.443.614h-4.974a.47.47 0 0 1-.447-.332l-4.33-14.348a.107.107 0 0 0-.206 0zm-1.214-7.236c0-.257.209-.466.466-.466h10.283c.258 0 .467.209.467.466V18a.467.467 0 0 1-.467.467H31.14a.467.467 0 0 1-.466-.467z"/><mask id="mask0_56625_28394" width="25" height="22" x="0" y="1" maskUnits="userSpaceOnUse" style="mask-type:luminance"><path fill="#fff" d="M24.284 1H.929v21.56h23.355z"/></mask><g mask="url(#mask0_56625_28394)"><path fill="#3396d3" d="M1.55 7.448a2.693 2.693 0 0 1 1.728-3.219l8.446-2.923a2.7 2.7 0 0 1 1.764 0l8.447 2.923a2.69 2.69 0 0 1 1.727 3.219l-2.694 10.446a2.7 2.7 0 0 1-1.566 1.81l-5.752 2.413a2.7 2.7 0 0 1-2.087 0l-5.752-2.412a2.7 2.7 0 0 1-1.566-1.811z"/><path fill="#fff" d="M8.247 18.966a1.81 1.81 0 0 1-1.724-1.264L3.274 7.26a1.363 1.363 0 0 1 1.3-1.768A1.36 1.36 0 0 1 5.889 6.5l2.386 8.827a.09.09 0 0 0 .087.067.09.09 0 0 0 .088-.067l2.472-8.571a1.75 1.75 0 0 1 3.364-.004l2.48 8.582c.01.037.043.06.083.06s.074-.027.084-.064l2.386-8.836a1.362 1.362 0 1 1 2.614.759l-3.25 10.446a1.8 1.8 0 0 1-1.723 1.263 1.8 1.8 0 0 1-1.72-1.256l-2.56-8.141a.08.08 0 0 0-.074-.054.08.08 0 0 0-.074.054l-2.567 8.144a1.8 1.8 0 0 1-1.72 1.257z"/><path fill="#fff" d="M11.94 16.143a.719.719 0 0 1 1.333 0l.736 1.838a.718.718 0 0 1-.668.985h-1.472a.72.72 0 0 1-.669-.985l.736-1.838z"/><path fill="#fff" d="M13.324 16.27h-1.438l.719-1.797z"/></g><path fill="url(#paint0_linear_56625_28394)" d="M21.582 21.247c-1.848 1.095-3.185 1.542-3.185 1.542H7.86s-3.232-.904-4.868-2.329c-1.176-1.028-2.02-1.696-1.082-1.774.363-.03.994.058 1.982.189 4.039.537 4.818 2.644 5.057 2.89l-.074-.081c-.376-.42-1.872-1.909-2.648-4.301s-.615-2.668-.074-2.5c.252.077 1.499 1.008 2.231 2.12 1.233 1.882 1.613 2.607 2.322 4.08l.313.426-.447-.712c.463 1.038.615 1.081.615 1.081s.564-1.303 1.307-2.825c1.24-2.544 3.218-4.146 3.37-3.145.08.53-.37 1.942-.575 2.567-.312.95-1.257 3.743-1.27 3.796.013-.033.356-.853 1.058-1.911.578-.874 1.402-1.915 2.49-2.816.79-.655 3.33-1.844 3.625-1.008.296.837-1.206 1.391-2.55 3.088-.78.984-1.697 1.848-1.717 1.888.017-.01.4-.739.4-.739.558-.353 1.65-1.26 3.42-1.596s2.215-.144 2.457.242c.272.44-.293 1.055-1.613 1.838z"/><path fill="url(#paint1_linear_56625_28394)" d="M12.997 22.803h-.843c-.114-.908.517-2.91 1.182-3.985 1.28-2.06 1.748-1.811 1.748-1.811.181 1.344-1.805 4.33-2.09 5.796z" opacity=".2" style="mix-blend-mode:multiply"/><path fill="url(#paint2_linear_56625_28394)" d="M17.073 19.11c-.484 1.163-1.347 2.782-1.841 3.68h-.803c.175-.74.537-1.94 1.203-2.806 1.028-1.338 2.14-2.564 1.438-.874z" opacity=".2" style="mix-blend-mode:multiply"/><path fill="url(#paint3_linear_56625_28394)" d="M21.424 20.575c-.621.447-2.26 1.468-3.47 2.214h-1.51a7.1 7.1 0 0 1 2.195-1.623c1.67-.796 3.82-1.337 2.782-.591z" opacity=".2" style="mix-blend-mode:multiply"/><path fill="url(#paint4_linear_56625_28394)" d="M11.035 22.803h-.642a13.5 13.5 0 0 1-1.901-2.934c-.978-2.08-2.043-4.65-.847-3.625 1.011.867 2.85 5.235 3.39 6.558" opacity=".2" style="mix-blend-mode:multiply"/><path fill="url(#paint5_linear_56625_28394)" d="M9.745 22.79H8.96c-.494-.31-1.3-.787-2.268-1.25-1.626-.78-2.44-1.862-.77-1.503 1.355.293 3.179 2.084 3.824 2.756z" opacity=".2" style="mix-blend-mode:multiply"/><mask id="mask1_56625_28394" width="23" height="11" x="1" y="12" maskUnits="userSpaceOnUse" style="mask-type:luminance"><g clip-path="url(#clip0_56625_28394)"><path fill="#fff" d="M1.507 12.7H23.44v10.09H1.507z"/><path fill="url(#paint6_linear_56625_28394)" d="M21.582 21.247c-1.562 1.085-2.664 1.542-2.664 1.542H7.86s-3.232-.904-4.868-2.328c-1.176-1.028-2.02-1.697-1.082-1.774-.007.134.064.299.252.504.773.836 4.126 2.493 5.272 2.866 1.145.376 2.015.625 1.538-.272v-.004l-.09-.097c-.377-.42-1.758-2.083-2.547-4.73-.753-2.52-1.206-4.406-.665-4.238-.037.504.047 1.495.698 3.256 1.072 2.89 3.034 6.263 3.827 6.428.787.164.387-1.576.38-1.603.464 1.038.615 1.082.615 1.082s.158-2.17.934-4.892c-.205 1.441-.376 3.276-.121 4.3.464 1.852 1.539.44 1.861-.463.323-.904.605-4.254.605-4.254.034 3.8-.437 5.648-.45 5.702.013-.034.356-.853 1.058-1.912-.232.585-.383 1.085-.336 1.324.155.773 1.324-.353 2.097-1.499.622-.924 1.915-2.92 2.177-3.662.444-.141-.097.712-.544 1.441-.655 1.072-2.342 4.409-2.366 4.452.017-.01.444-.332 1.177-.762-.145.211-.212.413-.095.54.353.377 2.295-.11 3.683-.97 1.038-.646 2.046-1.227 2.426-1.674.51.091-.366.77-1.71 1.704z" style="mix-blend-mode:multiply"/></g></mask><g mask="url(#mask1_56625_28394)"><path fill="url(#paint7_linear_56625_28394)" d="M21.582 21.247c-1.646.957-3.185 1.542-3.185 1.542H7.86s-3.232-.904-4.868-2.328c-1.176-1.028-2.02-1.697-1.082-1.774-.007.134.064.299.252.504.773.836 4.126 2.493 5.272 2.866 1.145.376 2.015.625 1.538-.273v-.003l-.09-.097c-.377-.42-1.98-2.033-2.769-4.68-.753-2.52-.228-2.208.313-2.04 0 0-.565-.306-.058 1.008 1.113 2.873 3.034 6.263 3.827 6.427.787.165.387-1.576.38-1.602.464 1.038.615 1.081.615 1.081s.443-1.014.847-1.864a26 26 0 0 1 1.162-2.198c-.796 1.6-.806 1.942-.947 2.49-.477 1.851.594 1.146 1.37.581.468-.342 1.479-1.848 1.479-1.848-.057.377-1.069 3.182-1.085 3.236.013-.034.356-.853 1.058-1.912-.232.585-.383 1.085-.336 1.324.155.773 1.122-.517 2.097-1.498 1.394-1.412 3.652-3.19 3.914-3.932.444-.14 1.015.625-.571 1.862-1.294 1.008-2.225 2.325-2.245 2.365.017-.01-.211.064 1.065-.46-1.532 1.253-1.478 1.606-1.357 1.734.353.376 1.831.07 3.222-.79 1.038-.645 1.845-1.183 2.221-1.63.387.172.407.81-1.498 1.916z" opacity=".4" style="mix-blend-mode:multiply"/></g><path fill="#fc8370" d="M12.067 21.946c-.195.097-.454-.004-.565-.195-.11-.188-.09-.437.017-.628.141-.262.54-.74.706-.42.14.275.178 1.078-.155 1.243z"/><path fill="#fc8370" d="M10.793 21.587c-.208-.071-.319-.326-.262-.538s.245-.373.457-.433c.286-.084.904-.142.796.201-.094.296-.635.887-.987.77z"/><path fill="#fc8370" d="M10.148 20.43c-.097-.194.003-.453.195-.564.188-.11.437-.09.628.017.262.141.74.541.42.706-.275.14-1.078.178-1.243-.155z"/><path fill="#fc8370" d="M10.508 19.157c.07-.208.326-.319.538-.262.211.057.373.246.433.457.084.286.141.904-.202.797-.295-.095-.887-.636-.77-.988z"/><path fill="#fc8370" d="M11.663 18.509c.195-.098.454.003.565.194.11.189.09.437-.017.629-.141.262-.541.739-.706.42-.14-.276-.178-1.079.155-1.243z"/><path fill="#fc8370" d="M12.937 18.872c.208.07.32.325.262.537s-.245.373-.457.434c-.286.084-.904.14-.796-.202.094-.296.635-.887.988-.77z"/><path fill="#fc8370" d="M13.586 20.028c.097.194-.004.453-.195.564-.188.11-.437.09-.629-.017-.262-.141-.739-.54-.42-.706.276-.14 1.079-.177 1.243.155z"/><path fill="#fc8370" d="M13.225 21.3c-.07.209-.325.32-.537.263s-.373-.245-.434-.457c-.084-.286-.14-.904.202-.797.296.095.887.636.77.988z"/><path fill="#febfb0" d="M11.862 20.854a.709.709 0 1 0 0-1.418.709.709 0 0 0 0 1.418"/><path fill="url(#paint8_linear_56625_28394)" d="M11.637 20.407c.396.332.813.128.813.128a.709.709 0 0 1-1.18-.783s.068.403.367.655" opacity=".4" style="mix-blend-mode:multiply"/><defs><linearGradient id="paint0_linear_56625_28394" x1="12.386" x2="12.386" y1="12.736" y2="25.215" gradientUnits="userSpaceOnUse"><stop offset=".561" stop-color="#a2d66a"/><stop offset=".971" stop-color="#80af23"/></linearGradient><linearGradient id="paint1_linear_56625_28394" x1="13.619" x2="13.619" y1="15.471" y2="24.573" gradientUnits="userSpaceOnUse"><stop offset=".293" stop-color="#80af23"/><stop offset=".99" stop-color="#a2d66a"/></linearGradient><linearGradient id="paint2_linear_56625_28394" x1="15.86" x2="15.86" y1="17.104" y2="24.16" gradientUnits="userSpaceOnUse"><stop offset=".264" stop-color="#80af23"/><stop offset=".99" stop-color="#a2d66a"/></linearGradient><linearGradient id="paint3_linear_56625_28394" x1="19.069" x2="19.069" y1="19.543" y2="23.572" gradientUnits="userSpaceOnUse"><stop offset=".572" stop-color="#a2d66a"/><stop offset=".99" stop-color="#80af23"/></linearGradient><linearGradient id="paint4_linear_56625_28394" x1="9.073" x2="9.073" y1="14.225" y2="24.872" gradientUnits="userSpaceOnUse"><stop offset=".62" stop-color="#80af23"/><stop offset=".99" stop-color="#a2d66a"/></linearGradient><linearGradient id="paint5_linear_56625_28394" x1="7.373" x2="7.373" y1="19.221" y2="23.649" gradientUnits="userSpaceOnUse"><stop offset=".255" stop-color="#80af23"/><stop offset=".99" stop-color="#a2d66a"/></linearGradient><linearGradient id="paint6_linear_56625_28394" x1="12.426" x2="12.527" y1="29.728" y2="8.234" gradientUnits="userSpaceOnUse"><stop stop-color="#fff"/><stop offset=".63" stop-color="#5b5b5b"/><stop offset=".99"/></linearGradient><linearGradient id="paint7_linear_56625_28394" x1="12.356" x2="12.433" y1="28.252" y2="11.342" gradientUnits="userSpaceOnUse"><stop stop-color="#085d92"/><stop offset=".99" stop-color="#fff"/></linearGradient><linearGradient id="paint8_linear_56625_28394" x1="11.47" x2="11.861" y1="20.729" y2="20.142" gradientUnits="userSpaceOnUse"><stop stop-color="#fff"/><stop offset=".99" stop-color="#fff"/></linearGradient><clipPath id="clip0_56625_28394"><path fill="#fff" d="M1.507 12.7H23.44v10.09H1.507z"/></clipPath></defs></svg>