<svg xmlns="http://www.w3.org/2000/svg" width="119" height="44" fill="none"><g clip-path="url(#a)"><path fill="#ffc736" d="m13.543 30 3.477-1.884L9.3 14.001l-3.476 1.98.574 1.022L.273 28.116 3.75 30l4.88-8.782zm21.994-15.967h-4.339v3.13l-4.402 4.534-4.465-4.535v-3.13h-4.338V30h4.338v-6.738l4.465 4.407 4.402-4.407V30h4.338z"/><path fill="#ffc736" fill-rule="evenodd" d="M45.062 30a8.2 8.2 0 0 1-3.158-.606 8.7 8.7 0 0 1-2.552-1.725 8.7 8.7 0 0 1-1.722-2.555 8.2 8.2 0 0 1-.607-3.161q0-1.629.607-3.066.638-1.47 1.722-2.555a8.2 8.2 0 0 1 2.552-1.693 7.8 7.8 0 0 1 3.158-.638q1.626 0 3.062.638a7.8 7.8 0 0 1 2.552 1.693 7.8 7.8 0 0 1 1.69 2.555 7.5 7.5 0 0 1 .639 3.066 7.85 7.85 0 0 1-.638 3.161 8.2 8.2 0 0 1-1.691 2.555 8.2 8.2 0 0 1-2.552 1.725 7.8 7.8 0 0 1-3.062.607m0-11.72q-.765 0-1.468.32-.67.287-1.18.798a3.8 3.8 0 0 0-.829 1.15 3.5 3.5 0 0 0-.287 1.405q0 .765.287 1.469.32.67.83 1.181.51.512 1.18.83.7.288 1.467.288.734 0 1.403-.287.67-.32 1.149-.83.51-.512.797-1.182.32-.703.32-1.47 0-.733-.32-1.405a3.4 3.4 0 0 0-.797-1.15 3.4 3.4 0 0 0-1.149-.798 3.2 3.2 0 0 0-1.403-.319" clip-rule="evenodd"/><path fill="#ffc736" d="M70.186 14.033h-4.21v7.632l-7.529-7.537v-.095h-4.306V30h4.306v-9.837l7.528 7.537V30h4.21zM11.18 26.009l-2.485 2.395-2.487-2.395z"/><path fill="#fff" d="M85.284 19.973h1.499V30H73.864v-5.813H71.95v-4.215h1.914v-5.94h11.42zm-7.21-1.63v1.63h2.904v-1.63zm4.403 7.442v-1.597h-4.402v1.597zm12.113.001h8.707v4.216H90.251V18.344h-2.01v-4.312h13.557v4.312h-7.209v1.629h5.295v4.183H94.59zm23.969-11.752v4.215h-5.04v11.753h-4.274V18.248h-5.04v-4.216z"/></g><defs><clipPath id="a"><path fill="#fff" d="M0 14h118.286v16H0z"/></clipPath></defs></svg>