<svg xmlns="http://www.w3.org/2000/svg" width="180" height="40" fill="none" xmlns:v="https://vecta.io/nano"><g clip-path="url(#F)"><mask id="A" maskUnits="userSpaceOnUse" x="0" y="0" width="180" height="40"><path d="M180 0H0V40H180V0Z" fill="#fff"/></mask><g mask="url(#A)"><path d="M67.442 24.692a.61.61 0 0 1 .633.633v3.541a.61.61 0 0 1-.633.633H54.053a.61.61 0 0 1-.633-.633v-3.377c0-.313.117-.586.352-.821l6.566-6.823h-6.167a.61.61 0 0 1-.445-.188.61.61 0 0 1-.188-.445v-3.494a.61.61 0 0 1 .188-.446.61.61 0 0 1 .445-.188h12.967a.61.61 0 0 1 .445.188.61.61 0 0 1 .188.446v3.33c0 .313-.102.571-.305.774l-6.214 6.87h6.19z" fill="url(#B)"/><path d="M80.382 13.085h4.596a.61.61 0 0 1 .445.188.61.61 0 0 1 .188.446v9.426c0 2.189-.68 3.838-2.04 4.948-1.36 1.094-3.212 1.641-5.557 1.641-2.329 0-4.182-.547-5.557-1.641-1.36-1.094-2.04-2.744-2.04-4.948v-9.426a.61.61 0 0 1 .188-.446.61.61 0 0 1 .445-.188h4.596a.61.61 0 0 1 .445.188.61.61 0 0 1 .188.446v9.497c0 1.204.578 1.806 1.735 1.806s1.735-.602 1.735-1.806v-9.497a.61.61 0 0 1 .188-.446.61.61 0 0 1 .446-.188z" fill="url(#B)"/><path d="M103.521 28.725a.67.67 0 0 1 .07.305c0 .109-.054.219-.164.328-.093.094-.211.141-.351.141h-4.807a1.01 1.01 0 0 1-1.008-.633l-2.017-4.479h-.961v4.479a.61.61 0 0 1-.633.633h-4.596a.61.61 0 0 1-.633-.633V13.718a.61.61 0 0 1 .188-.446.61.61 0 0 1 .445-.188h6.941c2.251 0 4.01.508 5.276 1.524 1.266 1 1.899 2.446 1.899 4.338 0 1.876-.844 3.353-2.532 4.432l2.884 5.346zm-9.239-11.279v2.485h1.712c.344 0 .61-.109.797-.328.188-.235.281-.524.281-.868s-.094-.641-.281-.891c-.172-.266-.438-.399-.797-.399h-1.712z" fill="url(#B)"/><path d="M105.401 18.243c0-1.594.657-2.892 1.97-3.892 1.329-1 3.064-1.501 5.206-1.501 2.157 0 3.915.524 5.275 1.571 1.376 1.047 2.064 2.142 2.064 3.283 0 .141-.055.266-.164.375a.45.45 0 0 1-.329.141h-4.689c-.36 0-.688-.133-.985-.399s-.696-.399-1.196-.399c-.75 0-1.125.219-1.125.657 0 .234.179.43.539.586.375.156 1.063.297 2.063.422 2.33.297 3.987.844 4.971 1.641 1.001.782 1.501 1.977 1.501 3.588 0 1.595-.735 2.9-2.204 3.916-1.454 1-3.361 1.501-5.721 1.501s-4.213-.485-5.558-1.454-2.016-2.149-2.016-3.541a.48.48 0 0 1 .14-.352c.11-.11.235-.164.376-.164h4.455c.328 0 .688.156 1.078.469.407.313.962.469 1.665.469 1.173 0 1.759-.219 1.759-.656 0-.281-.211-.492-.633-.633-.422-.156-1.22-.313-2.392-.469-4.033-.532-6.05-2.251-6.05-5.159z" fill="url(#C)"/><path d="M128.679 24.692h6.495c.172 0 .32.063.445.188a.61.61 0 0 1 .188.445v3.541a.61.61 0 0 1-.188.445c-.125.125-.273.188-.445.188h-11.818a.61.61 0 0 1-.633-.633V13.718c0-.172.062-.321.187-.446a.61.61 0 0 1 .446-.188h4.689a.61.61 0 0 1 .446.188.61.61 0 0 1 .188.446v10.974z" fill="url(#B)"/><path d="M139.592 14.585c1.438-1.157 3.338-1.735 5.698-1.735s4.252.586 5.675 1.759c1.438 1.157 2.157 2.79 2.157 4.901v3.658c0 2.142-.711 3.775-2.134 4.901-1.407 1.11-3.306 1.665-5.698 1.665s-4.299-.555-5.721-1.665c-1.407-1.126-2.111-2.759-2.111-4.901v-3.658c0-2.126.712-3.767 2.134-4.924zm4.432 10.106c.313.313.735.469 1.266.469s.954-.156 1.266-.469.469-.789.469-1.43v-3.939c0-.625-.156-1.094-.469-1.407-.312-.328-.734-.492-1.266-.492s-.953.164-1.266.492c-.313.313-.469.782-.469 1.407v3.939c0 .641.156 1.118.469 1.43z" fill="url(#C)"/><path d="M155.509 13.085h13.741c.172 0 .32.063.445.188a.61.61 0 0 1 .188.446v3.775a.61.61 0 0 1-.188.446c-.125.125-.273.188-.445.188h-3.892v10.739a.61.61 0 0 1-.634.633h-4.689a.61.61 0 0 1-.633-.633V18.126h-3.893c-.172 0-.32-.063-.445-.188a.61.61 0 0 1-.188-.446v-3.775a.61.61 0 0 1 .188-.446c.125-.125.273-.188.445-.188z" fill="url(#B)"/><path d="M36.085 3.7998L36.1357 3.92383L50.2051 37.9238L50.3193 38.2002H38.1514L38.1064 38.0635L36.5898 33.5107H23.5889L22.0723 38.0635L22.0273 38.2002H9.85546L9.97461 37.9219L24.4346 3.92188L24.4863 3.7998H36.085ZM32.1123 11.5352C31.9835 11.4871 31.8377 11.5334 31.7598 11.6475L25.1514 21.3076C25.0891 21.3992 25.0823 21.5181 25.1338 21.6162C25.1857 21.7144 25.2882 21.7763 25.3994 21.7764H28.4834L28.4648 21.9932L27.8721 28.9863C27.8606 29.1228 27.9427 29.2497 28.0713 29.2949C28.1999 29.34 28.3436 29.2922 28.4199 29.1787L35.0283 19.3252L35.0635 19.252C35.0885 19.1754 35.0821 19.09 35.043 19.0166C34.9908 18.9192 34.889 18.8584 34.7783 18.8584H31.4912L31.5176 18.6348L32.3057 11.8506C32.3214 11.7134 32.2411 11.5833 32.1123 11.5352Z" fill="url(#D)" stroke="url(#E)" stroke-width=".4"/></g></g><defs><linearGradient id="B" x1="106.481" y1="88.848" x2="107.177" y2="-35.641" href="#G"><stop stop-color="#fff"/><stop offset=".398" stop-color="#999"/><stop offset=".595" stop-color="#fff"/></linearGradient><linearGradient id="C" x1="106.481" y1="88.848" x2="107.177" y2="-35.642" href="#G"><stop stop-color="#fff"/><stop offset=".398" stop-color="#999"/><stop offset=".595" stop-color="#fff"/></linearGradient><linearGradient id="D" x1="26.572" y1="-4.989" x2="28.526" y2="38.391" href="#G"><stop offset=".514" stop-color="#2274de"/><stop offset="1" stop-color="#033486"/></linearGradient><linearGradient id="E" x1="32.755" y1="47.496" x2="13.399" y2="6.266" href="#G"><stop stop-color="#ffe100"/><stop offset=".471" stop-color="#ffe100"/><stop offset=".558" stop-color="#fffef8"/><stop offset=".899" stop-color="#ffe100"/></linearGradient><clipPath id="F"><path fill="#fff" d="M0 0h180v40H0z"/></clipPath><linearGradient id="G" gradientUnits="userSpaceOnUse"/></defs></svg>