<svg xmlns="http://www.w3.org/2000/svg" width="260" height="62" fill="none" viewBox="0 0 260 62"><path fill="#ffe433" d="M63.2 11.166 49.402 24.698 35.604 11.166 21.806 24.698 8.007 11.166l-6.899 8.122 5.517 27.064h57.958l5.516-27.064zM2.58 19.649l5.766-6.78 5.001 24.51-5.766 6.78zm6.09 25.347 5.751-6.766h42.366l5.751 6.766zm54.942-.837-5.766-6.78 5.001-24.51 5.767 6.78zm107.915-11.397 8.282-12.767h9.607l-8.356 12.767 9.178 13.59h-9.62zM100.11 19.288c-3.413 0-5.855 1.096-7.502 2.323V11.137h-8.93v35.215h8.091v-2.323c1.648 1.5 4.325 3.044 8.341 3.044 8.606 0 13.122-6.982 13.122-13.892s-4.502-13.893-13.122-13.893M92.608 30.41c.838-1.66 2.81-3.52 5.722-3.52 4.016 0 5.825 3.145 5.825 6.275s-1.794 6.276-5.825 6.276c-2.898 0-4.869-1.861-5.722-3.52v-5.526zm46.145-6.708c-2.354-2.9-6.031-4.415-10.65-4.415-5.546 0-13.798 3.693-13.798 13.892 0 8.31 6.207 13.893 15.431 13.893 3.765 0 6.987-.548 9.576-1.616l.5-.202v-7.328l-1.118.462c-2.25.923-4.722 1.384-7.325 1.384-1.516 0-6.238-.274-7.768-3.476h17.3l.147-.62c1.044-4.545.206-8.902-2.295-11.975m-15.431 6.362c.471-2.568 2.795-3.737 5.046-3.737 1.559 0 2.75.462 3.53 1.4.603.72.883 1.615.912 2.337h-9.503zm48.205-18.926h-8.928v35.215h8.928z"/><path fill="#ffe433" d="M198.344 20.009h-8.93V46.35h8.93z"/><path fill="#ffe433" d="m189.414 20.01 8.93-8.873h-8.93zm27.406-.723a11.76 11.76 0 0 0-7.605 2.756v-2.034h-8.09V46.35h8.929V29.674c.721-.909 2.368-2.568 4.824-2.568 1.531 0 4.09.534 4.09 4.054v15.19h8.928V30.238c0-6.55-4.442-10.95-11.062-10.95zm33.865.722v2.293c-1.632-1.5-4.266-3.015-8.296-3.015-8.649 0-13.165 6.983-13.165 13.892 0 6.91 4.53 13.893 13.165 13.893 3.398 0 5.81-1.096 7.459-2.337v.476c.013 1.659-.412 2.9-1.34 3.809-1.191 1.182-3.235 1.788-6.06 1.788-3.237 0-6.531-.88-9.268-2.466l-1.22-.707v8.18l.456.216c3.309 1.572 7.134 2.395 11.032 2.395 9.591 0 15.328-5.064 15.328-13.532V20.009zm-6.545 19.446c-3.428 0-5.825-2.582-5.825-6.276 0-3.692 2.397-6.275 5.825-6.275 2.898 0 4.869 1.861 5.721 3.52v5.67a6.44 6.44 0 0 1-5.721 3.361m-83.896-.937-.44.159c-1.442.505-2.765.721-4.311.721-2.323 0-3.192-.779-3.192-2.87v-8.902h7.943V20.01h-7.943v-9.132l-8.929 9.132v17.918c0 5.813 3.604 9.146 9.9 9.146 2.441 0 4.839-.39 6.958-1.096v-7.459z"/></svg>