<svg xmlns="http://www.w3.org/2000/svg" width="300" height="66" fill="none" xmlns:v="https://vecta.io/nano"><g clip-path="url(#A)"><g fill="#4ca421"><path d="M155.087 19l-4.913 23.775H164L162.304 51H139l6.609-32h9.478z"/><path fill-rule="evenodd" d="M176.263 25.824l5.858 2.601-1.104-9.553h8.984l5.051 32.109h-9.741l-.541-4.555h-10.508l-2.48 4.555h-10.147l14.628-25.157zm3.456 10.23l3.382-6.99.316 4.69.631 5.727h-6.178l1.849-3.427z"/><path d="M204.681 19h14.506l3.121.135a12.93 12.93 0 0 1 2.857.539c1.025.3 1.861.719 2.505 1.258.674.509 1.231 1.228 1.671 2.157s.659 2.037.659 3.326c0 1.858-.527 3.461-1.582 4.809a6.51 6.51 0 0 1-4.132 2.472c2.901 1.049 4.351 3.236 4.351 6.562 0 3.086-1.099 5.663-3.296 7.73-.967.899-2.125 1.588-3.473 2.067-1.319.479-2.476.764-3.472.854l-4.044.09H198l6.681-32zm7.781 7.281l-1.055 4.944h5.011c1.201 0 2.168-.18 2.901-.539.732-.39 1.099-1.154 1.099-2.292 0-.509-.118-.914-.352-1.213-.205-.33-.542-.539-1.011-.629-.469-.12-.85-.195-1.143-.225-.264-.03-.674-.045-1.231-.045h-4.219zm-2.33 11.146l-1.231 5.977h5.363c1.817 0 3.047-.225 3.692-.674.879-.629 1.319-1.513 1.319-2.652 0-.629-.132-1.139-.396-1.528s-.674-.659-1.231-.809c-.527-.15-.981-.24-1.362-.27-.352-.03-.879-.045-1.583-.045h-.351-4.22zM267 19l-1.748 7.775h-17.665l-.897 4h16.39l-1.654 7.416h-16.39l-1.039 4.674h18.138L260.34 51H232l7.132-32H267zm12.73 0l-5.109 23.775H289L287.237 51H263l6.873-32h9.857z"/></g><g fill="#fff"><path d="M48.876 19h14.929l3.212.135c.935.06 1.915.24 2.941.539 1.055.3 1.915.719 2.579 1.258.694.509 1.267 1.228 1.719 2.157s.679 2.037.679 3.326c0 1.858-.543 3.461-1.629 4.809s-2.503 2.172-4.252 2.472c2.986 1.049 4.479 3.236 4.479 6.562 0 3.086-1.131 5.663-3.393 7.73-.995.899-2.186 1.588-3.574 2.067-1.357.479-2.548.764-3.574.854l-4.162.09H42l6.876-32zm8.007 7.281l-1.086 4.944h5.157c1.236 0 2.232-.18 2.986-.539.754-.39 1.131-1.154 1.131-2.292 0-.509-.121-.914-.362-1.213-.211-.33-.558-.539-1.04-.629-.483-.12-.875-.195-1.176-.225-.271-.03-.694-.045-1.267-.045h-4.343zm-2.398 11.146l-1.267 5.977h5.519c1.87 0 3.136-.225 3.8-.674.905-.629 1.357-1.513 1.357-2.652 0-.629-.136-1.139-.407-1.528s-.694-.659-1.267-.809c-.543-.15-1.01-.24-1.402-.27-.362-.03-.905-.045-1.629-.045h-.362-4.343zM109.188 19l-1.674 7.775H90.595l-.859 4h15.697l-1.583 7.416H88.153l-.995 4.674h17.372L102.81 51H75.667l6.831-32h26.69zM140 19l-1.764 8.135h-8.867L124.257 51h-9.862l5.112-23.865h-9.138L112.088 19H140z"/></g><path d="M20 33.5L-.25 67.708V-.708L20 33.5z" fill="#4ca421"/></g><defs><clipPath id="A"><path fill="#fff" d="M0 0h300v66H0z"/></clipPath></defs></svg>