<svg xmlns="http://www.w3.org/2000/svg" width="1651" height="700" fill="#fff" xmlns:v="https://vecta.io/nano"><path d="M316 57l7 7c3.156-2.665 6.286-5.322 9.281-8.168C365.074 24.81 409.229 6.811 454.461 7.82 478.672 8.663 501.763 14.473 524 24l2.279.977C542.633 32.103 557.806 41.215 572 52l2.82 2.137c32.516 25.643 51.161 60.895 56.302 101.758 9.197 82.576-32.024 168.119-73.469 237.326l-4.782 8.201c-7.621 13.205-15.924 25.898-24.46 38.521l-9.762 14.629C500.565 481.848 481.08 508.164 461 534l-1.291 1.662-17.864 22.364-10.595 13.35c-3.837 4.931-7.856 9.615-12.086 14.219-2.222 2.471-4.324 5.01-6.414 7.594-7.225 8.918-14.778 17.572-22.5 26.063-3.061 3.369-5.96 6.828-8.812 10.375-3.313 4.096-6.789 7.837-10.562 11.508-1.757 1.75-3.385 3.548-5 5.43-5.126 5.949-10.548 11.629-15.921 17.354l-6.056 6.47-4.023 4.301-1.9 2.033-3.487 3.691c-1.225 1.308-2.392 2.671-3.542 4.045C329 686 329 686 326.184 686.656c-4.71-.971-6.924-3.708-10.121-7.156l-1.88-1.954a256.13 256.13 0 0 1-10.413-11.557c-2.317-2.604-4.79-5.041-7.27-7.488-3.635-3.592-7.109-7.253-10.426-11.141-2.951-3.356-6.016-6.601-9.074-9.859-4.765-5.087-9.477-10.195-14-15.5l-5.875-6.875-1.576-1.845a456.54 456.54 0 0 0-9.237-10.467c-3.754-4.137-7.284-8.42-10.797-12.762-2.945-3.571-5.973-7.063-9.016-10.551-5.289-6.072-10.437-12.238-15.5-18.5l-2.984-3.637c-6.24-7.611-12.333-15.315-18.285-23.154l-10.106-13.022C167.985 506.455 156.891 491.292 146 476l-1.602-2.244C91.889 400.002 41.434 318.737 17 200l-.336-3.023C12.659 154.869 20.881 111.425 48 78c31.671-37.6 79.745-61.823 128-69l3.043-.457C229.807 2.64 279.029 23.017 316 57zM162 22l-2.458.602C132.083 29.454 105.604 41.943 83 59l-2.965 2.23c-24.075 18.963-41.269 44.109-48.848 73.895l-.59 2.309c-3.04 12.748-3.981 25.503-3.91 38.566l.007 2.169C26.955 232.575 47.599 284.672 71 333l1.331 2.773c6.2 12.889 13.109 25.333 20.237 37.729l3.545 6.255c11.04 19.621 23.198 38.476 35.788 57.125l6.263 9.383a551.84 551.84 0 0 0 11.401 16.471c2.288 3.185 4.53 6.346 6.525 9.724 3.367 5.462 3.367 5.462 8.762 8.613 3.41.585 6.692.803 10.148.926l3.434.313c46.504 4.075 104.24-2.454 142.266-32.176 3.3-2.136 3.3-2.136 5.87-2.171 2.989 1.273 5.579 2.826 8.305 4.598l3.508 2.195 1.821 1.134C376.327 478.186 420.284 483.94 462 483l3.253-.04c3.357-.058 6.705-.188 10.059-.335l3.162-.034c4.327-.253 7.355-.589 10.713-3.46 2.142-2.608 3.98-5.297 5.813-8.131l2.154-3.073 6.908-10.114 2.506-3.715c16.297-24.192 32.1-48.682 46.431-74.097l1.825-3.235c40.303-71.621 83.289-161.415 60.613-245.265-5.739-19.731-15.427-37.369-29.461-52.367C584 77 584 77 581.625 73.938 577.554 69.382 572.803 65.756 568 62l-2.855-2.262C557.463 53.799 549.416 48.803 541 44l-1.759-1.027C522.839 33.439 504.45 26.394 486 22l-2.021-.492C463.023 16.679 436.805 16.413 416 22l-2.296.586c-31.571 8.155-60.265 24.654-81.976 49.148-2.816 3.025-4.141 4.152-8.317 4.966-4.354-.893-5.576-2.336-8.348-5.762-4.05-4.799-8.174-8.994-13.062-12.937l-2.754-2.262C261.217 25.42 210.159 9.712 162 22zm163 472l-5 5c1.393 3.367 2.979 4.986 6 7l5-5c-1.393-3.367-2.979-4.986-6-7zm-7 2l-1 2 3-1-2-1zm14 0l2 2v-2h-2zm-25 5l2 4c3.125.337 3.125.337 5.188-2l1.813-2-1-3c-2.609 0-5.64 1.97-8 3zm30-3l-2 2 5 5c3.122-1.309 3.122-1.309 5-4l-8-3zm-20 4a159.15 159.15 0 0 0-5 6l5 5c3.367-1.393 4.986-2.979 7-6a141.4 141.4 0 0 0-5-5h-2zm15 0a159.15 159.15 0 0 0-5 6l5 5c3.367-1.393 4.986-2.979 7-6a141.4 141.4 0 0 0-5-5h-2zm-32.687 3.5L297 508l5 5c3.367-1.393 4.986-2.979 7-6-1.812-2.062-1.812-2.062-4-4-3.246-.341-3.246-.341-5.687 2.5zM347 503c-2.201 2.439-2.201 2.439-4 5l5 5c3.367-1.393 4.986-2.979 7-6-3.488-3.247-3.488-3.247-8-4zm11 4l5 6 4-2c-.793-2.17-.793-2.17-2.848-2.633l-2.215-.492-2.223-.508L358 507zm-73 3l3 3 4-5c-3.106 0-4.353.539-7 2zm25-1l-5 5c1.393 3.367 2.979 4.986 6 7l5-5c-1.393-3.367-2.979-4.986-6-7zm15 0l-5 5c1.393 3.367 2.979 4.986 6 7l5-5c-1.393-3.367-2.979-4.986-6-7zm-33.125 3L290 514c1.393 3.367 2.979 4.986 6 7l5-6a141.4 141.4 0 0 0-5-5c-2.244-.228-2.244-.228-4.125 2zM340 510a159.15 159.15 0 0 0-5 6l7 5 5-6a141.4 141.4 0 0 0-5-5h-2zm12.813 2L351 514c1.393 3.367 2.979 4.986 6 7l5-5c-1.152-2.468-2.048-4.048-4-6-3.125-.337-3.125-.337-5.187 2zM370 511l-4 5 6 5 5-5c-.64-2.032-.64-2.032-2-4-2.555-.812-2.555-.812-5-1zm-95 3v3c2.439 2.201 2.439 2.201 5 4l6-5c-1.281-1.707-2.618-3.374-4-5-2.972 0-4.619 1.308-7 3zm107 0c-.337 3.125-.337 3.125 2 5.188l2 1.813c3.161-1.37 3.993-1.989 6-5l-10-2zm-113 0l-9 2 5 5 5-5-1-2zm-13 3a159.15 159.15 0 0 0-5 6l5 5c3.367-1.393 4.986-2.979 7-6a141.4 141.4 0 0 0-5-5h-2zm16 0l-6 5 6 7c2.562-2.312 2.562-2.312 5-5v-3c-2.439-2.201-2.439-2.201-5-4zm15 0l-5 5c1.393 3.367 2.979 4.986 6 7l5-5c-1.393-3.367-2.979-4.986-6-7zm15 0l-5 6 5 5c3.367-1.393 4.986-2.979 7-6l-7-5zm16 0l-6 5 5 6c3.367-1.393 4.986-2.979 7-6l-6-5zm15 0l-5 5c1.393 3.367 2.979 4.986 6 7l5-5c-1.393-3.367-2.979-4.986-6-7zm15 0l-5 5c1.393 3.367 2.979 4.986 6 7l5-5c-1.393-3.367-2.979-4.986-6-7zm15 0l-1 3-3 1c.564 3.27 1.5 4.826 4 7 3.367-1.393 4.986-2.979 7-6a141.4 141.4 0 0 0-5-5h-2zm16 0l-5 5c1.393 3.367 2.979 4.986 6 7l5-5c-1.393-3.367-2.979-4.986-6-7zm15 0l-5 5c1.393 3.367 2.979 4.986 6 7l5-5c-1.393-3.367-2.979-4.986-6-7zm-200 1l-1 3c1.872 3.183 1.872 3.183 4 6l4-3c-1.152-2.468-2.048-4.048-4-6h-3zm55 0v3l3-3h-3zm151 0l3 3v-3h-3zm55 0c-2.771 2.354-2.771 2.354-5 5l4 3 5-7-4-1zm-253 1l2 2v-2h-2zm205 0l-3 4 5 5c3.367-1.393 4.986-2.979 7-6-2.762-2.762-5.207-2.579-9-3zm41 0l1 2 1-2h-2zm-241 1l-2 3 5 5c3.367-1.393 4.986-2.979 7-6-3.68-2.453-5.654-2.395-10-2zm16 0l-2 4 6 5 5-5-2-4h-7zm14 1v4c2.419 2.269 2.419 2.269 5 4l5-5c-.791-2-.791-2-2-4-3.623-1.208-4.641-.543-8 1zm182 2l7 6 5-6c-1.121-1.625-1.121-1.625-3-3-4.709-.589-5.52-.48-9 3zm18-3l-2 4 6 5 5-5-2-4h-7zm-235 5c-1.637 1.96-1.637 1.96-3 4l5 6 5-5a141.4 141.4 0 0 0-5-5h-2zm16 0a159.15 159.15 0 0 0-5 6l5 5c3.367-1.393 4.986-2.979 7-6a141.4 141.4 0 0 0-5-5h-2zm15 0a159.15 159.15 0 0 0-5 6l5 5c3.367-1.393 4.986-2.979 7-6a141.4 141.4 0 0 0-5-5h-2zm15 0a159.15 159.15 0 0 0-5 6l5 5c3.367-1.393 4.986-2.979 7-6a141.4 141.4 0 0 0-5-5h-2zm16 0a159.15 159.15 0 0 0-5 6l6 5 3-2v-2h2c-.559-3.243-1.413-4.931-4-7h-2zm15 0a159.15 159.15 0 0 0-5 6l5 5c3.367-1.393 4.986-2.979 7-6a141.4 141.4 0 0 0-5-5h-2zm15 0a159.15 159.15 0 0 0-5 6l5 5c3.367-1.393 4.986-2.979 7-6a141.4 141.4 0 0 0-5-5h-2zm12.875 2L305 529c1.393 3.367 2.979 4.986 6 7l5-6a141.4 141.4 0 0 0-5-5c-2.244-.228-2.244-.228-4.125 2zM325 525a159.15 159.15 0 0 0-5 6l5 5c3.367-1.393 4.986-2.979 7-6a141.4 141.4 0 0 0-5-5h-2zm15 0a159.15 159.15 0 0 0-5 6l5 5c3.367-1.393 4.986-2.979 7-6a141.4 141.4 0 0 0-5-5h-2zm15 0a159.15 159.15 0 0 0-5 6l5 5c3.367-1.393 4.986-2.979 7-6a141.4 141.4 0 0 0-5-5h-2zm16 0a159.15 159.15 0 0 0-5 6l5 5c3.367-1.393 4.986-2.979 7-6a141.4 141.4 0 0 0-5-5h-2zm15 0a159.15 159.15 0 0 0-5 6l5 5c3.367-1.393 4.986-2.979 7-6a141.4 141.4 0 0 0-5-5h-2zm15 0a159.15 159.15 0 0 0-5 6l5 5c3.367-1.393 4.986-2.979 7-6a141.4 141.4 0 0 0-5-5h-2zm16 0a159.15 159.15 0 0 0-5 6l5 5c2.468-1.152 4.048-2.048 6-4-.244-2.526-.824-3.785-2.437-5.75-1.489-1.458-1.489-1.458-3.562-1.25zm15 0a159.15 159.15 0 0 0-5 6l5 5c3.367-1.393 4.986-2.979 7-6a141.4 141.4 0 0 0-5-5h-2zm15 0a159.15 159.15 0 0 0-5 6c1.228 1.646 1.228 1.646 3 3 2.075.149 2.075.149 4-1 1.771-2.479 1.771-2.479 3-5-1.375-1.542-1.375-1.542-3-3h-2zm-221 7l-5 5c1.393 3.367 2.979 4.986 6 7l5-5c-1.393-3.367-2.979-4.986-6-7zm15 0l-5 5c1.393 3.367 2.979 4.986 6 7l5-5c-1.393-3.367-2.979-4.986-6-7zm12.438 2.5L251 537c1.393 3.367 2.979 4.986 6 7l6-5-2.937-3.5-1.652-1.969L257 532c-1.477-.116-1.477-.116-3.562 2.5zM272 532l-6 7 7 5 5-5c-1.393-3.367-2.979-4.986-6-7zm15 0l-5 5c1.393 3.367 2.979 4.986 6 7l5-5c-1.393-3.367-2.979-4.986-6-7zm12.438 2.5L297 537c1.393 3.367 2.979 4.986 6 7l6-5-2.937-3.5-1.652-1.969L303 532c-1.477-.116-1.477-.116-3.562 2.5zM318 532l-5 5c1.393 3.367 2.979 4.986 6 7a141.4 141.4 0 0 0 5-5v-2a159.15 159.15 0 0 0-6-5zm15 0l-5 5c1.393 3.367 2.979 4.986 6 7l5-5c-1.393-3.367-2.979-4.986-6-7zm15 0l-5 5c1.393 3.367 2.979 4.986 6 7l5-5c-1.393-3.367-2.979-4.986-6-7zm31 0l-5 5c1.393 3.367 2.979 4.986 6 7l5-5c-1.393-3.367-2.979-4.986-6-7zm15 0l-5 5c1.393 3.367 2.979 4.986 6 7l5-5c-1.393-3.367-2.979-4.986-6-7zm15 0a81.25 81.25 0 0 0-2.562 3.5l-1.379 1.969L404 539a141.4 141.4 0 0 0 5 5h2v-2h2v-2l3-1-2.937-3.5-1.652-1.969L410 532h-1zm16 0l-6 7 7 5 5-5c-1.393-3.367-2.979-4.986-6-7zm15 0l-5 5c1.049 2.622 1.649 3.794 4.125 5.25L441 543l4-5c-1.37-3.161-1.989-3.993-5-6zm-230 1c-1.382 1.626-2.719 3.293-4 5l5 6 6-5a159.15 159.15 0 0 0-5-6h-2zm153 0a159.15 159.15 0 0 0-5 6l5 5c3.367-1.393 4.986-2.979 7-6a141.4 141.4 0 0 0-5-5h-2zm-145 7l-5 6 5 6 6-5c-1.393-3.367-2.979-4.986-6-7zm15 0a159.15 159.15 0 0 0-5 6l5 5c3.367-1.393 4.986-2.979 7-6a141.4 141.4 0 0 0-5-5h-2zm31 0l-5 5c1.393 3.367 2.979 4.986 6 7l5-5c-1.393-3.367-2.979-4.986-6-7zm15 0a159.15 159.15 0 0 0-5 6l5 5c3.367-1.393 4.986-2.979 7-6a141.4 141.4 0 0 0-5-5h-2zm15 0a159.15 159.15 0 0 0-5 6l5 5c3.367-1.393 4.986-2.979 7-6a141.4 141.4 0 0 0-5-5h-2zm16 0l-5 5c1.393 3.367 2.979 4.986 6 7l5-5c-1.393-3.367-2.979-4.986-6-7zm15 0l-5 6 5 5c3.367-1.393 4.986-2.979 7-6l-7-5zm15 0l-.812 1.938C338 544 338 544 335 545l5 6c3.367-1.393 4.986-2.979 7-6-3.173-3.247-3.173-3.247-7-5zm16 0l-5 5c1.393 3.367 2.979 4.986 6 7l5-5c-1.393-3.367-2.979-4.986-6-7zm15 0l-5 6 5 6 7-6c-3.175-3.426-3.175-3.426-7-6zm15 0a159.15 159.15 0 0 0-5 6l5 5c3.367-1.393 4.986-2.979 7-6a141.4 141.4 0 0 0-5-5h-2zm16 0l-6 5 5 6c3.367-1.393 4.986-2.979 7-6l-6-5zm15 0l-5 5c1.393 3.367 2.979 4.986 6 7l5-5c-1.393-3.367-2.979-4.986-6-7zm15 0a159.15 159.15 0 0 0-5 6l5 5c2.993-1.098 3.846-1.677 5.25-4.625L438 544a90.35 90.35 0 0 0-4-4h-2zm-183 0l-6 5 5 6c3.367-1.393 4.986-2.979 7-6l-6-5zm-26.125 10L221 552c1.393 3.367 2.979 4.986 6 7l5-6-1.937-.812C228 551 228 551 227 548c-2.244-.228-2.244-.228-4.125 2zM241 548l-5 6 6 5 5-5c-1.049-2.622-1.649-3.794-4.125-5.25L241 548zm15 0l-5 6c1.375 1.542 1.375 1.542 3 3h2l1 2 5-5c-1.049-2.622-1.649-3.794-4.125-5.25L256 548zm12.875 2L267 552l1 3h2l1 3c2.622-1.049 3.794-1.649 5.25-4.125L277 552a90.35 90.35 0 0 0-4-4c-2.244-.228-2.244-.228-4.125 2zm14.938 0L282 552c1.393 3.367 2.979 4.986 6 7l5-5c-1.152-2.468-2.048-4.048-4-6-3.125-.337-3.125-.337-5.187 2zM302 548a159.15 159.15 0 0 0-5 6l6 5 5-5-1-3h-2l-1-3h-2zm15 0l-4 4c1.049 2.622 1.649 3.794 4.125 5.25L319 558l4-4c-1.049-2.622-1.649-3.794-4.125-5.25L317 548zm12.813 2L328 552c1.393 3.367 2.979 4.986 6 7a141.4 141.4 0 0 0 5-5c.216-2.212.216-2.212-1.812-4.125-3.092-2.65-4.371-2.622-7.375.125zM348 548l-5 6 6 5 5-5c-1.049-2.622-1.649-3.794-4.125-5.25L348 548zm15 0a159.15 159.15 0 0 0-5 6l5 4c2.622-1.049 3.794-1.649 5.25-4.125L369 552a90.35 90.35 0 0 0-4-4h-2zm12.875 2L374 552c1.393 3.367 2.979 4.986 6 7l.813-1.937C382 555 382 555 385 554a159.15 159.15 0 0 0-5-6c-2.244-.228-2.244-.228-4.125 2zM394 548l-5 6 6 5 5-5c-1.049-2.622-1.649-3.794-4.125-5.25L394 548zm15 0l-5 6 6 5 5-5c-1.049-2.622-1.649-3.794-4.125-5.25L409 548zm12.875 2L420 552l1 3h2l1 3c2.622-1.049 3.794-1.649 5.25-4.125L430 552a90.35 90.35 0 0 0-4-4c-2.244-.228-2.244-.228-4.125 2zM233 555a159.15 159.15 0 0 0-5 6l5 5c3.367-1.393 4.986-2.979 7-6a141.4 141.4 0 0 0-5-5h-2zm15 0a159.15 159.15 0 0 0-5 6l5 5c3.367-1.393 4.986-2.979 7-6a141.4 141.4 0 0 0-5-5h-2zm15 0a159.15 159.15 0 0 0-5 6h2l.813 1.938c1.074 2.394 1.074 2.394 4.188 3.063l5-6a141.4 141.4 0 0 0-5-5h-2zm16 0a159.15 159.15 0 0 0-5 6l5 5c3.367-1.393 4.986-2.979 7-6a141.4 141.4 0 0 0-5-5h-2zm15 0a159.15 159.15 0 0 0-5 6l5 5c3.367-1.393 4.986-2.979 7-6a141.4 141.4 0 0 0-5-5h-2zm15 0a159.15 159.15 0 0 0-5 6l5 5c3.367-1.393 4.986-2.979 7-6a141.4 141.4 0 0 0-5-5h-2zm16 0a159.15 159.15 0 0 0-5 6l5 5c3.367-1.393 4.986-2.979 7-6a141.4 141.4 0 0 0-5-5h-2zm15 0a159.15 159.15 0 0 0-5 6l5 5c3.367-1.393 4.986-2.979 7-6a141.4 141.4 0 0 0-5-5h-2zm15 0a159.15 159.15 0 0 0-5 6l5 5c3.367-1.393 4.986-2.979 7-6a141.4 141.4 0 0 0-5-5h-2zm16 0a159.15 159.15 0 0 0-5 6l6 5 6-5a159.15 159.15 0 0 0-5-6h-2zm15 0a159.15 159.15 0 0 0-5 6l5 5c3.367-1.393 4.986-2.979 7-6a141.4 141.4 0 0 0-5-5h-2zm15 0a159.15 159.15 0 0 0-5 6l5 5c3.367-1.393 4.986-2.979 7-6a141.4 141.4 0 0 0-5-5h-2zm13 2v2l-3 1 2 1v2h2v2l3 1 5-6-5-5c-1.462-.092-1.462-.092-4 2zm-173 5l-5 5c1.393 3.367 2.979 4.986 6 7l5-5c-1.393-3.367-2.979-4.986-6-7zm15 0l-5 5c1.393 3.367 2.979 4.986 6 7l5-5c-1.393-3.367-2.979-4.986-6-7zm31 0l-5 5c1.393 3.367 2.979 4.986 6 7l5-5c-1.393-3.367-2.979-4.986-6-7zm15 0l-5 5c1.393 3.367 2.979 4.986 6 7l5-5c-1.393-3.367-2.979-4.986-6-7zm28.438 2.5L328 567c1.393 3.367 2.979 4.986 6 7l5-5-2-4h-2l-1-3c-1.477-.116-1.477-.116-3.562 2.5zM348 562l-5 5c1.393 3.367 2.979 4.986 6 7l5-5c-1.393-3.367-2.979-4.986-6-7zm31 0l-5 5c1.393 3.367 2.979 4.986 6 7l5-5c-1.393-3.367-2.979-4.986-6-7zm15 0l-5 5c1.393 3.367 2.979 4.986 6 7l5-5c-1.393-3.367-2.979-4.986-6-7zm15 0v2l-4 2v4c2.419 2.269 2.419 2.269 5 4l5-5c-1.393-3.367-2.979-4.986-6-7zm-138 1a159.15 159.15 0 0 0-5 6l5 5c2.867-1.285 4.976-2.571 7-5v-2c-3.056-3.025-3.056-3.025-7-4zm46 0a159.15 159.15 0 0 0-5 6h2l2 4h4c2.269-2.419 2.269-2.419 4-5a141.4 141.4 0 0 0-5-5h-2zm46 0a159.15 159.15 0 0 0-5 6l6 5 6-5a159.15 159.15 0 0 0-5-6h-2zm-132 4l1 2zm18 3l-6 5 5 6c3.367-1.393 4.986-2.979 7-6l-6-5zm15 0l-5 5c1.393 3.367 2.979 4.986 6 7l5-5c-1.393-3.367-2.979-4.986-6-7zm15 0l-5 6 5 6 7-6c-3.175-3.426-3.175-3.426-7-6zm15 0a159.15 159.15 0 0 0-5 6l5 5c3.367-1.393 4.986-2.979 7-6a141.4 141.4 0 0 0-5-5h-2zm16 0l-5 5c1.393 3.367 2.979 4.986 6 7l5-5c-1.393-3.367-2.979-4.986-6-7zm15 0l-5 6 5 6 7-6c-3.175-3.426-3.175-3.426-7-6zm15 0a159.15 159.15 0 0 0-5 6l5 5c3.367-1.393 4.986-2.979 7-6a141.4 141.4 0 0 0-5-5h-2zm16 0l-5 5c1.049 2.622 1.649 3.794 4.125 5.25L357 581l5-6-6-5zm15 0l-5 5c1.393 3.367 2.979 4.986 6 7l5-5c-1.393-3.367-2.979-4.986-6-7zm15 0l-5 6 5 5c3.367-1.393 4.986-2.979 7-6-3.173-3.247-3.173-3.247-7-5zm16 0l-6 5 6 7c2.562-2.312 2.562-2.312 5-5v-3c-2.439-2.201-2.439-2.201-5-4zm-168 1l4 6 2-2a90.35 90.35 0 0 0-4-4h-2zm180 2l-2 3 3-1-1-2zm-173 5c.398 2.886.79 3.822 3.063 5.75L246 585c.412-3.847.412-3.847-1.375-5.75-1.548-1.453-1.548-1.453-3.625-1.25zm15 0a159.15 159.15 0 0 0-5 6l5 5c3.367-1.393 4.986-2.979 7-6a141.4 141.4 0 0 0-5-5h-2zm15 0a159.15 159.15 0 0 0-5 6l5 5c3.367-1.393 4.986-2.979 7-6a141.4 141.4 0 0 0-5-5h-2zm15 0a159.15 159.15 0 0 0-5 6l7 5 5-6a141.4 141.4 0 0 0-5-5h-2zm16 0a159.15 159.15 0 0 0-5 6l5 5c3.367-1.393 4.986-2.979 7-6a141.4 141.4 0 0 0-5-5h-2zm15 0a159.15 159.15 0 0 0-5 6l5 5c3.367-1.393 4.986-2.979 7-6a141.4 141.4 0 0 0-5-5h-2zm15 0a159.15 159.15 0 0 0-5 6l5 5c3.367-1.393 4.986-2.979 7-6a141.4 141.4 0 0 0-5-5h-2zm16 0a159.15 159.15 0 0 0-5 6l6 5 6-5a159.15 159.15 0 0 0-5-6h-2zm15 0a159.15 159.15 0 0 0-5 6l5 5c2.468-1.152 4.048-2.048 6-4-.244-2.526-.824-3.785-2.437-5.75-1.489-1.458-1.489-1.458-3.562-1.25zm15 0a159.15 159.15 0 0 0-5 6l5 5c3.367-1.393 4.986-2.979 7-6a141.4 141.4 0 0 0-5-5h-2zm16 0l-5 6 6 5 5-5c-1.049-2.622-1.649-3.794-4.125-5.25L394 578zm15 0l-5 6h3c2.201-2.439 2.201-2.439 4-5l-2-1zm-160 7c-.864 1.781-.864 1.781-1 4 1.854 2.271 1.854 2.271 4 4l3-1c-1.393-3.367-2.979-4.986-6-7zm15 0l-5 5c1.393 3.367 2.979 4.986 6 7l5-5c-1.393-3.367-2.979-4.986-6-7zm15 0l-5 5c1.393 3.367 2.979 4.986 6 7l5-5c-1.393-3.367-2.979-4.986-6-7zm31 0l-5 5c1.393 3.367 2.979 4.986 6 7l5-5c-1.393-3.367-2.979-4.986-6-7zm15 0l-5 5c1.393 3.367 2.979 4.986 6 7l5-5c-1.393-3.367-2.979-4.986-6-7zm31 0l-5 5c1.393 3.367 2.979 4.986 6 7l5-5c-1.393-3.367-2.979-4.986-6-7zm15 0l-5 5c1.393 3.367 2.979 4.986 6 7l5-5c-1.393-3.367-2.979-4.986-6-7zm28.438 2.5L397 590l1 3 6-5-1-3c-1.477-.116-1.477-.116-3.562 2.5zm-107.562.5L290 590c1.393 3.367 2.979 4.986 6 7l5-6a141.4 141.4 0 0 0-5-5c-2.244-.228-2.244-.228-4.125 2zM340 586a159.15 159.15 0 0 0-5 6l6 5 6-5a159.15 159.15 0 0 0-5-6h-2zm46 0l-5 6 6 5 5-5c-1.049-2.622-1.649-3.794-4.125-5.25L386 586zm-130 7l-2 3 5 5 4-2a159.15 159.15 0 0 0-5-6h-2zm15 0a159.15 159.15 0 0 0-5 6l5 5c3.367-1.393 4.986-2.979 7-6a141.4 141.4 0 0 0-5-5h-2zm16 0l-5 5c1.152 2.468 2.048 4.048 4 6 3.293-.319 4.865-1.545 7-4-1.393-3.367-2.979-4.986-6-7zm15 0l-5 6 5 5c3.367-1.393 4.986-2.979 7-6l-7-5zm15 0a159.15 159.15 0 0 0-5 6l5 5c3.367-1.393 4.986-2.979 7-6a141.4 141.4 0 0 0-5-5h-2zm16 0l-6 5 5 6c3.367-1.393 4.986-2.979 7-6l-6-5zm15 0l-5 6 5 5c2.622-1.049 3.794-1.649 5.25-4.125L354 598l-6-5zm15 0a159.15 159.15 0 0 0-5 6l5 5c3.367-1.393 4.986-2.979 7-6a141.4 141.4 0 0 0-5-5h-2zm16 0l-6 5 5 6c3.367-1.393 4.986-2.979 7-6l-6-5zm15 0l-5 5 1 3h3c2.212-2.942 2.212-2.942 4-6l-3-2zm-131 8l-2 3 5 5 4-2c-1.152-2.468-2.048-4.048-4-6h-3zm16 0a159.15 159.15 0 0 0-5 6l5 5c3.367-1.393 4.986-2.979 7-6a141.4 141.4 0 0 0-5-5h-2zm15 0a159.15 159.15 0 0 0-5 6l5 5c3.367-1.393 4.986-2.979 7-6a141.4 141.4 0 0 0-5-5h-2zm12.875 2L305 605c1.393 3.367 2.979 4.986 6 7l5-6a141.4 141.4 0 0 0-5-5c-2.244-.228-2.244-.228-4.125 2zM325 601a159.15 159.15 0 0 0-5 6l5 5c3.367-1.393 4.986-2.979 7-6a141.4 141.4 0 0 0-5-5h-2zm15 0a159.15 159.15 0 0 0-5 6l5 5c3.367-1.393 4.986-2.979 7-6a141.4 141.4 0 0 0-5-5h-2zm15 0a159.15 159.15 0 0 0-5 6l7 5 5-6a141.4 141.4 0 0 0-5-5h-2zm16 0l-5 6 6 5 5-5c-1.049-2.622-1.649-3.794-4.125-5.25L371 601zm15 0l-5 6 2 2c2.021.059 2.021.059 4-1 1.771-2.479 1.771-2.479 3-5l-4-2zm-114 7l-3 3c1.393 3.367 2.979 4.986 6 7l3-3c-1.393-3.367-2.979-4.986-6-7zm15 0l-5 5c1.393 3.367 2.979 4.986 6 7l5-5c-1.393-3.367-2.979-4.986-6-7zm15 0l-5 5c1.393 3.367 2.979 4.986 6 7l5-5c-1.393-3.367-2.979-4.986-6-7zm16 0c-1.05 1.14-2.066 2.313-3.062 3.5l-1.66 1.969L312 615l7 5 5-6-5-6h-1zm15 0l-5 5c1.393 3.367 2.979 4.986 6 7l5-5c-1.393-3.367-2.979-4.986-6-7zm15 0l-5 5c1.393 3.367 2.979 4.986 6 7l5-5c-1.393-3.367-2.979-4.986-6-7zm31 0l-5 5 2 4h3c1.853-1.693 1.853-1.693 3-4-.066-2.183-.066-2.183-1-4l-2-1zm-16 1l-4 4c1.293 2.884 2.659 4.872 5 7l5-5c-1.049-2.622-1.649-3.794-4.125-5.25L363 609zm-85.625 8.5L276 619c1.152 2.468 2.048 4.048 4 6 2.048-.095 2.048-.095 4-1l2-3a141.4 141.4 0 0 0-5-5c-2.124-.226-2.124-.226-3.625 1.5zM294 616a159.15 159.15 0 0 0-5 6l5 5c3.367-1.393 4.986-2.979 7-6a141.4 141.4 0 0 0-5-5h-2zm16 0l-5 6 6 5 5-6-6-5zm15 0a159.15 159.15 0 0 0-5 6l6 5 6-5a159.15 159.15 0 0 0-5-6h-2zm15 0a159.15 159.15 0 0 0-5 6l1.938.813C339 624 339 624 340 627c3.367-1.393 4.986-2.979 7-6a141.4 141.4 0 0 0-5-5h-2zm16 0l-5 6 6 5 5-6-6-5zm15 0l-5 6 5 4 4-5c-1.309-3.122-1.309-3.122-4-5zm-84 7l-4 5 5 6 5-4c-1.393-3.367-2.979-4.986-6-7zm15 0l-5 5c1.393 3.367 2.979 4.986 6 7l5-5c-1.393-3.367-2.979-4.986-6-7zm16 0l-6 7 6 5 6-5c-1.393-3.367-2.979-4.986-6-7zm15 0l-5 5c1.393 3.367 2.979 4.986 6 7l5-5c-1.393-3.367-2.979-4.986-6-7zm15 0l-5 5c1.393 3.367 2.979 4.986 6 7l5-5c-1.393-3.367-2.979-4.986-6-7zm15 1l-4 4 2 4c3.878.434 3.878.434 5.75-1.5L368 629c-.791-2-.791-2-2-4l-3-1zm-69 7c-1.382 1.626-2.719 3.293-4 5l5 5c3.161-1.37 3.993-1.989 6-5a141.4 141.4 0 0 0-5-5h-2zm16 0l-5 5c1.152 2.468 2.048 4.048 4 6 3.293-.319 4.865-1.545 7-4-1.393-3.367-2.979-4.986-6-7zm15 0l-5 6 5 5c3.367-1.393 4.986-2.979 7-6h-2v-2c-2.463-1.645-2.463-1.645-5-3zm15 0a159.15 159.15 0 0 0-5 6l5 5c3.367-1.393 4.986-2.979 7-6a141.4 141.4 0 0 0-5-5h-2zm16 0l-5 5c.958 2.474 1.495 3.731 3.875 5 2.351.231 2.351.231 4.375-1.937L361 637c-1.37-3.161-1.989-3.993-5-6zm-23 7l-5 5c1.393 3.367 2.979 4.986 6 7l5-5c-1.393-3.367-2.979-4.986-6-7zm-33.125 3L298 643c1.049 2.622 1.649 3.794 4.125 5.25L304 649l5-5a141.4 141.4 0 0 0-5-5c-2.244-.228-2.244-.228-4.125 2zM317 639a159.15 159.15 0 0 0-5 6l7 5 5-6a141.4 141.4 0 0 0-5-5h-2zm31 0l-5 6 6 5 5-5c-1.049-2.622-1.649-3.794-4.125-5.25L348 639zm-38 7l-5 6 5 6 6-5c-1.393-3.367-2.979-4.986-6-7zm15 0l-5 5c1.393 3.367 2.979 4.986 6 7l5-5c-1.393-3.367-2.979-4.986-6-7zm10 5l6 7c2.562-2.312 2.562-2.312 5-5v-3h-2l-2-4c-2.408 0-5.246 3.507-7 5zm-18 3a159.15 159.15 0 0 0-5 6l3 1 1 3 3 1 5-6a141.4 141.4 0 0 0-5-5h-2zm15 0a159.15 159.15 0 0 0-5 6c2.229 2.646 2.229 2.646 5 5 2.137.321 2.137.321 4-1 2.249-2.477 2.249-2.477 4-5l-2.875-2.5-1.617-1.406c-1.467-1.289-1.467-1.289-3.508-1.094zm-7 7l-5 5 2 4h2v2l3 1 5-6-7-6zm.938-492.312c3.063.313 3.063.313 4.717 1.445 1.927 2.675 1.811 4.785 1.935 8.063l.181 3.821.081 2.029c1.988 47.899 15.685 94.301 51.336 128.08 32.384 28.273 75.829 42.169 118.47 42.322 5.802.122 5.802.122 8.897 2.589L513 359c-.812 2.438-.812 2.438-2 5-27.9 9.3-72.549-7.477-97.324-19.503C401.456 338.33 390.294 331.043 380 322l-2.508-2.141c-27.39-23.87-42.085-55.35-51.492-89.859l-.5 1.978C317.756 262.172 305.645 288.17 284 311l-2.707 2.902c-32.713 34.382-81.19 49.133-127.516 51.32-9.98.237-9.98.237-13.777-3.223.75-4.75.75-4.75 3-7 1.822-.271 1.822-.271 4.051-.309l2.523-.069 2.738-.06c47.878-1.726 94.028-18.308 127.112-53.8 29.692-33.207 38.638-77.843 40.893-121.002l.191-3.389.145-3.002c.54-3.684 1.652-4.295 5.285-4.681zM649 297l32-.25 10.063-.11 7.938-.03 2.055-.032c9.29-.136 15.837.119 23.152 6.282 7.019 8.266 8.369 14.658 8.152 25.566-.633 6.294-3.326 10.734-7.359 15.574.983 2.068 1.987 3.98 3.289 5.867 4.507 6.774 4.66 13.187 3.711 21.133-1.698 7.666-5.766 13.263-12 18-5.513 2.679-11.128 3.126-17.189 3.114h-3.689l-3.833-.016-3.556-.003-13.108-.032L649 392v-95zm12 10v74l24.125.25 7.586.11 5.984.03 3.113.062c6.069.003 9.569-.402 14.192-4.453 3.454-4.313 4.707-9.294 4.461-14.758-1.058-5.148-4.452-9.9-8.461-13.242-2.122-.411-2.122-.411-4.449-.293l-2.568.029-2.67.076-2.705.041L693 349v-10l3.91.281c9.294.792 9.294.792 17.875-1.957 3.986-4.629 5.587-8.955 5.496-15.133-.665-5.18-3.115-9.082-6.844-12.629-3.467-2.222-6.066-2.687-10.093-2.676h-2.891l-3.029.016-2.791.003-10.323.032L661 307zm762-10c19 0 19 0 22.988 3.016 1.236 2.011 1.236 2.011 2.324 4.234l2.809 4.715 1.406 2.507c2.508 4.304 5.449 8.294 8.348 12.34l3.555 5.082 12.296 17.57 9.161 13.098 1.928 2.758 3.656 5.234 1.666 2.383 1.46 2.09c1.434 2.015 2.919 3.994 4.404 5.973l1-81h11v95c-17 0-17 0-20.828-2.832-1.271-1.89-1.271-1.89-2.422-3.98l-1.403-2.168-2.885-4.628c-1.968-3.218-4.109-6.3-6.259-9.398l-4.915-7.196c-3.72-5.46-7.588-10.809-11.473-16.152l-12.508-17.55L1436 311l-1 81h-12v-95zm-587 11l1.863 1.656c9.366 8.825 14.088 19.822 14.612 32.713.157 13.797-4.185 25.542-13.506 35.885-10.977 10.48-23.641 14.251-38.477 13.996-12.362-.885-24.001-6.194-32.492-15.25-9.844-11.776-13.115-24.862-12-40 2.659-13.432 9.243-24.669 20.383-32.723C794.844 292.5 819.391 293.041 836 308zm-59 11c-7.194 8.875-10.985 18.529-10 30 2.116 11.425 8.571 20.332 18 27 9.377 4.764 18.756 6.608 29.063 3.875 10.213-3.426 18.891-10.486 23.813-20.062 4.15-8.726 4.607-18.337 1.563-27.562-4.323-10.42-11.848-17.775-21.937-22.625-14.528-5.336-29.642-1.213-40.5 9.375zm420-27h2l21.278 43.204 10.292 20.897 1.512 3.006 7.654 15.153 2.838 5.63 1.352 2.648 1.228 2.446 1.084 2.138C1247 389 1247 389 1247 392h-68c3.165-7.912 3.165-7.912 6-11 3.342-.839 6.589-.699 10.016-.586l2.942.026 9.292.185 6.305.082L1229 381l-1.478-2.94-26.571-54.066L1198 318c-7.495 14.05-14.697 28.238-21.808 42.485l-4.458 8.913-4.3 8.602-1.613 3.219-1.479 2.968-1.302 2.605c-1.136 2.298-1.136 2.298-2.04 5.207h-13c.72-3.6 1.133-5.64 2.674-8.716l1.049-2.114 1.151-2.273 1.213-2.431 3.988-7.941 2.778-5.549 5.838-11.636 7.44-14.837 7.131-14.228 1.356-2.707c4.649-9.272 9.305-18.52 14.382-27.567zm421 16l1.863 1.656c9.366 8.825 14.088 19.822 14.612 32.713.156 13.72-4.077 25.967-13.752 35.99-3.667 3.344-7.32 6.308-11.723 8.641-3.063-.721-3.916-1.882-5.75-4.437C1602 380 1602 380 1602 377c2.195-1.727 2.195-1.727 5.125-3.625 7.937-5.58 13.058-12.735 14.875-22.375 1.12-10.873-.783-19.891-7.187-28.812-3.688-4.406-7.792-7.439-12.812-10.187l-1.789-1.031c-7.323-3.484-17.438-3.077-25.187-1.277-10.441 3.863-17.01 10.455-22.023 20.266-3.97 8.762-4.007 17.474-1.062 26.547 1.496 3.515 3.512 6.508 5.758 9.586C1559 368 1559 368 1560 371a86.75 86.75 0 0 0 4 2c2.375 1.61 4.689 3.299 7 5l-2.812 3.938-1.582 2.215C1565 386 1565 386 1562 387c-2.956-1.594-5.439-3.841-8-6l-1.832-1.469c-8.864-7.843-13.527-20.182-14.414-31.734-.493-13.554 3.375-25.519 12.059-35.98 8.522-9.09 19.489-14.596 31.945-15.746 13.57-.426 25.997 2.702 36.242 11.93zm-498.066-.953c5.719 5.406 10.502 10.419 13.066 17.953l-3.875 3-2.18 1.688C1125 331 1125 331 1123 331c-.937-1.483-1.799-3.014-2.625-4.562-4.903-8.414-11.879-13.955-21.133-17.02-11.861-2.211-22.497-.475-32.492 6.27-7.168 5.735-12.659 15.148-13.75 24.313-.877 10.713 2.199 19.703 9 28 6.369 6.931 14.768 11.34 24.227 12.203 10.384.203 19.538-2.769 27.773-9.203 2.594-2.84 4.858-5.808 7-9 4.261.83 6.246 2.616 9 6-.391 5.844-5.997 10.261-10 14-11.521 8.514-23.843 11.192-38 10-13.486-2.28-24.58-8.805-32.75-19.75-7.669-11.468-10.246-25.169-7.566-38.703 4.058-14.212 11.793-24.99 24.738-32.297 17.377-8.425 38.58-6.853 53.512 5.797zM879 297h72v10h-60v85h-12v-95zm451 42c8.076.489 12.58 2.23 18.188 8.25 6.041 7.516 6.804 15.268 5.813 24.75-1.71 7.742-5.518 12.544-12 17-7.075 4.391-16.628 3.13-24.59 3.098l-3.938-.004-10.303-.025-10.538-.02L1272 392v-11l5.321-.044 17.446-.192 10.573-.111 12.168-.142 3.817-.019 3.578-.06 3.136-.034c4.753-.64 8.011-2.423 11.336-5.836 2.376-5.208 2.374-9.931 1.625-15.562-1.858-4.236-3.625-6.042-7.75-7.875L1330 350v-11zm-26.121-42.391l4.266.017 11.141.099 11.404.079L1353 297v10l-2.11.018-19.771.218-10.162.111-11.707.142-3.653.019c-6.539.113-11.702.56-17.597 3.492-4.094 4.913-4.594 9.093-4.309 15.414.427 3.578 1.076 5.725 3.309 8.586 2.608 1.641 5.147 2.784 8 4v11c-9.073-1.26-14.632-3.746-20.375-11-4.294-7.928-5.247-16.941-2.902-25.699 3.042-7.253 7.164-12.377 14.453-15.478 5.771-1.681 11.744-1.306 17.703-1.213zM1382 297h12v95h-12v-95zm-478 45h46v10h-46v-10z"/></svg>