<svg xmlns="http://www.w3.org/2000/svg" width="116" height="24" fill="none" viewBox="0 0 116 24"><path fill="#000" d="M0 3.95C0 2.045 1.626.5 3.631.5H112.37c2.004 0 3.63 1.545 3.63 3.45v16.1c0 1.905-1.626 3.45-3.631 3.45H3.631C1.626 23.5 0 21.955 0 20.05z"/><path fill="#fff" d="M11.663 5.24h.091q1.006 0 1.921.261.938.24 1.739.697a6.6 6.6 0 0 1 1.44 1.112 7 7 0 0 1 1.122 1.438l-3.774 1.962a2.7 2.7 0 0 0-1.007-1.003 2.8 2.8 0 0 0-1.441-.37q-.571 0-1.098.218-.504.196-.892.544a2.8 2.8 0 0 0-.595.829 2.2 2.2 0 0 0-.229 1.002v.022a2.5 2.5 0 0 0 .183 1.068q.23.48.595.85a2.94 2.94 0 0 0 2.036.806q.8 0 1.441-.37a2.65 2.65 0 0 0 1.006-1.025l3.775 1.983a7 7 0 0 1-1.121 1.439 7.6 7.6 0 0 1-1.441 1.111 7.6 7.6 0 0 1-1.739.72q-.915.24-1.921.24a7.4 7.4 0 0 1-2.79-.524 7.4 7.4 0 0 1-2.242-1.46 7.1 7.1 0 0 1-1.533-2.136 6.5 6.5 0 0 1-.549-2.659q0-1.395.55-2.615a6.9 6.9 0 0 1 1.486-2.157 7.1 7.1 0 0 1 2.242-1.439 6.9 6.9 0 0 1 2.745-.544m7.229 13.359V5.37h9.172a4.1 4.1 0 0 1 1.647.327q.779.306 1.35.872.594.545.915 1.286a3.7 3.7 0 0 1 .343 1.569q0 1.242-.686 2.223a4.24 4.24 0 0 1-1.762 1.46l3.294 5.492h-4.46l-4.484-7.475h2.974q.252 0 .457-.131a.8.8 0 0 0 .344-.414q.183-.458-.115-.785-.297-.327-.686-.327h-4.003V18.6zm29.49-6.605c0 9.209-14.31 9.209-14.31 0 0-9.191 14.31-9.191 14.31 0m-10.015 0c0 3.71 5.65 3.71 5.65 0s-5.65-3.711-5.65 0m11.381 6.605V5.37h9.172a4.1 4.1 0 0 1 1.647.327q.777.306 1.35.872.594.545.914 1.286a3.7 3.7 0 0 1 .344 1.569q0 1.242-.687 2.223a4.23 4.23 0 0 1-1.761 1.46l3.294 5.492h-4.46l-4.484-7.475h2.974q.251 0 .457-.131a.8.8 0 0 0 .343-.414q.183-.458-.114-.785t-.686-.327h-4.003V18.6zM76.258 5.37v3.028h-5.994v1.874h5.993v3.01h-5.993v2.329c2.047 0 3.907.045 5.993.045v3.01c-3.258 0-7.26-.046-10.478-.046V5.37z"/><path fill="#f9f500" d="M109.242 5.1H82.713c-.891 0-1.614.687-1.614 1.534v10.733c0 .847.723 1.534 1.614 1.534h26.529c.891 0 1.614-.687 1.614-1.534V6.634c0-.847-.723-1.533-1.614-1.533"/><path fill="#000" d="M83.52 16.6V7.4h4.114q1.084 0 1.82.282.74.284 1.117.8a2 2 0 0 1 .38 1.217q0 .508-.232.926a2 2 0 0 1-.64.7 2.6 2.6 0 0 1-.963.387v.09q.612.023 1.112.3t.797.76q.296.48.296 1.132 0 .754-.408 1.343-.402.589-1.148.926-.746.336-1.78.336zm2.576-1.995H87.3q.65 0 .973-.234.324-.238.324-.7a.95.95 0 0 0-.153-.548.95.95 0 0 0-.435-.342 1.7 1.7 0 0 0-.672-.117h-1.241zm0-3.486h1.056q.338 0 .597-.103a.9.9 0 0 0 .404-.297.78.78 0 0 0 .148-.48q0-.427-.315-.652-.315-.23-.797-.229h-1.093zm6.138 5.481V7.4h6.837v2.012h-4.262v1.581h3.91v2.013h-3.91v1.581h4.243v2.012zm7.855-7.188V7.399h8.245v2.013h-2.853v7.187h-2.539V9.412z"/></svg>