<svg width="131" height="34" viewBox="0 0 131 34" fill="none" xmlns="http://www.w3.org/2000/svg">
<g clip-path="url(#clip0_18045_36750)">
<path d="M8.22504 1.53699L0.312419 15.7207C0.114515 16.075 0.00737425 16.4723 0.000367025 16.8775C-0.0066402 17.2828 0.0867856 17.6835 0.272324 18.0443L4.32519 25.877C4.92535 27.1912 5.73645 27.7583 6.96691 28.2655L20.527 33.5322C22.6539 34.4617 24.2208 33.922 24.9742 32.6528L33.6552 18.0218C33.9026 17.6056 34.0214 17.1262 33.9968 16.6432C33.9723 16.1603 33.8054 15.6952 33.517 15.306L27.6209 7.33092C27.3022 6.89899 26.8731 6.55992 26.378 6.34902L12.0646 0.245303C11.3771 -0.0497904 10.6039 -0.0797243 9.89553 0.16137C9.18715 0.402465 8.59428 0.897313 8.23252 1.54949" fill="#D83B3B"/>
<path d="M21.095 8.85477C23.016 9.98157 24.8617 10.4513 25.1982 9.90411C25.5346 9.35695 24.264 7.99778 22.343 6.87098C20.422 5.74417 18.5763 5.27448 18.2373 5.82164C17.8983 6.3688 19.1715 7.72547 21.095 8.85477Z" fill="white"/>
<path d="M20.3362 15.5109L18.7818 18.1667L20.0976 18.7114L15.4395 26.6615L18.0862 27.7108L24.2887 17.1673L20.3362 15.5109Z" fill="white"/>
<path d="M8.36769 16.9223L9.88692 14.2614L8.80212 12.48L10.6729 9.20205L9.54792 7.45813L7.71731 10.6861L6.84846 9.24952L5.39201 11.8254L6.24328 13.282L4.375 16.53L5.42214 18.3889L7.308 15.1084L8.36769 16.9223Z" fill="white"/>
<rect x="42" y="5.85693" width="88.8017" height="22.2861" rx="3" fill="#D83B3B"/>
<path d="M48 24.8816V9.10986H59.1606V11.9966H51.3595V15.4245H58.9971V18.3083H51.3595V24.8816H48Z" fill="white"/>
<path d="M68.8555 9.10986H65.499V24.8816H68.8555V9.10986Z" fill="white"/>
<path d="M84.8857 24.8814L81.7879 19.2327H79.3292V24.8814H75.9727V9.12451H83.3487C86.6368 9.12451 88.6467 11.277 88.6467 14.2083C88.6467 16.997 86.8955 18.4865 85.1949 18.8908L88.7418 24.8963L84.8857 24.8814ZM82.8522 11.9935H79.3292V16.3459H82.8522C84.202 16.3459 85.2306 15.4927 85.2306 14.1697C85.2306 12.8467 84.2139 11.9935 82.8522 11.9935Z" fill="white"/>
<path d="M95.9312 20.1038C96.5788 20.7798 97.357 21.3171 98.2187 21.6831C99.0804 22.049 100.007 22.2359 100.944 22.2325C102.787 22.2325 103.685 21.3584 103.685 20.4487C103.685 19.2595 102.314 18.8641 100.495 18.4389C97.917 17.8443 94.6052 17.1367 94.6052 13.6137C94.6052 10.9886 96.8765 8.85693 100.587 8.85693C103.093 8.85693 105.174 9.61506 106.735 11.057L104.868 13.5156C103.628 12.402 102.019 11.7876 100.352 11.7913C98.8387 11.7913 98.033 12.4513 98.033 13.3967C98.033 14.461 99.359 14.794 101.179 15.2192C103.78 15.8138 107.092 16.5897 107.092 20.0889C107.092 22.9757 105.034 25.143 100.777 25.143C97.7506 25.143 95.5744 24.1263 94.085 22.6368L95.9312 20.1038Z" fill="white"/>
<path d="M116.834 24.8816V12.068H112.223V9.10986H124.801V12.068H120.214V24.8816H116.834Z" fill="white"/>
</g>
<defs>
<clipPath id="clip0_18045_36750">
<rect width="130.802" height="34" fill="white"/>
</clipPath>
</defs>
</svg>
