<svg xmlns="http://www.w3.org/2000/svg" width="120" height="32" fill="none" viewBox="0 0 120 32"><g clip-path="url(#clip0_2_287)"><g clip-path="url(#clip1_2_287)"><mask id="mask0_2_287" width="118" height="32" x="0" y="0" maskUnits="userSpaceOnUse" style="mask-type:luminance"><path fill="#fff" d="M118 0H0v32h118z"/></mask><g mask="url(#mask0_2_287)"><path fill="#f13e56" d="M93.029 6.543c-2.263 0-4.321.368-6.119 1.094a12.3 12.3 0 0 0-2.1 1.086q-.144.088-.285.18-.156.093-.307.192-.15.09-.296.185-.16.096-.315.197-.14.086-.278.174-.165.099-.325.204-.14.084-.277.173-.165.1-.326.204-.151.092-.3.188-.141.085-.278.175-.165.099-.324.203-.146.087-.287.18-.156.093-.306.191-.913.553-1.686 1.246l-1.357-3.999c-.317-.933-1.23-1.56-2.273-1.56h-3.023c-.544 0-1.059.17-1.472.475a2.4 2.4 0 0 0-.297.187 2.4 2.4 0 0 0-.303.189 2.4 2.4 0 0 0-.3.188 2.4 2.4 0 0 0-.304.19 2.4 2.4 0 0 0-.296.186q-.162.084-.307.192a2.4 2.4 0 0 0-.296.185q-.161.084-.306.192a2.4 2.4 0 0 0-.3.189 2.3 2.3 0 0 0-.298.185q-.16.084-.305.192a2.4 2.4 0 0 0-.299.187 2.4 2.4 0 0 0-.302.189q-.09.047-.174.101a4.9 4.9 0 0 0-.93-1.18c-1.274-1.226-3.317-1.847-6.073-1.847h-7.523c-.555 0-1.069.176-1.476.476l-.1.056a2.48 2.48 0 0 0-1.543-.532H38.436a2.48 2.48 0 0 0-1.475.476 2.4 2.4 0 0 0-.297.186q-.161.084-.306.191a2.4 2.4 0 0 0-.298.187q-.16.084-.302.19a2.4 2.4 0 0 0-.3.187q-.161.084-.304.19a2.4 2.4 0 0 0-.297.186q-.161.085-.306.192a2.4 2.4 0 0 0-.3.189 2.4 2.4 0 0 0-.297.185q-.162.085-.306.192a2.4 2.4 0 0 0-.298.187q-.159.083-.303.189a2.24 2.24 0 0 0-1.184 1.603l-2.537 14.97c-.11.65.087 1.308.541 1.808a2.45 2.45 0 0 0 1.816.787h3.225a2.48 2.48 0 0 0 1.475-.476q.156-.083.297-.186.161-.084.306-.192.156-.082.297-.185a2.4 2.4 0 0 0 .306-.192 2.4 2.4 0 0 0 .3-.189q.156-.081.297-.185.161-.085.306-.192.157-.082.298-.186.16-.085.302-.19.16-.085.304-.19.158-.084.3-.189.156-.083.297-.185.06-.032.116-.066h3.293l-.035.207c-.11.65.086 1.309.54 1.809s1.117.786 1.816.786h3.242a2.48 2.48 0 0 0 1.475-.476q.157-.082.297-.186.161-.084.306-.191.156-.082.297-.186.161-.084.306-.191.158-.085.3-.19.157-.081.297-.185.161-.084.306-.192.157-.082.298-.186.16-.085.302-.19.16-.085.304-.19.08-.042.156-.09l.425 1.025c.36.868 1.233 1.428 2.224 1.428h4.96c.532 0 1.043-.172 1.452-.473q.156-.082.297-.186.16-.084.306-.192.155-.081.296-.185.161-.084.306-.192.158-.084.301-.189a2 2 0 0 0 .296-.185q.162-.085.306-.192.158-.082.298-.187.16-.083.303-.189.159-.085.303-.19.158-.084.301-.189.156-.082.296-.186.06-.03.12-.067h4.5l.35 1.17c.29.96 1.234 1.632 2.297 1.632h2.906c.539 0 1.058-.173 1.474-.48q.155-.081.296-.185.161-.084.306-.192.154-.081.297-.185.16-.084.305-.192.077-.04.15-.085a9 9 0 0 0 .509.302l.014.008c1.64.877 3.792 1.32 6.396 1.32.8 0 1.639-.06 2.491-.181.863-.103 1.72-.26 2.547-.467l.008-.002.01-.002q.187-.05.372-.104c.404.285.9.444 1.43.444h2.958c.531 0 1.043-.172 1.452-.474a2.4 2.4 0 0 0 .296-.186q.161-.084.306-.191.156-.082.297-.186.16-.084.306-.191.158-.084.301-.19a2.4 2.4 0 0 0 .296-.185q.161-.084.306-.191.156-.084.299-.187a2.4 2.4 0 0 0 .302-.19q.159-.083.303-.19.158-.083.301-.188a2 2 0 0 0 .296-.186q.06-.03.117-.066h4.502l.352 1.169c.288.96 1.233 1.632 2.295 1.632h2.908c.538 0 1.057-.173 1.473-.479q.155-.082.296-.186.161-.084.306-.191.156-.082.297-.186.16-.084.306-.191.158-.084.301-.19.156-.081.297-.185.16-.084.306-.192.156-.082.298-.186.158-.085.302-.19.158-.083.303-.19.158-.083.301-.188.155-.083.296-.186.161-.084.307-.192c.293-.155.551-.368.754-.629a2.14 2.14 0 0 0 .346-2.004l-5.079-14.97c-.317-.933-1.23-1.56-2.273-1.56h-3.023c-.544 0-1.058.17-1.471.475a2.4 2.4 0 0 0-.297.186q-.16.084-.306.192a2.4 2.4 0 0 0-.301.188 2.4 2.4 0 0 0-.299.188 2.4 2.4 0 0 0-.301.188q-.159.084-.304.19a2.4 2.4 0 0 0-.296.186 2.4 2.4 0 0 0-.306.192 2.4 2.4 0 0 0-.301.189 2.4 2.4 0 0 0-.297.185q-.16.084-.305.192a2.4 2.4 0 0 0-.297.185q-.16.085-.306.192a2.4 2.4 0 0 0-.456.314l-2.449 1.542.623-1.373a2.08 2.08 0 0 0 .023-1.681 2.1 2.1 0 0 0-1.173-1.116 12 12 0 0 0-1.75-.526c-1.086-.266-2.353-.4-3.769-.4z"/><path fill="#fff" fill-rule="evenodd" d="M90.416 25.49q-3.605 0-5.8-1.174-2.168-1.197-3.004-3.299-.81-2.101-.366-4.814.471-2.737 2.064-4.62 1.593-1.906 4.076-2.907 2.481-1.002 5.644-1.002 1.985 0 3.475.366.882.199 1.578.473c.538.212.734.804.505 1.309l-.953 2.102c-.261.576-.975.825-1.607.625a8 8 0 0 0-.908-.232q-.888-.171-2.273-.171-2.56 0-3.972 1.124-1.41 1.125-1.75 3.177-.366 2.2.522 3.446.916 1.222 3.475 1.222a11.4 11.4 0 0 0 2.186-.205l.203-1.176c.076-.442-.287-.843-.764-.843h-1.238c-.726 0-1.28-.608-1.168-1.282l.232-1.396c.09-.54.586-.939 1.168-.939h5.704c.727 0 1.28.61 1.167 1.284l-.776 4.6 8.53-12.656c.217-.321.593-.516.998-.516h3.023c.515 0 .97.313 1.126.773l5.079 14.97c.243.716-.325 1.447-1.125 1.447h-2.907c-.529 0-.993-.33-1.137-.809l-.717-2.386h-7.797l-1.694 2.67a1.16 1.16 0 0 1-.983.524h-2.957a1.18 1.18 0 0 1-1.062-.623q-.511.178-1.067.325-1.176.293-2.404.44-1.202.17-2.326.17zM35.9 25.177c-.726 0-1.281-.61-1.167-1.285l2.538-14.97c.091-.539.586-.935 1.166-.935h10.928c.727 0 1.28.61 1.167 1.285l-.3 1.778c-.092.54-.587.936-1.168.936h-5.689c-.579 0-1.072.394-1.166.93l-.08.463c-.118.676.437 1.29 1.166 1.29h4.3c.727 0 1.282.61 1.168 1.285l-.301 1.778c-.091.54-.586.936-1.167.936h-5.058c-.582 0-1.077.398-1.167.937l-.778 4.636c-.09.54-.586.937-1.167.937h-3.226zm14.04 0c-.726 0-1.281-.61-1.167-1.285l2.545-14.97c.091-.539.586-.935 1.167-.935h7.522q3.653 0 5.217 1.512 1.591 1.488 1.122 4.243a5.7 5.7 0 0 1-1.252 2.78q-.992 1.17-2.583 1.828a8 8 0 0 1-.769.272q.257.13.483.313.8.603 1.244 1.59L71.57 8.504a1.2 1.2 0 0 1 .998-.517h3.022c.515 0 .97.313 1.126.773l5.08 14.97c.243.716-.326 1.447-1.126 1.447h-2.907c-.528 0-.993-.33-1.136-.809l-.717-2.385h-7.797l-1.695 2.67a1.16 1.16 0 0 1-.982.524h-4.96c-.488 0-.925-.281-1.102-.708l-1.95-4.705q-.156-.366-.678-.512a3 3 0 0 0-.992-.171c-.3 0-.556.204-.604.484l-.801 4.678c-.093.538-.587.934-1.167.934h-3.244m6.135-11.061c-.113.674.441 1.284 1.167 1.284h1.147q1.2 0 1.826-.415.626-.414.757-1.22.156-.926-.391-1.34-.549-.439-1.722-.439H57.44c-.581 0-1.076.398-1.166.937zm17.346-.72a.1.1 0 0 1 .083-.045c.044 0 .081.027.093.067l1.284 4.59H70.6zm34.797 0a.1.1 0 0 1 .083-.045c.044 0 .082.027.093.067l1.284 4.59h-4.279z" clip-rule="evenodd"/><mask id="mask1_2_287" width="41" height="43" x="-7" y="-5" maskUnits="userSpaceOnUse" style="mask-type:luminance"><path fill="#fff" d="M33.452 5.482 6.809-4.378-6.413 27.159l26.642 9.86z"/></mask><g mask="url(#mask1_2_287)"><path fill="url(#paint0_radial_2_287)" d="M9.121 6.921a1.1 1.1 0 0 0-.664-.024l-3.262.92a1.07 1.07 0 0 0-.778.878l-.074.54a1.05 1.05 0 0 1-.297.596L1.233 12.66c-.299.3-.389.74-.228 1.115l.156.363a1 1 0 0 1 .065.55l-.78 4.685a.98.98 0 0 0 .307.89l.541.49a.97.97 0 0 1 .314.609l.492 4.143c.034.29.196.547.443.707l.887.573q.166.109.28.272l2.84 4.147c.237.345.673.507 1.097.407l5.123-1.202c.131-.031.267-.037.399-.019l1.079.152c.296.042.6-.042.836-.23l3.383-2.712a1.1 1.1 0 0 1 .671-.242l.763-.01c.345-.005.67-.174.872-.452l2.837-3.924c.113-.157.269-.282.449-.36l.377-.164a1.06 1.06 0 0 0 .647-.966l-.014-3.869a1.03 1.03 0 0 1 .216-.63l.336-.437c.26-.34.288-.794.067-1.146l-1.738-2.772a1 1 0 0 0-.501-.405z"/><path fill="#f13d56" fill-rule="evenodd" d="m5.206 7.536 3.194-.9c.321-.09.66-.079.966.035l14.051 5.2c.304.112.56.319.73.589l1.7 2.714a1.48 1.48 0 0 1-.102 1.691l-.32.417a.52.52 0 0 0-.11.32l.013 3.78a1.57 1.57 0 0 1-.954 1.428l-.36.158a.55.55 0 0 0-.228.182l-2.777 3.84c-.296.41-.774.659-1.279.666l-.747.01a.55.55 0 0 0-.337.122l-3.314 2.656c-.345.277-.79.4-1.222.34l-1.06-.15a.5.5 0 0 0-.199.01l-5.025 1.18a1.5 1.5 0 0 1-1.595-.593l-2.788-4.069a.5.5 0 0 0-.139-.136l-.87-.563a1.43 1.43 0 0 1-.647-1.035l-.482-4.058a.5.5 0 0 0-.157-.306l-.53-.48a1.44 1.44 0 0 1-.45-1.307l.765-4.587a.5.5 0 0 0-.033-.277l-.148-.348a1.5 1.5 0 0 1 .337-1.649l2.748-2.763a.53.53 0 0 0 .151-.302l.07-.516a1.59 1.59 0 0 1 1.148-1.299m3.317-.426a1.05 1.05 0 0 1 .649.023l14.051 5.2a.97.97 0 0 1 .49.396l1.7 2.713a.99.99 0 0 1-.068 1.136l-.32.417c-.14.183-.216.403-.215.627l.013 3.78c.002.41-.252.79-.64.959l-.361.157a1.1 1.1 0 0 0-.445.357l-2.777 3.84c-.199.276-.52.443-.859.448l-.746.01a1.08 1.08 0 0 0-.66.238l-3.314 2.656c-.232.186-.531.27-.821.228l-1.06-.15a1.1 1.1 0 0 0-.39.019l-5.025 1.18a1.01 1.01 0 0 1-1.07-.398l-2.789-4.069a1 1 0 0 0-.273-.265l-.87-.563a.96.96 0 0 1-.434-.695l-.482-4.059a.96.96 0 0 0-.308-.598l-.53-.48a.96.96 0 0 1-.302-.878l.765-4.587a.97.97 0 0 0-.065-.544l-.148-.347a1.01 1.01 0 0 1 .226-1.107L4.193 9.99c.162-.162.266-.37.296-.592l.07-.516c.056-.41.361-.756.77-.872z" clip-rule="evenodd"/><path fill="url(#paint1_linear_2_287)" d="M8.4 4.992a.23.23 0 0 1-.149-.228l.19-2.778a.248.248 0 0 1 .403-.17l1.704 1.44c.11.094.285.066.365-.06l1.64-2.542c.102-.16.342-.151.422.014l1.566 3.223c.066.136.248.172.37.073l4.095-3.3c.148-.12.37-.038.39.145l.6 5.037c.018.15.177.24.324.184l3.485-1.354c.178-.07.36.078.32.26l-.648 2.91a.228.228 0 0 0 .224.278l2.293.038a.229.229 0 0 1 .17.383l-1.878 2.153a.25.25 0 0 1-.274.071z"/><path fill="#ffea02" fill-rule="evenodd" d="M19.676.65c-.045-.372-.493-.538-.797-.294l-3.923 3.16c-.081.066-.202.043-.246-.048L13.235.434c-.164-.337-.652-.353-.862-.026l-1.528 2.37a.166.166 0 0 1-.244.04L9.047 1.504c-.306-.258-.795-.047-.823.355l-.189 2.772a.46.46 0 0 0 .303.466l15.606 5.775c.195.072.42.013.56-.147l1.873-2.148a.469.469 0 0 0-.344-.786l-2.09-.035a.152.152 0 0 1-.15-.185l.604-2.713c.083-.374-.285-.675-.65-.533l-3.28 1.273c-.099.038-.205-.022-.216-.122zm-4.578 3.38L18.95.926c.099-.08.246-.026.26.096l.565 4.738c.037.307.359.49.658.374l3.193-1.24c.119-.046.24.053.213.174l-.58 2.608a.466.466 0 0 0 .456.568l1.939.032a.153.153 0 0 1 .113.256l-1.561 1.79a.17.17 0 0 1-.183.047L8.645 4.68a.15.15 0 0 1-.099-.153l.157-2.309a.165.165 0 0 1 .269-.114l1.441 1.219c.226.19.581.132.746-.124L12.63.92c.068-.106.228-.1.281.01l1.435 2.952c.135.277.503.349.753.148" clip-rule="evenodd"/><path fill="#9f2a3a" d="M10.633 11.258c-.253.602-1.03 1.29-1.272 1.2s-.312-1.09-.059-1.693c.253-.602.606-.625.973-.489.368.136.61.38.358.982m4.878 1.805c-.252.603-1.03 1.29-1.271 1.2-.242-.089-.312-1.09-.06-1.692.253-.603.607-.625.974-.49.368.137.61.38.357.982m4.879 1.806c-.253.602-1.03 1.29-1.272 1.2s-.311-1.09-.059-1.693c.253-.602.607-.625.974-.489s.61.38.357.982m-14.026-.151c-.253.603-1.03 1.29-1.272 1.2-.242-.089-.311-1.09-.059-1.692.253-.603.606-.625.974-.489.367.136.61.379.357.981m4.878 1.806c-.252.602-1.03 1.29-1.271 1.2-.242-.09-.312-1.09-.06-1.693.253-.602.607-.624.974-.488.368.136.61.378.357.98m4.879 1.807c-.252.602-1.03 1.29-1.272 1.2s-.311-1.09-.059-1.693c.253-.602.607-.625.974-.489s.61.379.357.981M21 20.135c-.253.602-1.03 1.29-1.272 1.2s-.312-1.09-.059-1.693c.253-.602.606-.624.974-.488.367.136.61.378.357.98m-14.026-.149c-.253.602-1.03 1.29-1.272 1.2s-.311-1.09-.059-1.693c.253-.602.606-.625.974-.489.367.136.61.38.357.982m4.878 1.805c-.252.603-1.03 1.29-1.271 1.2-.242-.09-.312-1.09-.06-1.692.253-.603.607-.625.974-.49.368.137.61.38.357.982m4.879 1.806c-.253.602-1.03 1.29-1.272 1.2s-.311-1.09-.059-1.693c.253-.602.606-.625.974-.489.367.136.61.38.357.982M7.583 25.25c-.252.603-1.03 1.29-1.271 1.201-.242-.09-.312-1.09-.06-1.693.253-.602.607-.625.974-.489.368.136.61.38.357.982m4.879 1.805c-.252.603-1.03 1.29-1.272 1.2-.242-.089-.311-1.09-.058-1.692.252-.603.606-.625.973-.489s.61.379.357.981"/></g></g></g></g><defs><clipPath id="clip0_2_287"><path fill="#fff" d="M0 0h120v32H0z"/></clipPath><clipPath id="clip1_2_287"><path fill="#fff" d="M0 0h118v32H0z"/></clipPath><radialGradient id="paint0_radial_2_287" cx="0" cy="0" r="1" gradientTransform="rotate(87.61 -1.03 11.67)scale(19.41 21.6526)" gradientUnits="userSpaceOnUse"><stop stop-color="#f13d56"/><stop offset=".652" stop-color="#f0223d"/><stop offset="1" stop-color="#7f1d2a"/></radialGradient><linearGradient id="paint1_linear_2_287" x1="19.334" x2="15.708" y1=".385" y2="9.368" gradientUnits="userSpaceOnUse"><stop stop-color="#fffb01"/><stop offset="1" stop-color="#ff8102"/></linearGradient></defs></svg>