<svg xmlns="http://www.w3.org/2000/svg" width="188" height="30" fill="none" viewBox="0 0 188 30"><g clip-path="url(#clip0)"><path fill="#fff" d="M115.087 28.281V1.261h.67c3.68 0 8.023.01 11.703-.011 0 0 2.191 8.578 3.327 12.908.173.66 1.213.635 1.406.068 1.121-4.311 3.297-12.697 3.363-12.936h12.326v27.006h-9.338V22.43c.006-.733-1.152-.97-1.469-.124l-2.184 6.004c-2.283.032-4.699.014-7.013.014l-1.893-5.905c-.291-.948-1.543-.728-1.543 0 0 3.495.016 5.862.016 5.862zM51.65 27.118c-1.62-2.98-3.073-5.68-4.651-8.588q-.004-.002-.003-.003.007-.004.014-.011.001-.002.005-.003a10.04 10.04 0 0 0 2.923-7.085c0-5.398-4.27-9.81-9.653-10.13-.008 0-.02-.003-.028 0q-.21-.01-.42-.016-.09-.004-.18-.003-.361-.011-.722-.01c-5.008-.023-6.174-.01-11.182-.01h-.727v27.024h9.804v-6.739c1.995 0 .483-.013 2.25.016q.026.004.047.003h.05v.003L42.6 28.31c2.698-.024 5.62.014 8.317.014.845 0 1.018-.664.733-1.206M36.866 11.471c0-1.52 1.251-2.752 2.79-2.752s2.79 1.233 2.79 2.752c0 1.522-1.25 2.755-2.79 2.755-1.539 0-2.79-1.233-2.79-2.755M103.453 1.3h9.883c-.015 5.28.033 11.184-.077 16.462-.06 2.868-.85 5.561-2.901 7.747-1.822 1.943-4.184 2.874-6.739 3.311a29 29 0 0 1-4.295.423c-.16.004-32.972.006-33.132.007a24.7 24.7 0 0 1-5.836-.658c-5.233-1.242-8.127-4.566-8.494-9.851-.279-4.02-.144-8.07-.182-12.106-.016-1.757-.003-3.516-.003-5.324l9.917-.002c.002 4.49-.005 9.764.007 14.255.002.697.018 1.406.144 2.09.424 2.3 1.91 3.423 4.437 3.422.192 0 33.03-.007 33.212-.02 2.523-.188 3.973-1.666 4.012-4.31.073-4.872.047-15.148.047-15.447m72.084 18.914v8.065h-25.965c-.013-.188-.039-.383-.039-.578-.003-2.211.007-4.422-.01-6.634-.003-.399.121-.647.446-.899 4.116-3.185 7.277-5.673 11.389-8.864.789-.486.526-1.908-.674-1.908l-10.801.002V1.294h25.809c.012.25.031.488.032.726.002 2.121-.016 4.243.014 6.363.007.525-.154.86-.577 1.18-4.162 3.164-7.37 5.635-11.528 8.805-.674.564-.354 1.816.712 1.839 4.378 0 6.739.006 11.192.006"/><path fill="#fff" d="m37.48 21.563.05.003v-.003zm7.87-3.036.003.002.01-.013q-.006.007-.013.01M182.244 1.298c-2.673 0-4.84 2.14-4.84 4.778v22.01c0 .105.088.192.194.192h9.368a.19.19 0 0 0 .192-.193V6.15c0-2.679-2.2-4.851-4.914-4.851m.093 7.578c-1.514 0-2.744-1.213-2.744-2.708s1.23-2.709 2.744-2.709 2.744 1.214 2.744 2.709-1.229 2.708-2.744 2.708"/><path fill="#507eff" d="M25.055 1.25v8.032H11.239c-2.17 0-2.17 2.81 0 2.81h13.19v6.956H9.818v9.17H0V1.25z"/><path fill="#507eff" d="M25.055 1.25v8.032H11.239c-2.17 0-2.17 2.81 0 2.81h13.19v6.956H9.818v9.17H0V1.25z"/></g><defs><clipPath id="clip0"><path fill="#fff" d="M0 .25h188v29H0z"/></clipPath></defs></svg>