<svg xmlns="http://www.w3.org/2000/svg" width="162" height="19" fill="none" viewBox="0 0 162 19"><path id="Subtract" fill="#fff" fill-rule="evenodd" d="M5.024.333A.45.45 0 0 1 5.46 0h5.889a.45.45 0 0 1 .426.594c-1.418 4.21-2.1 4.225-7.545 4.341l-.45.01a.015.015 0 0 1-.014-.019zM3.279 7.136a.14.14 0 0 0-.147.105L.07 18.428A.452.452 0 0 0 .505 19h5.93a.45.45 0 0 0 .442-.357l.368-1.71q.162-.755.31-1.43c.954-4.394 1.384-6.374.587-7.327-.654-.782-2.135-.873-4.83-1.038zm6.51 9.797-.416 1.493a.452.452 0 0 0 .435.574h6.271a.45.45 0 0 0 .437-.333l1.876-6.853c.139-.506.882-.41.889.114l.079 6.625a.45.45 0 0 0 .452.447h5.395a.45.45 0 0 0 .395-.231l3.815-6.814c.261-.466.972-.174.831.34l-1.679 6.133a.452.452 0 0 0 .436.572h6.074a.45.45 0 0 0 .437-.333l2.91-10.63a.452.452 0 0 0-.44-.573L20.46 7.65c-8.049.085-8.225.283-10.67 9.284M38.057 19a.452.452 0 0 1-.436-.572l2.92-10.662a.45.45 0 0 1 .43-.333l25.147-.265c.3-.003.52.282.441.572l-2.992 10.927a.45.45 0 0 1-.436.333h-6.074a.452.452 0 0 1-.436-.572l1.679-6.132c.141-.515-.57-.807-.831-.341l-3.816 6.814a.45.45 0 0 1-.394.231h-5.395c-.248 0-.45-.2-.453-.447l-.079-6.625c-.006-.524-.75-.62-.888-.114l-1.877 6.853a.45.45 0 0 1-.436.333zm28.071 0a.452.452 0 0 1-.436-.572l3-10.959a.45.45 0 0 1 .432-.333l16.946-.178c.31-.003.532.3.434.595l-.27.811-.923 3.076a.45.45 0 0 1-.433.322H74.869a.45.45 0 0 0-.437.334l-.244.905a.452.452 0 0 0 .437.57H84.3c.298 0 .515.284.436.572l-1.24 4.524a.45.45 0 0 1-.437.333zM69.46 4.669a.452.452 0 0 0 .434.572l16.903.097a.45.45 0 0 0 .438-.332L88.45.572A.452.452 0 0 0 88.014 0H71.083a.45.45 0 0 0-.436.333zm32.3 2.124-12.7.133a.45.45 0 0 0-.432.333L85.57 18.43a.452.452 0 0 0 .436.571h6.074a.45.45 0 0 0 .437-.333L94.067 13a.45.45 0 0 1 .437-.333h1.178c.175 0 .334.1.409.258l2.77 5.817a.45.45 0 0 0 .409.258h14.297a.45.45 0 0 0 .436-.333L118.958.572a.452.452 0 0 0-.436-.572h-6.3a.45.45 0 0 0-.436.333l-4.741 17.312a.452.452 0 0 1-.833.098l-2.611-4.768c-.141-.258 0-.58.277-.675 3.825-1.323 4.38-4.99 4.38-6.015 0-1.257-.627-6.285-7.107-6.285H90.96a.45.45 0 0 0-.436.333l-1.219 4.45a.452.452 0 0 0 .434.572l12.024.07a.67.67 0 0 1 .665.68.68.68 0 0 1-.669.688M56.234 4.477c-.182.3.033.685.384.687l10.283.06a.45.45 0 0 0 .439-.333L68.522.57a.452.452 0 0 0-.436-.57h-8.879a.45.45 0 0 0-.387.218zm-14.802.03a.452.452 0 0 0 .434.572l10.35.06a.45.45 0 0 0 .454-.48L52.418.427A.45.45 0 0 0 51.967 0h-8.955a.45.45 0 0 0-.437.333zM28.38 4.323c-.176.3.04.678.388.68l10.126.059a.45.45 0 0 0 .439-.333L40.47.572A.452.452 0 0 0 40.034 0H31.16a.45.45 0 0 0-.39.224zm-4.333.653a.454.454 0 0 0 .456-.468L24.357.436A.45.45 0 0 0 23.904 0h-8.952c-.2 0-.376.132-.433.323l-.1.336c-.737 4.198.742 4.266 9.627 4.317m.668 5.473a.043.043 0 1 1 .086-.003.043.043 0 0 1-.086.003m93.01 1.323 2.071-7.564c.403-1.475.605-2.212 1.022-2.766a3.6 3.6 0 0 1 1.555-1.186C123.016 0 123.78 0 125.31 0h7.821c2.493 0 3.739 0 4.59.502a3.62 3.62 0 0 1 1.653 2.166c.26.954-.07 2.156-.728 4.56l-2.071 7.564c-.404 1.475-.606 2.212-1.022 2.766a3.6 3.6 0 0 1-1.556 1.186c-.643.256-1.408.256-2.937.256h-7.821c-2.493 0-3.739 0-4.59-.502a3.6 3.6 0 0 1-1.653-2.167c-.26-.953.069-2.155.728-4.56M155.79 0a.45.45 0 0 0-.436.333l-1.948 7.113c-.119.437-.735.446-.868.013L150.341.32a.45.45 0 0 0-.433-.319h-7.128a.45.45 0 0 0-.436.333l-4.955 18.095a.452.452 0 0 0 .436.572h6.074a.45.45 0 0 0 .436-.333l2.107-7.693c.122-.446.755-.443.873.003l2.042 7.687a.45.45 0 0 0 .437.336h6.772a.45.45 0 0 0 .436-.333L161.957.572a.452.452 0 0 0-.436-.572zm-25.438 4.504a.791.791 0 1 0-1.529-.412l-2.805 10.404a.793.793 0 0 0 1.529.412z" clip-rule="evenodd"/></svg>