<svg xmlns="http://www.w3.org/2000/svg" width="80" height="24" fill="none" viewBox="0 0 80 24"><g fill-rule="evenodd" clip-rule="evenodd" filter="url(#filter0_ii_3253_57678)"><path fill="url(#paint0_linear_3253_57678)" d="M6.514 4.892c.42 0 .759-.34.759-.759V.76c0-.42-.34-.759-.76-.759H.76A.757.757 0 0 0 0 .759v3.374c0 .42.34.76.759.76zm-.049 18.819c.42 0 .76-.34.758-.76q-.003-1.227-.015-2.388V10.65q.014-1.305.015-2.96a.757.757 0 0 0-.758-.758H.808a.76.76 0 0 0-.76.759v3.366q.017 2.136.017 4.37 0 3.817-.016 5.365v2.16c0 .42.34.76.759.76zM33.959 2.298a.76.76 0 0 1 .668.922q-1.145 5.119-2.47 11.31a598 598 0 0 0-1.789 8.565.76.76 0 0 1-.747.616h-5.767a.77.77 0 0 1-.762-.696q-.132-1.335-.41-3.61a85 85 0 0 0-.766-5.277.107.107 0 0 0-.211 0 111 111 0 0 0-.784 5.277 157 157 0 0 0-.423 3.612.77.77 0 0 1-.763.694h-5.808a.76.76 0 0 1-.746-.608 954 954 0 0 0-1.604-7.465A670 670 0 0 0 8.761 3.26a.76.76 0 0 1 .664-.931l6.089-.604a.765.765 0 0 1 .836.7q.108 1.335.348 4.05.318 3.6.715 5.72c.01.06.062.101.122.101a.124.124 0 0 0 .123-.107q.351-2.583.687-5.698.246-2.293.357-3.403c.04-.39.367-.69.76-.69h4.737c.396 0 .725.304.762.698q.12 1.27.347 3.085.288 2.295.704 5.998a.132.132 0 0 0 .261.01q.396-2.192.698-5.486.256-2.649.361-4.245a.77.77 0 0 1 .839-.717zM80 12.882q0 2.658-.962 4.827t-2.658 3.572q-1.386 1.157-3.343 1.842t-4.73.685q-1.581 0-3.7-.049-1.106-.026-1.737-.038a.773.773 0 0 1-.759-.77v-3.676q.016-3.082.016-6.67 0-2.201-.016-5.267V2.65c0-.419.34-.76.759-.766l1.54-.025q1.86-.033 3.604-.033 2.854 0 4.925.636 2.07.62 3.555 1.875a9.5 9.5 0 0 1 2.625 3.604Q80 10.03 80 12.882m-7.99-.391a24 24 0 0 0-.196-2.903q-.195-1.565-.587-1.94a2.1 2.1 0 0 0-.718-.457 2.2 2.2 0 0 0-.848-.163h-.114a.08.08 0 0 0-.081.082q0 1.174-.017 2.593v5.136q.015 1.435.017 3.229c0 .045.036.082.081.082h.098q.375 0 .799-.147.369-.123.612-.315a.55.55 0 0 0 .145-.18q.429-.833.613-2.212.195-1.484.196-2.805m-11.513 10.46c0 .42-.34.76-.758.76h-3.286q-2.592-.018-3.473-.017-1.32 0-3 .016h-2.748a.76.76 0 0 1-.759-.758v-3.416q.017-3.262.017-7.436 0-2.07-.017-4.86V2.634c0-.42.34-.759.76-.759h6.26c.419 0 .758.34.756.759q-.003.776-.014 2.046v9.458l.015 2.405a.77.77 0 0 0 .76.764q.273.003.497.01H58.9q.443-.008.84-.011a.753.753 0 0 1 .758.755zm-17.18.76c.42 0 .76-.34.76-.76q-.002-2.012-.017-4.54V7.06q.015-2.33.016-4.427c0-.42-.34-.759-.758-.759h-6.244a.76.76 0 0 0-.76.76v4.687q.017 2.674.017 4.81 0 4.583-.016 7.338v3.482c0 .419.34.758.759.758z"/><path fill="#feca0c" fill-opacity=".5" d="M6.514 4.892c.42 0 .759-.34.759-.759V.76c0-.42-.34-.759-.76-.759H.76A.757.757 0 0 0 0 .759v3.374c0 .42.34.76.759.76zm-.049 18.819c.42 0 .76-.34.758-.76q-.003-1.227-.015-2.388V10.65q.014-1.305.015-2.96a.757.757 0 0 0-.758-.758H.808a.76.76 0 0 0-.76.759v3.366q.017 2.136.017 4.37 0 3.817-.016 5.365v2.16c0 .42.34.76.759.76zM33.959 2.298a.76.76 0 0 1 .668.922q-1.145 5.119-2.47 11.31a598 598 0 0 0-1.789 8.565.76.76 0 0 1-.747.616h-5.767a.77.77 0 0 1-.762-.696q-.132-1.335-.41-3.61a85 85 0 0 0-.766-5.277.107.107 0 0 0-.211 0 111 111 0 0 0-.784 5.277 157 157 0 0 0-.423 3.612.77.77 0 0 1-.763.694h-5.808a.76.76 0 0 1-.746-.608 954 954 0 0 0-1.604-7.465A670 670 0 0 0 8.761 3.26a.76.76 0 0 1 .664-.931l6.089-.604a.765.765 0 0 1 .836.7q.108 1.335.348 4.05.318 3.6.715 5.72c.01.06.062.101.122.101a.124.124 0 0 0 .123-.107q.351-2.583.687-5.698.246-2.293.357-3.403c.04-.39.367-.69.76-.69h4.737c.396 0 .725.304.762.698q.12 1.27.347 3.085.288 2.295.704 5.998a.132.132 0 0 0 .261.01q.396-2.192.698-5.486.256-2.649.361-4.245a.77.77 0 0 1 .839-.717zM80 12.882q0 2.658-.962 4.827t-2.658 3.572q-1.386 1.157-3.343 1.842t-4.73.685q-1.581 0-3.7-.049-1.106-.026-1.737-.038a.773.773 0 0 1-.759-.77v-3.676q.016-3.082.016-6.67 0-2.201-.016-5.267V2.65c0-.419.34-.76.759-.766l1.54-.025q1.86-.033 3.604-.033 2.854 0 4.925.636 2.07.62 3.555 1.875a9.5 9.5 0 0 1 2.625 3.604Q80 10.03 80 12.882m-7.99-.391a24 24 0 0 0-.196-2.903q-.195-1.565-.587-1.94a2.1 2.1 0 0 0-.718-.457 2.2 2.2 0 0 0-.848-.163h-.114a.08.08 0 0 0-.081.082q0 1.174-.017 2.593v5.136q.015 1.435.017 3.229c0 .045.036.082.081.082h.098q.375 0 .799-.147.369-.123.612-.315a.55.55 0 0 0 .145-.18q.429-.833.613-2.212.195-1.484.196-2.805m-11.513 10.46c0 .42-.34.76-.758.76h-3.286q-2.592-.018-3.473-.017-1.32 0-3 .016h-2.748a.76.76 0 0 1-.759-.758v-3.416q.017-3.262.017-7.436 0-2.07-.017-4.86V2.634c0-.42.34-.759.76-.759h6.26c.419 0 .758.34.756.759q-.003.776-.014 2.046v9.458l.015 2.405a.77.77 0 0 0 .76.764q.273.003.497.01H58.9q.443-.008.84-.011a.753.753 0 0 1 .758.755zm-17.18.76c.42 0 .76-.34.76-.76q-.002-2.012-.017-4.54V7.06q.015-2.33.016-4.427c0-.42-.34-.759-.758-.759h-6.244a.76.76 0 0 0-.76.76v4.687q.017 2.674.017 4.81 0 4.583-.016 7.338v3.482c0 .419.34.758.759.758z" style="mix-blend-mode:overlay"/><path fill="#ffdc5d" fill-opacity=".5" d="M6.514 4.892c.42 0 .759-.34.759-.759V.76c0-.42-.34-.759-.76-.759H.76A.757.757 0 0 0 0 .759v3.374c0 .42.34.76.759.76zm-.049 18.819c.42 0 .76-.34.758-.76q-.003-1.227-.015-2.388V10.65q.014-1.305.015-2.96a.757.757 0 0 0-.758-.758H.808a.76.76 0 0 0-.76.759v3.366q.017 2.136.017 4.37 0 3.817-.016 5.365v2.16c0 .42.34.76.759.76zM33.959 2.298a.76.76 0 0 1 .668.922q-1.145 5.119-2.47 11.31a598 598 0 0 0-1.789 8.565.76.76 0 0 1-.747.616h-5.767a.77.77 0 0 1-.762-.696q-.132-1.335-.41-3.61a85 85 0 0 0-.766-5.277.107.107 0 0 0-.211 0 111 111 0 0 0-.784 5.277 157 157 0 0 0-.423 3.612.77.77 0 0 1-.763.694h-5.808a.76.76 0 0 1-.746-.608 954 954 0 0 0-1.604-7.465A670 670 0 0 0 8.761 3.26a.76.76 0 0 1 .664-.931l6.089-.604a.765.765 0 0 1 .836.7q.108 1.335.348 4.05.318 3.6.715 5.72c.01.06.062.101.122.101a.124.124 0 0 0 .123-.107q.351-2.583.687-5.698.246-2.293.357-3.403c.04-.39.367-.69.76-.69h4.737c.396 0 .725.304.762.698q.12 1.27.347 3.085.288 2.295.704 5.998a.132.132 0 0 0 .261.01q.396-2.192.698-5.486.256-2.649.361-4.245a.77.77 0 0 1 .839-.717zM80 12.882q0 2.658-.962 4.827t-2.658 3.572q-1.386 1.157-3.343 1.842t-4.73.685q-1.581 0-3.7-.049-1.106-.026-1.737-.038a.773.773 0 0 1-.759-.77v-3.676q.016-3.082.016-6.67 0-2.201-.016-5.267V2.65c0-.419.34-.76.759-.766l1.54-.025q1.86-.033 3.604-.033 2.854 0 4.925.636 2.07.62 3.555 1.875a9.5 9.5 0 0 1 2.625 3.604Q80 10.03 80 12.882m-7.99-.391a24 24 0 0 0-.196-2.903q-.195-1.565-.587-1.94a2.1 2.1 0 0 0-.718-.457 2.2 2.2 0 0 0-.848-.163h-.114a.08.08 0 0 0-.081.082q0 1.174-.017 2.593v5.136q.015 1.435.017 3.229c0 .045.036.082.081.082h.098q.375 0 .799-.147.369-.123.612-.315a.55.55 0 0 0 .145-.18q.429-.833.613-2.212.195-1.484.196-2.805m-11.513 10.46c0 .42-.34.76-.758.76h-3.286q-2.592-.018-3.473-.017-1.32 0-3 .016h-2.748a.76.76 0 0 1-.759-.758v-3.416q.017-3.262.017-7.436 0-2.07-.017-4.86V2.634c0-.42.34-.759.76-.759h6.26c.419 0 .758.34.756.759q-.003.776-.014 2.046v9.458l.015 2.405a.77.77 0 0 0 .76.764q.273.003.497.01H58.9q.443-.008.84-.011a.753.753 0 0 1 .758.755zm-17.18.76c.42 0 .76-.34.76-.76q-.002-2.012-.017-4.54V7.06q.015-2.33.016-4.427c0-.42-.34-.759-.758-.759h-6.244a.76.76 0 0 0-.76.76v4.687q.017 2.674.017 4.81 0 4.583-.016 7.338v3.482c0 .419.34.758.759.758z" style="mix-blend-mode:multiply"/></g><defs><linearGradient id="paint0_linear_3253_57678" x1="39.89" x2="39.89" y1=".94" y2="27.506" gradientUnits="userSpaceOnUse"><stop stop-color="#fdff94"/><stop offset=".245" stop-color="#f9f181"/><stop offset=".5" stop-color="#fff59a"/><stop offset=".75" stop-color="#f3e069"/><stop offset="1" stop-color="#efd256"/></linearGradient><filter id="filter0_ii_3253_57678" width="80" height="23.808" x="0" y="0" color-interpolation-filters="sRGB" filterUnits="userSpaceOnUse"><feFlood flood-opacity="0" result="BackgroundImageFix"/><feBlend in="SourceGraphic" in2="BackgroundImageFix" result="shape"/><feColorMatrix in="SourceAlpha" result="hardAlpha" values="0 0 0 0 0 0 0 0 0 0 0 0 0 0 0 0 0 0 127 0"/><feOffset dx="-.38" dy="-.38"/><feComposite in2="hardAlpha" k2="-1" k3="1" operator="arithmetic"/><feColorMatrix values="0 0 0 0 0.797998 0 0 0 0 0.373257 0 0 0 0 0 0 0 0 0.86 0"/><feBlend in2="shape" result="effect1_innerShadow_3253_57678"/><feColorMatrix in="SourceAlpha" result="hardAlpha" values="0 0 0 0 0 0 0 0 0 0 0 0 0 0 0 0 0 0 127 0"/><feOffset dx=".38" dy=".38"/><feComposite in2="hardAlpha" k2="-1" k3="1" operator="arithmetic"/><feColorMatrix values="0 0 0 0 1 0 0 0 0 0.917647 0 0 0 0 0.266667 0 0 0 1 0"/><feBlend in2="effect1_innerShadow_3253_57678" result="effect2_innerShadow_3253_57678"/></filter></defs></svg>