<svg xmlns="http://www.w3.org/2000/svg" width="115" height="32" fill="none" xmlns:v="https://vecta.io/nano"><g clip-path="url(#A)"><path d="M27.066 27.07c5.817-5.832 5.817-15.288 0-21.121A14.87 14.87 0 0 0 6 5.949C.182 11.781.182 21.237 6 27.07a14.87 14.87 0 0 0 21.066 0z" fill="#e94e58"/><path d="M35.465 14.938c-1.042-.26-1.938-.88-2.519-1.791l-1.562-2.728c-1.012-1.443-2.649-2.759-4.513-2.543l-.183-.316c.059-.083.1-.187.098-.272-.009-.391-1.003-.421-1.017-.421-.324-.511-.708-.979-1.136-1.405l.005-.005c.008 0 .017 0 .025-.004.078-.037.074-.164.057-.235s-.06-.167-.14-.187c.068-.28-.019-.58-.265-.758s-.586-.162-.852-.025c-.044-.085-.203-.079-.274-.042-.019.01-.041.029-.063.051-.586-.375-1.212-.689-1.858-.933l-.221-.079.03-.029.013-.012c.326-.284.814-.284 1.225-.458.31-.131.516-.361.642-.672.284-.702.025-1.524-.462-2.079.266.544.366.978.334 1.475-.048.733-.46 1.072-1.159 1.16-.399.05-.884.133-1.086.478l-.233-.05c.003-.012.002-.025-.005-.039-.637-1.137-3.037.64-2.352 1.729-.005.042-.03.137-.04.142-.164.058-.3.178-.412.318-.377.465-.428 1.058-1.194.99-.935-.083-1.693-1.07-1.825-1.817-.006-.032-.049-.032-.05 0-.032.891.514 2.033 1.414 2.313.417.13.877.073 1.249-.16.157-.099.297-.226.41-.374.178-.235.24-.528.439-.74.021.372.151 1.296.165 1.392a.34.34 0 0 0-.084.069c-.075.091-.091.219-.065.331-.149.166-.176.46-.145.664.033.223.166.454.365.56-.066.088-.03.223.045.299.044.044.232.086.244.085a17.52 17.52 0 0 0 .505 1.829c-.244.116-.462.411-.322.671.083.156.346.176.358.2l.014.029c-1.004 1.264-.456 3.007-.517 4.474-.072 1.762-1.394 3.237-3.185 3.34-.06.003-.07.083-.014.102.757.275 1.581.187 2.285-.164.995.479 2.17-.045 2.733-.944.071-.114.133-.231.188-.351.466-.272.807-1.064.892-1.582.007 0 .015 0 .021-.007.309-.297.452-.733.428-1.157.638.895 1.157 1.885 1.358 2.97.273 1.484-.112 2.915-1.131 4.029-.569.622-1.25 1.067-1.975 1.444h-.002c-1.463.462-2.93-.074-4.225-.765l-3.4-1.763c-2.397-1.003-5.081-1.145-7.522-.2-.073.029-.068.142.019.143 1.232.004 2.461.262 3.564.823.41.209.801.449 1.188.696.543.629.492 1.499.882 2.205.238.431.663.742 1.131.907l-.282-.017c-1.087-.038-2.11.441-2.995 1.045l-.024.011a.04.04 0 0 0-.019.018c-.006.005-.012.008-.018.012l-.702-.024c-2.449-.019-5.742 1.314-7.643-.912-.042-.047-.121.015-.088.068 1.506 2.36 4.115 3.745 6.855 4.041 3.187.345 6.337-.685 9.074-2.262 1.61-.928 3.066-2.089 4.639-3.074l.495-.075c.884-.157 1.744-.46 2.58-.785-.592 1.215-1.482 2.257-2.59 3.03-.071.05-.026.151.058.138 1.289-.213 2.428-1.07 3.274-2.072a2.13 2.13 0 0 0 .246-.095l.008-.004c1.198-.537 2.095-1.552 2.561-2.734l.098-.055c.015.005.033.001.046-.014l.017-.021c.838-.527 1.124-1.666 1.121-2.616.01.015.038.017.048-.006.465-1.133.349-2.419-.157-3.541.017-.002.031-.015.031-.038l-.172-3.141c.162.163.353.291.574.362.276.392.65.695 1.128.79.655.645 1.52 1.033 2.486.902l.007-.005a3.75 3.75 0 0 0 2.517.462c.086-.009.171-.024.256-.048l.007-.005.243-.064c.04-.012.044-.075 0-.086l.006.001z" fill="#f4efef"/><path d="M35.465 14.938c-1.042-.26-1.938-.88-2.519-1.791l-1.562-2.728c-1.012-1.443-2.649-2.759-4.513-2.543l-.183-.316c.059-.083.1-.187.097-.272-.009-.391-1.003-.421-1.017-.421-.324-.511-.708-.979-1.136-1.405.013-.005.021-.005.03-.008.078-.037.074-.164.057-.235s-.06-.167-.14-.187c.068-.28-.019-.58-.265-.758s-.586-.162-.852-.025c-.044-.085-.203-.079-.274-.042-.019.01-.041.029-.063.051-.586-.375-1.212-.689-1.858-.933l-.221-.079.03-.029c.339-.295.827-.295 1.238-.469.31-.131.516-.361.642-.672.284-.702.025-1.524-.462-2.079.266.544.366.978.334 1.475-.048.733-.46 1.072-1.159 1.16-.399.05-.884.133-1.086.478l-.233-.05c.003-.012.002-.025-.005-.039-.637-1.137-3.037.64-2.352 1.729-.005.042-.03.137-.04.142-.164.058-.3.178-.412.318-.377.465-.428 1.058-1.194.99-.935-.083-1.693-1.07-1.825-1.817-.006-.032-.049-.032-.05 0-.032.891.514 2.033 1.414 2.313.417.13.877.073 1.249-.16.157-.099.297-.226.41-.374.178-.235.24-.528.439-.74.021.372.151 1.296.165 1.392a.34.34 0 0 0-.084.069c-.075.091-.091.219-.065.331-.149.166-.176.46-.145.664.033.223.166.454.365.56-.066.088-.03.223.045.299.044.044.232.086.244.085a17.52 17.52 0 0 0 .505 1.829c-.244.116-.462.411-.322.671.083.156.346.176.358.2l.014.029c-1.004 1.264-.456 3.007-.517 4.474-.072 1.762-1.394 3.237-3.185 3.34-.06.003-.07.083-.014.102.757.275 1.581.187 2.285-.164.995.479 2.17-.045 2.733-.944.071-.114.133-.231.188-.351.466-.272.807-1.064.892-1.582.007 0 .015 0 .021-.007.309-.297.452-.733.428-1.157.638.895 1.157 1.885 1.358 2.97.273 1.484-.112 2.915-1.131 4.029-.569.622-1.25 1.067-1.975 1.444-1.465.462-2.933-.074-4.227-.765l-3.4-1.763c-2.397-1.003-5.081-1.145-7.522-.2-.073.029-.068.142.019.143 1.232.004 2.461.262 3.564.823.41.209.801.449 1.188.696.543.629.492 1.499.882 2.205.238.431.663.742 1.131.907l-.282-.017c-1.087-.038-2.11.441-2.995 1.045l-.024.011a.04.04 0 0 0-.019.018c-.006.005-.012.008-.018.012l-.702-.024c-2.449-.019-5.742 1.314-7.643-.912-.042-.047-.121.015-.088.068 1.506 2.36 4.115 3.745 6.855 4.041 3.187.345 6.337-.685 9.074-2.262 1.61-.928 3.066-2.089 4.639-3.074l.495-.075c.884-.157 1.744-.46 2.58-.785-.592 1.215-1.482 2.257-2.59 3.03-.071.05-.026.151.058.138 1.289-.213 2.428-1.07 3.274-2.072a2.13 2.13 0 0 0 .246-.095c1.206-.541 2.103-1.556 2.569-2.738l.098-.055c.015.005.033.001.046-.014l.017-.021c.838-.527 1.124-1.666 1.121-2.616.01.015.038.017.048-.006.465-1.133.349-2.419-.157-3.541.017-.002.031-.015.031-.038l-.172-3.141c.162.163.353.291.574.362.276.392.65.695 1.128.79.655.645 1.52 1.033 2.486.902.75.418 1.602.611 2.524.457.086-.009.171-.024.256-.048l.251-.069c.04-.012.044-.075 0-.086l.006.001zm-8.615-6.794l.264.587c-.041.044-.081.083-.143.107-.118.044-.238.011-.335-.062-.153-.116-.194-.287-.254-.455.182.041.371-.031.468-.178zm1.211 4.604l.099.957c-.221.044-.381-.105-.421-.318.245-.085.308-.405.322-.639zm-.006-.026l.002.01zm-.819.952c-.09-.094-.126-.22-.172-.34.117-.02.172-.111.195-.218.069.168.207.311.399.29.066.278-.224.473-.422.268zm.264.515a3.58 3.58 0 0 0-.27-.407c.039.029.084.051.136.061.039.007.076.007.113.001.013.114.017.231.021.346zm-3.074-1.958l.511 1.06c-.157-.032-.294-.1-.41-.215a.73.73 0 0 1-.096-.119c-.02-.044-.043-.085-.069-.123l-.043-.087c.131-.145.145-.332.107-.517zM22.45 23.714a.95.95 0 0 0-.223.062c-.158.029-.334.032-.322-.174.009-.173.169-.223.289-.304.013.016.028.031.046.044.088.067.189.067.291.035-.049.072-.081.152-.087.241-.002.032 0 .063.006.097zm.034-.429c-.152.039-.28-.076-.253-.233.017-.093.089-.168.133-.249.147.031.328-.002.462-.073-.032.112-.002.235.077.324-.131.086-.271.194-.419.231zm1.065-1.131c-.01.014-.014.026-.019.036-.12.178-.328.444-.527.331-.232-.131-.079-.479-.011-.68l.029-.037c.138-.008.26-.093.358-.204-.063.212-.044.445.171.554zm-.026-1.451c.021-.018.037-.018.054-.018.146-.017.27-.114.353-.239-.007.129.018.257.099.359.029.036.062.067.099.09l-.019.045c-.094.156-.182.343-.399.325-.206-.017-.239-.204-.221-.379.03-.056.044-.118.036-.183zm.04.618a.32.32 0 0 0 .092.033c.144.03.282-.033.377-.138a.52.52 0 0 0 .034.265c.038.087.114.176.206.212-.122.213-.352.475-.626.389-.343-.108-.16-.527-.082-.751zm-.656 1.269c-.012.013-.021.027-.031.04-.148.051-.326.11-.481.058-.264-.086-.094-.331.031-.462.144.021.324-.124.456-.262-.09.209-.154.489.025.626zm.05.047c.186.075.365-.05.499-.206-.021.148-.002.299.09.421a.42.42 0 0 0 .076.076c-.153.101-.304.199-.482.156-.197-.048-.322-.273-.183-.447zm.616.056c-.047-.13-.033-.271-.01-.406l.062-.102c.262.076.541-.119.681-.349l-.011.067c-.067.335-.156.666-.266.989-.189.089-.391-.02-.456-.198zm.616-1.767c.067.027.139.035.211.012l-.058.684c-.279-.13-.222-.417-.153-.696zm-.144-.311c-.043-.149-.012-.301-.003-.453.012-.009.021-.007.032-.006.208.024.323-.134.405-.31-.044.334-.057.668-.074 1.003-.158.04-.316-.082-.36-.235zm.149-.575c-.155.066-.283-.044-.331-.188-.038-.119-.02-.249-.029-.372 0-.01-.007-.016-.014-.018a.26.26 0 0 0 .062-.014.49.49 0 0 0 .285-.309c.012.088.043.172.107.241.071.075.177.124.272.104-.008.002-.016.01-.021.02-.098.175-.127.449-.331.536zm-.761-4.065c.105.116.247.198.385.166.03.193.077.404.03.596-.065.261-.353.273-.462.035-.005-.01-.013-.012-.021-.012.066-.107.09-.256.101-.369.014-.139.002-.281-.032-.415zm-.147-.772c.145.181.367.334.579.215.07.186.2.447-.006.593-.195.139-.384-.126-.502-.274.055-.15 0-.36-.071-.534zm-1.337-1.33c.138.112.309.169.448.055.078.155.164.361.115.536-.037.133-.175.151-.28.089-.082-.049-.137-.133-.201-.203.036-.148-.013-.321-.082-.478zm1.823-1.059c.15.089.324.114.478 0a.56.56 0 0 0 .07.18c.073.21.168.421.119.646-.108.506-.589-.063-.732-.263.138-.143.136-.366.066-.562zm.802 1.46a.51.51 0 0 0 .286.119c.087.006.172-.013.246-.053.093.22.208.49.064.711-.211.323-.464.039-.611-.157-.01-.011-.012-.017-.014-.022.163-.163.113-.387.029-.599zm.273 3.056c0 .124.008.25-.019.369-.04.174-.185.313-.364.211-.12-.069-.13-.262-.151-.386.113-.057.159-.183.175-.304.011-.086.018-.185.018-.284.07.12.183.197.347.149a.77.77 0 0 0-.006.244zm-.267.728c-.001.188-.042.374-.146.534-.044.068-.119.191-.233.113-.038-.026-.066-.095-.081-.136-.009-.025-.017-.049-.021-.074.011-.07.015-.139.013-.204.151-.083.213-.241.224-.409.052.102.133.179.244.177v-.002zm-.523-2.378c.105.098.245.148.387.082.001.006 0 .015.003.026.05.197.14.492-.065.634s-.34-.06-.447-.219l-.026-.1c.147-.095.177-.259.147-.421v-.002zm-.044-.879c.127.126.29.2.455.108.045.21.158.578-.037.732-.211.168-.366-.082-.48-.249l-.017-.027c.134-.127.134-.356.078-.564zm-.039 1.619c.1.114.242.183.396.129-.02.229.058.469.008.702-.042.192-.232.262-.38.122-.107-.102-.127-.261-.169-.395.144-.123.166-.346.145-.556zm.556.359c-.034-.089-.047-.191-.065-.285.146-.11.166-.305.138-.491.092.116.209.198.343.161 0 .108.02.217.021.326s.018.285-.034.382c-.118.216-.338.075-.403-.094zm.159-.827c-.069-.069-.12-.159-.171-.243.144-.132.141-.392.096-.608.1.141.246.241.411.193.046.193.094.449.018.639-.069.174-.247.126-.354.019zm-.623-1.207c-.048-.039-.087-.087-.124-.136-.025-.054-.051-.101-.078-.141.194-.155.159-.422.064-.665.127.113.279.181.419.129.031.223.191.411.194.639.002.282-.289.33-.475.174zm-.197-.493c-.083.234-.337.228-.503.073-.094-.088-.154-.211-.218-.322.122-.212.05-.473-.067-.693.157.143.365.245.549.133.121.231.335.539.239.809zm-.211-.997c-.18.301-.507.013-.681-.139.117-.185.044-.48-.081-.705.183.161.428.28.604.151.138.189.289.474.158.693zm-1.493-1.078c.159.092.349.137.49.052.117.213.314.459.264.715-.075.387-.441.136-.65-.044l-.033-.058c-.009-.017-.024-.023-.038-.024l.014-.021c.109-.18.062-.422-.046-.62zm-1.093.551c.133.106.313.145.458.029.08.17.209.362.228.547.017.162-.102.291-.273.243-.112-.031-.195-.122-.278-.198.058-.191-.031-.425-.134-.621zm-.871-.943c.134.076.29.106.408-.003.12.15.498.45.283.662-.15.148-.327.023-.46-.106l-.057-.056-.055-.057c.022-.16-.035-.306-.119-.44zm-.353-.803c.136.076.283.077.399-.013.119.133.326.354.341.539.017.191-.115.3-.293.242-.074-.024-.139-.07-.203-.116l-.033-.043c-.013-.015-.029-.019-.043-.015.028-.188-.067-.415-.168-.593zm.401-.925a.38.38 0 0 0 .391-.053c.153.186.302.41.36.646.069.28-.047.566-.431.412-.077-.031-.147-.088-.22-.133l-.025-.029c.023-.04.048-.083.068-.135.099-.249.018-.511-.143-.709zm.365-1.039c.197.129.423.216.576.02.178.213.381.518.377.808-.002.102-.063.256-.156.309-.076.043-.241.015-.324-.01-.138-.04-.258-.136-.376-.214l.026-.032c.182-.272.053-.624-.124-.88zm.491-.985c.18.139.408.2.605.073.113.2.252.387.271.624.017.206-.055.435-.29.443-.16.006-.286-.11-.404-.206-.008-.006-.017-.007-.024-.006-.011-.013-.013-.014-.017-.017.14-.297.038-.647-.141-.911zm.863-.67c.113.138.271.231.46.222.052.211.132.509.023.712-.133.245-.354.117-.522-.031a2.15 2.15 0 0 0-.141-.214c.194-.187.218-.44.183-.687l-.002-.001zm.262 2.081c.122.057.258.06.365-.048.05.116.083.235.09.363a.52.52 0 0 1-.012.172c-.03.113-.147.238-.276.137.012-.207-.057-.435-.168-.624zm-.341 1.874c.16.107.369.162.503.007.132.203.314.357.305.628-.007.229-.25.229-.41.181a.7.7 0 0 1-.25-.141.72.72 0 0 0-.075-.073c.151-.192.044-.411-.074-.603zm-.566-.074c.136.06.278.063.382-.054.072.138.198.274.229.429.063.321-.311.481-.504.216l-.017-.013c.103-.2.031-.403-.09-.578zm-.843-.156c.195.12.418.187.561-.025.177.179.398.411.297.684-.134.363-.462.096-.663-.058.08-.178-.057-.417-.195-.601zm.379-.965c.197.137.454.226.636.097.12.181.221.4.222.622 0 .102-.026.279-.136.328-.158.069-.304-.033-.427-.126l-.052-.054c.098-.281-.065-.612-.244-.866zm1.192 1.202c-.088-.023-.164-.076-.239-.127l-.034-.058c-.006-.011-.015-.017-.024-.02.126-.247.055-.531-.064-.766.144.095.308.144.446.087 0 .006 0 .013.004.02.092.192.221.354.235.578.011.186-.128.335-.322.285l-.001.002zm-.16-.952c-.105-.02-.201-.098-.286-.164l-.036-.054c.008-.017.02-.031.03-.046.185-.293.007-.679-.192-.963.166.124.372.194.529.051.121.22.286.4.336.659.046.239-.044.583-.38.517zm.188-1.718l.482.597c-.034.072-.101.119-.204.125-.096.005-.172-.042-.244-.099-.043-.05-.087-.094-.133-.13l.025-.035c.09-.141.103-.301.074-.459zm-.061-.206c.114.073.244.101.372.036.078.186.183.382.2.585.004.044 0 .086-.007.124l-.529-.643-.036-.101zm.646.847c.049-.105.045-.231.014-.359.088.099.196.168.32.173.037.001.068-.005.096-.014.058.138.159.428.008.515-.07.04-.142.011-.206-.031l-.233-.284zm.228-.318c-.213-.114-.337-.34-.41-.56.09-.095.122-.231.12-.374.107.17.273.306.451.329a.44.44 0 0 0 .105.001c.015.225.08.789-.266.604zm-1.934 3.533c.147-.141.082-.37-.044-.549.156.085.323.104.452-.063.072.187.207.37.203.574s-.186.312-.369.249c-.108-.037-.175-.124-.248-.206zm.557-.509c.115.072.266.069.382-.018.148.161.273.345.272.575 0 .183-.132.335-.328.286-.1-.025-.172-.094-.245-.162.127-.186.028-.465-.081-.681zm1.969.403c-.184.261-.567-.093-.746-.253.101-.133.08-.343-.002-.528.146.095.313.133.446.019a.47.47 0 0 0 .053-.056c.101.22.414.584.25.817zm-.322-.905c-.186.312-.567-.13-.711-.285.052-.149.017-.35-.062-.519.157.132.347.206.524.057l.018-.017c.112.213.371.528.231.764zm-.229-.923c-.111.217-.351.162-.504.039l-.234-.207c.053-.037.103-.093.143-.175.015-.032.026-.066.034-.099.12.104.295.025.359-.112.044-.094.053-.203.043-.311.128.25.292.606.159.865zm-.014-.796l-.062-.116.232.331c-.063-.064-.118-.143-.17-.216zm.105-.052a.24.24 0 0 0 .109-.01c.145-.055.16-.216.13-.373.077.07.184.11.29.088.042-.008.08-.025.115-.048.005.037.013.075.024.113.038.238.056.572-.228.634-.028.006-.056.008-.081.008l-.359-.413zm.542-.394c-.19.067-.349-.105-.379-.279.061-.081.084-.2.086-.328.088.157.228.284.409.303a.37.37 0 0 0 .073 0c0 .129-.057.257-.188.304zm-.329-.976c.169-.06.248-.244.276-.436.081.251.27.505.502.56-.028.087-.023.173-.046.254-.052.178-.219.232-.382.169-.177-.069-.244-.231-.325-.385l-.024-.162zm.595.656c.121-.04.207-.148.244-.274.062.182.188.343.375.382-.011.248.006.571-.258.674-.191.074-.321-.081-.403-.254a1.63 1.63 0 0 0-.038-.17c-.005-.019-.018-.027-.032-.029.09-.083.14-.209.112-.33zm2.663 2.148c-.229-.096-.266-.443-.277-.667.137-.06.215-.203.258-.349.048.188.155.363.349.421-.004.006-.007.013-.006.021.012.192.022.718-.324.574zm-.077-1.203c-.031.147-.063.343-.206.425-.118.068-.252.01-.325-.09s-.076-.206-.076-.319a.56.56 0 0 0 .359-.282.42.42 0 0 0 .254.253zm-.347-.309c-.063.126-.183.231-.332.23-.298-.001-.333-.328-.357-.55.181-.007.327-.142.398-.309.037.183.183.348.371.386-.036.08-.042.164-.081.243zm-.664-.416c-.337.042-.432-.312-.457-.571v-.046c.241.017.43-.207.49-.435.013.23.12.488.329.587-.089.186-.111.434-.361.465zm-.116.087c.005.113 0 .225-.063.324-.086.136-.271.205-.417.126-.227-.122-.218-.399-.25-.62-.002-.017-.024-.02-.037-.013.17 0 .301-.112.37-.259.034.21.178.398.397.441zm-.79-.294c-.269-.031-.34-.305-.415-.521.212.001.377-.158.436-.353.033.198.154.388.346.446-.047.198-.107.459-.367.428zm.021.418c.038.217.157.421.39.446.015.001.03 0 .045 0-.011.212-.083.575-.381.505-.17-.04-.266-.224-.315-.394l-.002-.126c.164-.073.24-.247.264-.43zm.505.699c.078.18.239.332.429.342.011.238.008.742-.364.629-.276-.085-.302-.391-.363-.628.157-.042.256-.184.297-.343zm.361.228c-.186-.06-.282-.232-.339-.407a.65.65 0 0 0-.003-.069c.133-.042.236-.143.291-.27.046.174.168.324.358.348.01.001.02 0 .031 0-.005.006-.008.014-.008.023-.004.188-.081.453-.328.374l-.001.002zm.385-.116c.05.147.174.263.348.255-.026.206.023.574-.227.592-.326.024-.297-.397-.34-.603 0-.007 0-.013-.001-.02.108-.033.181-.118.22-.224zm.408.593c.048.216.162.417.372.436.012.035.014.07.018.106-.007.077-.017.155-.056.224-.083.15-.241.167-.375.063-.157-.122-.199-.299-.197-.485.163-.025.215-.176.239-.344zm.445.731c.068.147.19.268.348.293-.049.139-.037.402-.225.412-.244.014-.296-.268-.353-.449.109-.032.187-.135.23-.256zm.41 1.135a.86.86 0 0 1-.213-.328c.128-.056.174-.193.206-.331.046.185.17.374.337.384-.005.079-.002.161-.034.233-.062.141-.19.137-.296.042zm-.027.548c-.108-.002-.189-.089-.233-.18-.029-.057-.038-.126-.068-.182l-.005-.026c.091-.048.121-.168.127-.29.067.148.178.282.323.305.012.002.023 0 .034.001.013.146.012.375-.179.372zm.423-.66c.055.125.157.226.299.248a.35.35 0 0 0 .233-.048c-.025.194-.069.447-.286.499-.23.055-.32-.181-.404-.353 0-.023-.002-.045-.005-.068.105-.037.152-.157.163-.279zm-.081-.297c-.178-.046-.236-.251-.282-.419.176-.044.265-.239.299-.429a.72.72 0 0 0 .216.356c.021.018.048.033.075.046-.027.083-.024.161-.052.235-.02.051-.049.1-.086.142-.058.067-.087.093-.171.072v-.002zm-.447-.565c-.124-.066-.2-.181-.241-.309.008-.056.011-.111.007-.16.15-.038.221-.18.245-.34.074.151.21.273.372.304-.006.207-.082.662-.383.504zm-.125-1.308c-.16-.092-.208-.276-.266-.44.002-.019.001-.027-.001-.035.214.025.365-.101.451-.276-.006.182.043.373.207.473a.3.3 0 0 0 .057.027l-.006.02c-.041.046-.057.102-.094.154-.084.119-.223.148-.348.076zm-.253-.569c-.237-.018-.326-.248-.292-.455a.49.49 0 0 0 .449-.319c.035.166.108.324.251.412-.071.192-.165.381-.408.362zm-.411-.571c-.206-.077-.284-.295-.272-.5a.42.42 0 0 0 .498-.26.68.68 0 0 0 .284.369c-.023.249-.24.492-.51.391zm.189-.983c-.012.006-.021.018-.021.036-.008.315-.36.497-.59.249-.133-.143-.143-.35-.208-.525-.005-.012-.014-.017-.024-.015a.48.48 0 0 0 .466-.269c.026.218.175.424.378.509zm-.91-.368c-.127-.039-.226-.137-.266-.264-.029-.088-.018-.173-.015-.26l.762.176c-.025.242-.223.428-.48.348zm.001.095c-.094.193-.162.496-.436.481-.286-.015-.383-.376-.391-.605.185-.015.351-.154.447-.334.013.203.193.407.38.458zm-1.07-.311c-.206-.127-.279-.343-.296-.571l.968.236c-.119.285-.356.531-.673.335zm.06.138a.53.53 0 0 0 .088.026c-.005.006-.009.013-.011.021-.015.129-.025.243-.107.348-.144.183-.364.148-.518.002-.17-.158-.238-.355-.314-.562l-.007-.086c.175-.024.365-.13.441-.284.039.232.213.447.428.534zm-.593-.517a.44.44 0 0 1-.463.143c-.289-.082-.395-.335-.435-.604.242.043.483.113.713.168l.297.071c-.036.076-.057.154-.112.222zm-.398.27c.013.001.026 0 .039 0 .002.267-.048.783-.452.625-.271-.105-.413-.411-.446-.681.23-.066.278-.29.306-.515a.64.64 0 0 0 .552.571zm-1.005-.133c-.237-.004-.369-.181-.473-.368l-.025-.087c-.005-.017-.016-.025-.027-.03a1.38 1.38 0 0 1 .296-.112c.199-.05.401-.049.604-.021-.044.255-.019.623-.374.618zm-.609.407c-.225.324-.513.129-.768-.021-.004-.026.011-.052.027-.076.196-.297.443-.575.751-.753.082.287.163.6-.011.851zm-.599.915c-.026.107-.054.133-.152.193-.126.076-.189.048-.314-.015l-.201-.101c-.013-.015-.022-.018-.032-.018.132-.307.277-.608.447-.891.188.222.326.541.252.833zm-.456.805c-.006.173-.103.351-.285.39-.151.032-.257-.057-.366-.133l.374-.929c.119.214.285.412.277.673zm-.387.938c-.002.125-.067.324-.194.379-.152.066-.271-.013-.385-.098l-.021-.033c-.009-.013-.02-.019-.032-.023.112-.232.193-.479.27-.661l.057-.141c.166.155.309.332.305.577zm-.447 1.05c-.069.21-.309.217-.476.12-.036-.021-.068-.046-.099-.074l-.182-.229c.228-.092.391-.302.518-.539.129.197.316.484.239.721zm-.006.204c.05-.039.083-.086.106-.136.103.127.214.264.234.432.025.216-.101.322-.292.338l-.462-.594c.134.061.282.066.415-.04zm.397.525c.223.182.521.646.253.891l-.543-.703c.115.012.234-.082.29-.188zm.313.22c.093.048.193.063.288.013.114.185.24.39.25.612.002.046.008.13-.014.169-.045.08-.17.155-.262.129-.11-.031-.192-.125-.273-.204.232-.173.162-.474.012-.72zm.544.926c.007-.008.013-.017.019-.025.151.234.305.519.147.773l-.56-.73c.127.086.277.119.393-.018zm.176.054c.119.095.268.157.393.087.109.204.233.415.235.637.001.158-.113.286-.28.251-.119-.025-.21-.123-.293-.204-.012-.011-.016-.016-.019-.019.192-.216.096-.512-.036-.753zm.518.108l-.032-.058c-.006-.011-.014-.017-.024-.021.006-.006.012-.013.018-.02.144-.186.013-.462-.103-.678.141.095.324.125.453.016.132.239.273.479.27.746 0 .091-.049.213-.134.259-.063.033-.177-.019-.235-.051-.086-.048-.151-.117-.212-.191zm.693.328c-.019-.036-.038-.068-.058-.095.134-.204.038-.506-.081-.753.162.123.366.189.514.08.126.225.296.499.151.754-.149.262-.36.16-.526.014zm.071.17c.136.1.301.129.456-.015l.018-.018c.117.211.244.538.124.756-.152.276-.36.104-.514-.074-.034-.075-.072-.143-.112-.199.088-.119.077-.293.027-.45zm.124 1.42c.101-.147.094-.359.038-.559.105.089.232.135.362.079.039.085.075.169.1.26.023.081.077.233.053.316-.022.076-.103.163-.185.164-.07.001-.125-.025-.181-.062-.076-.05-.134-.123-.197-.187zm.493-.539c.166-.142.163-.399.097-.627.135.137.308.219.491.12.07.214.23.524.103.735-.197.325-.549-.077-.692-.229zm.646 2.283c.069.157.191.282.366.251.012.212.059.466-.125.618-.226.188-.392-.056-.471-.251 0-.012-.002-.024-.004-.036.024-.011.049-.026.073-.048.134-.119.171-.332.159-.537l.001.002zm.164 1.023c-.013.158-.045.326-.14.454-.056.075-.134.135-.232.129-.067-.004-.128-.036-.166-.086l-.005-.07-.045-.359c.108-.038.165-.154.186-.28.075.149.234.254.402.21v.002zm-.528 1.014c.056.066.151.111.244.121-.026.232-.081.496-.32.566a4.45 4.45 0 0 0 .076-.687zm.184.017c-.107-.044-.121-.131-.174-.221l-.014-.204c.081.063.204.085.301.044.138-.057.224-.185.271-.329.025.056.065.12.119.157-.056.167-.073.355-.209.48-.081.074-.188.116-.294.072zm.627-.098c-.069-.127-.057-.283-.051-.424.014.001.029.001.043-.001.128-.024.221-.193.272-.298a.94.94 0 0 0 .044-.108c.035.129.105.248.204.335-.096.21-.183.422-.248.644-.106.001-.212-.05-.264-.147zm.379-1.223l.027-.011c.137-.068.197-.212.217-.355l.008-.062c.067.114.164.206.29.247l-.141.336-.235.497c-.145-.197-.189-.41-.166-.652zm.244-.982c.093-.061.119-.176.132-.288l.017-.214a.75.75 0 0 0 .09.148c.076.093.201.189.328.199-.05.291-.127.575-.229.854-.301-.087-.271-.443-.338-.698zm.481-.293c-.09-.042-.16-.113-.213-.197-.084-.132-.121-.288-.173-.434.169-.104.187-.343.162-.564a.83.83 0 0 0 .377.293l.006.176c.002.257-.018.509-.055.755a.47.47 0 0 1-.104-.031zm-.106-1.2c-.084-.095-.124-.205-.171-.318.186-.129.226-.313.203-.503a1.49 1.49 0 0 0 .105.138c.058.286.098.574.115.869-.096-.043-.181-.105-.252-.186zm-.037-1.098l-.076-.181a.38.38 0 0 0 .075-.093l.131.485c-.047-.068-.089-.138-.13-.211zm-.505-.199c-.151-.055-.242-.179-.325-.309l-.02-.057c.006-.004.012-.006.018-.011.144-.112.126-.328.107-.487l-.031-.188a.93.93 0 0 0 .423.194c.019.002.034-.004.045-.013l.241.653a.35.35 0 0 1-.459.218zm-.546-1.576c-.171.181-.37.069-.537-.056a.71.71 0 0 0-.096-.12c-.006-.006-.013-.009-.02-.011.161-.194.048-.469-.09-.695.222.169.525.268.711.107.109.232.241.554.033.775zm-.561-.878c-.146-.076-.245-.21-.375-.304.063-.156.005-.344-.084-.516.158.102.373.123.551.05l.417.722c-.143.124-.328.143-.509.048zm-.639-1.16c.089-.174.072-.393.008-.602.058.063.126.117.199.15l.474.76c-.297.105-.531-.044-.681-.309zm.446-.417c.026-.005.052-.012.079-.023a.39.39 0 0 0 .14-.095.8.8 0 0 1 .206.575l-.425-.457zm.278-.197c.047-.085.065-.187.065-.292.081.111.195.186.337.168.008 0 .015-.004.023-.005v.325c-.003.077-.024.203-.128.176-.052-.013-.088-.057-.12-.101-.04-.1-.101-.193-.177-.269v-.002zm.218.411c.059.048.131.068.208.019.067-.043.08-.121.086-.195.002-.021.001-.043.002-.064.069.16.192.294.367.299.026.118.146.841-.069.846l-.607-.599a.64.64 0 0 0 .013-.303v-.002zm.811.499c.073.152.195.27.383.287.033.004.064.001.093-.002-.036.135.028.61-.207.558l-.409-.37c.122-.025.147-.248.14-.472zm.486.825a.36.36 0 0 0 .065-.2c.053.112.145.198.282.216a.31.31 0 0 0 .088-.001c.047.185.04.366-.001.549l-.573-.477c.054-.011.105-.042.139-.087zm.317-.097c-.185-.055-.204-.245-.234-.412.005-.017 0-.032-.008-.043.106-.061.166-.17.197-.297.052.142.155.256.315.275-.036.184.017.56-.27.476zm.233.416c.062.149.163.279.302.303.023.004.045.004.066 0 .014.107.005.211-.014.316l-.312-.25-.121-.095c.044-.087.071-.179.08-.273zm.193.119c-.115-.129-.175-.293-.219-.459.044-.027.081-.069.104-.123a.81.81 0 0 0 .032-.095.53.53 0 0 0 .29.297c.024.01.048.014.069.018.024.114.063.243.008.349-.068.132-.195.113-.284.013zm.26.359c.054.166.168.324.338.331.015 0 .029-.001.042-.003-.008.042-.002.086-.001.129a1.07 1.07 0 0 0 .006.11l-.427-.379c.024-.061.037-.123.043-.187zm.371.233c-.112.03-.215-.11-.263-.188a1.15 1.15 0 0 1-.107-.253c.036-.021.068-.051.091-.086.031-.046.047-.097.053-.149.051.135.15.245.308.26h.027c-.037.132.04.375-.113.417l.002-.001zm.074.293c.019.042.041.081.064.111.057.075.146.132.241.135a.78.78 0 0 0 .074.256 5.54 5.54 0 0 0-.387-.413c.005-.03.006-.058.008-.088zm1.135 1.126c-.183-.048-.256-.229-.275-.4.084-.039.15-.112.178-.2.07.116.206.188.347.189l.03.044c-.006.012-.008.026 0 .043.094.191-.081.377-.28.324zm.008.106c-.002.152-.044.288-.087.43l-.021-.029a2.71 2.71 0 0 0-.182-.43c.011-.054.017-.11.018-.164.057.098.151.172.27.193h.002zm.184-1.777c-.021.149-.175.245-.321.205s-.23-.185-.278-.319c.126-.035.239-.176.287-.322.042.174.15.339.298.415.014.011.013.015.013.021zm-.179-.355a.94.94 0 0 1-.082-.292c.062.012.125.01.176-.017l.074.523c-.064-.064-.123-.128-.168-.215zm-.05-.394c-.092-.006-.165-.068-.219-.137-.095-.121-.145-.27-.195-.413.212-.005.329-.161.38-.351l.16.873c-.04.016-.081.031-.127.029zm-.55-.678c-.257-.077-.276-.325-.316-.544a.4.4 0 0 0 .297-.178.44.44 0 0 0 .14.194c.084.066.221.111.335.089-.04.249-.137.534-.456.438zm.382-.537c-.064-.005-.128-.027-.181-.064-.107-.075-.138-.194-.154-.316.105.011.2-.044.275-.126l.127.503c-.021.002-.044.006-.066.004zm-.471-.564c-.125-.124-.111-.311-.131-.473.128.038.268 0 .348-.099l.157.51c-.098.126-.233.203-.375.062zm-.144-.586c-.006-.005-.013-.008-.021-.01a.32.32 0 0 1-.084-.061c-.111-.11-.146-.264-.184-.411.142.042.339.007.429-.112l.183.49c-.055.136-.2.155-.322.104zm-.227-1.404c-.107.195-.349.239-.543.108-.179-.122-.208-.324-.26-.517l.352.076c.081.021.153.027.229-.021.008-.005.017-.012.024-.019l.198.373zm-2.354-2.899c-.207-.066-.412-.112-.602-.224-.219-.127-.378-.31-.5-.529.568-.397 1.372.06 1.103.753zm-1.25-.773c.014-.025.03-.049.063-.062.046-.019.1-.007.148-.01a.38.38 0 0 0-.082.069c-.009-.004-.024.005-.019.017a1.32 1.32 0 0 0 1.171.842c.01 0 .017-.004.023-.008.015 0 .061-.08.069-.107.031.043.158.123.046.268-.252.126-.732-.043-.934-.161-.318-.185-.519-.481-.486-.848zm-2.628-.926c.036-.132.094-.236.168-.319l.067-.066c.502-.438 1.553-.193 1.931-.895.326-.604.188-1.434-.149-2.011.573.788.691 2.196-.419 2.569-.372.125-.864.172-1.14.46a.41.41 0 0 0-.198.328.59.59 0 0 1-.138-.004c-.046-.01-.089-.026-.132-.044.005-.004.009-.011.011-.018zm-.329-.39c-.594-.08-1.169.025-1.673.516-.325.316-.483.69-.547 1.09-.366-.994 1.62-2.562 2.22-1.606zm-.071.102c-.342.108-.54.473-.535.844.005.378.162.779.372 1.141-.272-.323-.59-.617-.934-.757-.332-.135-.737-.079-.913.225l.051-.206a1.85 1.85 0 0 1 1.541-1.247c.137-.014.277-.014.417 0zM17.92 5.341c-.144.127-.209.311-.302.493-.253.5-.753.857-1.329.832-.992-.043-1.565-1.001-1.724-1.907.227.695.81 1.275 1.515 1.474.332.093.731.112 1.01-.125.164-.138.246-.336.343-.522.121-.229.273-.376.443-.525.14-.094.298-.162.446-.242.031.077.04.163.037.249a.38.38 0 0 1-.03.136.48.48 0 0 0-.411.132zm.023 2.599c-.053-.267.007-.625.258-.768.369.365.415.815.258 1.294-.264-.086-.459-.239-.516-.525zm.391.737c-.076-.054-.084-.139-.087-.224a.49.49 0 0 0 .201.046l-.009.03c.372-.436.213-1.071-.22-1.396-.004-.019-.021-.037-.045-.03a.33.33 0 0 0-.107.051c.007-.063.015-.127.05-.182.023-.035.055-.063.093-.079.015-.007.031-.011.045-.015.58.229.813 1.47.272 1.832-.067-.002-.128.012-.193-.033zm.266.097c.561-.381.397-1.927-.32-1.967l-.045-.286-.134-1.195a.57.57 0 0 1 .187-.045l-.035.051c.131.013.175-.149.184-.248.014-.15-.01-.315-.137-.41-.029-.021-.052.021-.034.045.012.015.021.031.031.046a1.81 1.81 0 0 0-.183.056l.007-.068c.529-1.24 1.931.642 2.334 1.069.015.017-.446-.796-.606-1.214-.202-.524-.234-1.349.514-1.417.011 0 .121.008.169.02a2.12 2.12 0 0 0-.057.207l-.081-.03c-.009-.004-.017.008-.013.017.018.033.047.066.085.093.162.113.412.163.523.054.015-.015.007-.041-.012-.046-.033-.011-.068-.012-.103-.012a1.16 1.16 0 0 1 .09-.155c.304.107.599.239.867.361.427.192.841.411 1.239.659 0 .014-.136.488.472.886.17.112.71.342 1.002.257.433.418.818.88 1.148 1.394l.226.372c-.814-.11-1.54-.424-2.341-.637-.627-.167-1.335-.242-1.945.025-.683.298-1.046 1.014-1.358 1.65l-.491 1.1c-.093.222-.359 1.185-.62 1.483-.235-.693-.417-1.4-.566-2.115l.002-.001zm.174 2.378c-.052-.173.164-.309.255-.449l.124.35c.017-.029.191-.243.267-.424l.457-1.114c.343-.824.713-1.969 1.431-2.545 1.488-1.193 3.351.544 4.946.4.042-.004.043-.064 0-.067l-.242-.021-.181-.311c.232.029.825.002.841.32a.33.33 0 0 1-.308.317l-2.897-.686c-.722-.17-1.367-.291-1.989.208-.591.474-.894 1.239-1.181 1.917-.184.434-.434.846-.542 1.305-.142.602-.811 1.363-.982.802v-.002zm2.875 4.863c.055-.247.032-.516-.04-.751-.003-.012-.021-.007-.019.005.075.361.002.661-.124.988a2.99 2.99 0 0 0-.41-1.822c-.023-.038-.076-.005-.058.035.286.64.478 1.297.343 2.005-.048.25-.184.541-.34.805.357-.849.153-1.892-.184-2.716-.005-.011-.021-.006-.018.005.385 1.054.428 2.047-.107 3.025.187-.946.026-2.157-.417-2.972-.019-.036-.068-.005-.052.031.474 1.12.748 2.35.151 3.484-.498.948-1.52 1.422-2.526 1.166.879-.13 1.576-.645 1.995-1.439.505-.954.459-2.096.24-3.123-.002-.013-.021-.007-.019.005.166 1.009.184 2.068-.301 2.998-.414.792-1.052 1.182-1.866 1.408a3.22 3.22 0 0 0 .568-.448c.897-.895 1.216-2.245 1.096-3.479-.005-.043-.07-.044-.068 0 .072 1.188-.171 2.426-1.005 3.322a3.08 3.08 0 0 1-.909.671c-.034-.013-.048.006-.045.023a2.91 2.91 0 0 1-1.452.274c1.87-.062 2.959-2.019 3.101-3.73-.156.927-.406 1.853-1.049 2.565-.554.614-1.243.887-2.012.986 1.065-.31 1.97-1.12 2.338-2.19.62-1.809-.461-3.823.643-5.518.563 1.113 1.476 1.973 2.256 2.93l.452.584a1.65 1.65 0 0 1-.159.871l-.001.002zm.196-1.077l-.3-.397c.137.081.298.1.417-.045.008-.011.014-.023.021-.033.078.242.274.548.084.783l-.223-.307zm.254.353c.175-.149.168-.436.077-.662.099.069.214.099.318.03a1.29 1.29 0 0 1 .185.562c.01.152-.028.346-.208.356-.101.006-.183-.053-.259-.118l-.114-.168zm.221.329c.101.058.213.082.308.026a.6.6 0 0 1 .175.33c.006.036.003.324-.058.375l-.424-.731zm.577.524c.012-.116-.006-.23-.05-.335.123.106.28.162.428.048.094.226.127.474.054.72-.125.419-.413.031-.529-.176.057-.067.093-.209.097-.256zm.058.648c.096.093.214.138.326.058.072.187.17.558-.056.652a6.92 6.92 0 0 0-.27-.71zm.29.777c.242-.04.233-.359.18-.599a.32.32 0 0 0 .299.068c.023.176.052.357.012.532-.03.129-.106.259-.262.245-.087-.007-.153-.092-.207-.169l-.022-.078zm.069.247c.065.059.145.098.227.093-.026.146.013.342-.117.424l-.11-.517zm.09 2.286c.196.006.303-.162.36-.348.01.163.072.321.219.38-.076.122-.109.262-.219.363-.138.129-.395.12-.448-.051l.088-.344zm-.119.449c.041.061.109.107.185.126l-.027.096c-.063.136-.175.228-.335.237a4.65 4.65 0 0 0 .177-.46zm-.221.55c.119.023.252-.027.345-.114-.005.111.015.216.087.287-.077.117-.147.239-.253.334-.067.06-.142.112-.234.11-.113-.004-.177-.083-.176-.187a4.65 4.65 0 0 0 .232-.429zm-.297.534a.3.3 0 0 0 .166.152c-.105.129-.321.375-.485.377-.011-.017-.034-.026-.056-.011l.374-.518zm-.491.641c-.11.138-.186.319-.03.453.011.009.024.017.036.024-.056.024-.105.07-.161.099-.1.05-.371.146-.384-.043a6.11 6.11 0 0 0 .538-.532zm-.372.73c.069-.006.178-.031.271-.075-.049.092-.062.203-.023.297-.034.011-.069.026-.102.045-.106.03-.214.06-.324.053-.126-.009-.179-.108-.144-.223.02-.067.07-.118.109-.174.049.055.14.086.211.08l.001-.002zm-.724.241l.423-.324c-.118.121-.201.329-.044.447.088.066.212.069.329.04-.051.067-.081.145-.074.226l-.025.01c-.136 0-.274.021-.405-.025-.144-.051-.244-.197-.201-.349.002-.01-.001-.018-.004-.025zm-.025.38l.026-.014a.38.38 0 0 0 .052.047c.097.073.222.098.345.092-.106.065-.197.151-.235.269a.45.45 0 0 0-.02.128c-.156-.016-.41.085-.492-.093-.066-.144.23-.337.324-.428zm-.073-.312a.33.33 0 0 0 .057.248c-.128.048-.511.261-.522.048l.465-.296zm-.523.33c.008.063.064.118.133.135.052.012.107.002.158-.015-.095.08-.164.179-.137.289-.005-.013-.018-.026-.032-.024a.59.59 0 0 1-.58-.14l.458-.245zm-.101.512c-.128.083-.232.206-.285.35-.162-.025-.553 0-.575-.214-.026-.256.296-.268.461-.316.087.117.247.185.399.18zm-.777.368l-.984-.069.83-.303c-.02.045-.03.097-.024.154.011.104.083.174.178.218zM5.403 20.997l.031-.009c-.008.012-.019.009-.031.009zm-4.015 5.956a.17.17 0 0 1-.051-.021l.051.021zm15.349.159c-1.277.807-2.629 1.505-4.055 2.008-2.919 1.029-6.254 1.214-9.093-.168a8.8 8.8 0 0 1-2.705-2.027c.583.549 1.319.99 2.008 1.352a11.22 11.22 0 0 0 2.633.994c-.904-.247-1.785-.587-2.602-1.048-.588-.331-1.104-.736-1.621-1.15 1.417.829 2.894 1.504 4.548 1.732 1.88.259 3.809.04 5.626-.485.021-.006.013-.039-.01-.034-1.873.471-3.819.692-5.737.377-1.124-.185-2.163-.577-3.162-1.07.638.226 1.298.36 2.009.331 1.225-.047 2.42-.373 3.652-.292.014 0 .018-.024.003-.026-1.095-.149-2.178.087-3.268.167-.612.045-1.229.035-1.827-.123-.549-.144-1.061-.39-1.572-.63 1.834.633 4.145-.094 6.006-.106 2.804-.017 5.925 1.081 8.523-.464.04-.024.005-.084-.037-.062-2.188 1.171-4.585.689-6.939.487.279-.065.55-.126.852-.113l1.244.073c-.852-.111-1.623-.257-2.454.012l-.058-.004 1.178-.304c.535-.098 1.078-.145 1.62-.167.978-.038 1.952.012 2.929.05-1.05-.124-2.11-.211-3.166-.167-.768.032-1.628.105-2.376.369.385-.212.77-.423 1.187-.573.62-.223 1.239-.254 1.891-.189 1.174.118 2.312.182 3.468-.114.027-.007.015-.047-.012-.042-.676.121-1.352.204-2.042.191-.417-.008-.831-.064-1.244-.108-.346-.117-.683-.233-.977-.468-.366-.292-.55-.685-.676-1.126s-.203-.916-.44-1.306l.09.122c.276.774.777 1.579 1.409 2.087.011.008.027-.006.015-.016-.536-.517-.818-1.125-1.162-1.742.971 1.156 2.166 1.968 3.773 1.983.021 0 .021-.032 0-.034-.86-.036-1.69-.293-2.403-.78-.622-.424-1.086-1.002-1.556-1.579l1.206.736c1.851 1.019 4.019 1.45 6.118 1.238.032-.004.033-.054 0-.051-2.339.195-4.604-.355-6.605-1.58-.942-.577-1.84-1.24-2.86-1.678-.594-.255-1.209-.416-1.837-.511 1.302.044 2.499.431 3.634 1.104.012.007.02-.009.011-.018-.853-.645-1.888-1.04-2.949-1.178 1.313.006 2.578.191 3.778.895 1.405.823 2.664 1.75 4.365 1.76-.954-.101-1.834-.334-2.674-.803l-2.169-1.322c-.974-.499-2.055-.701-3.141-.715 2.062-.117 4.037.392 5.924 1.317-1.885-1.246-4.302-1.664-6.536-1.407 2.266-.46 4.539-.104 6.69.914 2.084.986 4.373 2.933 6.816 2.231-.008.005-.017.011-.026.014-.142.047-1.146.455-1.366.55-.021.009.002.075.017.081.219.087 1.557.198 1.793.174-1.277.72-2.427 1.648-3.666 2.429l.004.001zm3.485-2.585c.114-.201.279-.338.505-.397.064.07.156.11.245.12-.077.06-.137.142-.17.231l-.58.045zm1.055-.128l-.364.066a.5.5 0 0 1 .255-.217c.057-.007.112-.02.157-.045.009.064.035.124.081.166l-.129.031zm.204-.048c-.097-.104-.11-.253-.031-.378.085-.135.245-.195.381-.262.038.1.116.149.208.165-.145.098-.255.235-.272.404l-.287.072zm.344-.088c.055-.142.148-.252.282-.329.114-.067.245-.092.362-.149.032.096.096.182.186.22l-.831.257zm.947-.297c-.2-.085-.272-.279-.196-.46.052-.123.15-.207.25-.29l.142-.104.021.015c.152.09.338.078.485-.006-.08.116-.146.239-.176.375-.017.076-.037.211.007.284l-.534.185zm.618-.214c-.074-.054.071-.43.078-.444.063-.119.147-.224.23-.329.091.048.196.063.292.029l-.258.634c-.009-.001-.02-.001-.032.002l-.31.108zm3.863-1.787zm1.406-3.4c.033-.693-.217-1.428-.593-1.975.357.674.455 1.306.448 2.006a4.27 4.27 0 0 0-.194-.858c-.004-.011-.02-.006-.017.005.083.331.134.665.152 1.002-.137-1.06-.617-2.133-1.412-2.839-.03-.026-.07.013-.044.044.772.902 1.311 1.905 1.39 3.112.063.947-.148 1.906-.783 2.585.828-1.337.479-3.118-.1-4.487.599 1.525.688 3.066-.076 4.498.186-.485.295-.996.31-1.518a6.05 6.05 0 0 1-.329 1.311c.303-1.18.188-2.463-.464-3.577-.019-.032-.063-.004-.049.029.621 1.352.771 2.868.179 4.263-.428 1.009-1.174 1.807-2.096 2.358 1.638-1.328 2.191-3.499 1.563-5.544-.005-.013-.025-.008-.021.006.271 1.162.334 2.279-.115 3.411-.278.701-.727 1.331-1.281 1.844.585-.766 1.018-1.683 1.072-2.638-.168 1.202-.801 2.105-1.532 3.02l-.122.087.259-.342c.926-1.297 1.368-2.982.84-4.529-.017-.048-.09-.027-.076.021.456 1.529.096 3.108-.806 4.4-.715 1.025-1.799 2.07-3.045 2.437 1.532-.887 2.838-2.35 3.187-4.112-.44 1.805-1.699 3.074-3.245 3.982a8.02 8.02 0 0 0 2.919-5.708c.024-.435.007-.871.105-1.299.093-.409.292-.783.472-1.158.282-.587.482-1.184.542-1.837.127-1.388-.302-2.758-.92-3.985l-1.056-1.872c.481.581 1.079 1.058 1.679 1.523.86.667 1.605 1.336 2.14 2.255-.471-.542-1.046-.983-1.69-1.257-.034-.014-.064.031-.031.052.979.629 1.906 1.271 2.38 2.365.549 1.264.548 2.297.456 2.917l.002.001zm-.33-2.879c-.15-.31-.329-.605-.534-.882a.74.74 0 0 0 .113-.306c.07.161.172.304.348.34l.072.848zm-.078-.931c-.182-.05-.264-.255-.322-.424.112-.005.215-.07.273-.16l.049.584zm.508-1.842zm1.091.773zm2.478.945c.014-.011.025-.004.036.002-.012 0-.024-.001-.036-.002zm-.524-1.01c-.009-.008-.024.005-.014.014.487.483 1.054.876 1.679 1.158.273.124.568.242.869.307l-.303-.017a4.33 4.33 0 0 1-1.913-.686c-1.274-.832-1.988-2.227-2.396-3.653-.008-.03-.054-.018-.047.013.347 1.425 1.207 2.85 2.396 3.686-.66-.341-1.308-.604-1.799-1.219s-.745-1.38-.95-2.136c-.005-.017-.03-.009-.026.007.191.809.44 1.642.961 2.304.353.447.859.793 1.394 1.035-.519-.169-1.018-.375-1.427-.765-.012-.011-.028.006-.018.018.348.396.806.636 1.289.815a3.33 3.33 0 0 1-1.633-.93c-.715-.745-1.011-1.709-1.096-2.717-.003-.049-.076-.05-.076 0-.001.897.352 1.848.942 2.582-.695-.533-.934-1.376-1.129-2.221.144.846.348 1.822 1.083 2.335-.793-.473-1.054-1.28-1.307-2.197-.006-.023-.045-.019-.043.006a3.59 3.59 0 0 0 .447 1.424c-.138-.178-.256-.366-.368-.563-.008-.014-.033-.005-.026.011a3.48 3.48 0 0 0 .335.603c-.146-.095-.282-.206-.399-.338-.196-1.588-.582-3.155-1.317-4.541 0-.011-.005-.019-.012-.024 1.372-.035 2.603.558 3.559 1.537.948.97 1.51 2.167 2.16 3.337.511.92 1.248 1.655 2.238 2.041-2.219-.368-3.446-2.389-4.427-4.284-.006-.012-.024-.001-.018.011.923 1.858 2.276 4.432 4.67 4.427-1.163.178-2.447-.657-3.28-1.381z" fill="#242a2e"/><path d="M58.766 3.865l-8.666 6.473 8.667 8.097h-5.09l-6.296-6.057-4.394 3.268v2.789h-3.679V3.865h3.679v7.555l10.2-7.555h5.58zm24.106 14.777c-6.296 0-8.994-2.664-8.994-7.513 0-4.829 2.698-7.472 8.994-7.472 6.275 0 8.993 2.665 8.993 7.472 0 4.828-2.719 7.513-8.993 7.513zm0-3.143c3.822 0 5.314-1.395 5.314-4.371 0-2.956-1.472-4.329-5.314-4.329s-5.315 1.353-5.315 4.329c0 2.997 1.492 4.371 5.315 4.371zm30.365-11.635v14.569h-3.68V3.865h3.68z" fill="#e94e58"/><path d="M48.031 22.069h-6.868v2.223h6.132v1.898h-6.132v2.735h-2.207v-8.742h9.075v1.886zm5.731 6.981c-3.777 0-5.396-1.599-5.396-4.509 0-2.897 1.619-4.483 5.396-4.483 3.765 0 5.396 1.598 5.396 4.483 0 2.897-1.631 4.509-5.396 4.509zm0-1.886c2.293 0 3.189-.837 3.189-2.623 0-1.773-.883-2.598-3.189-2.598s-3.189.812-3.189 2.598c0 1.799.895 2.623 3.189 2.623zm16.232-3.771c0 1.424-.712 2.473-1.864 2.935l1.582 2.598h-2.6l-1.386-2.335H62.17v2.335h-2.207v-8.742h6.745c1.95 0 3.287 1.262 3.287 3.209zm-7.825-1.324v2.635h3.924c.663 0 1.693 0 1.693-1.311 0-1.324-1.03-1.324-1.693-1.324H62.17zm18.816-1.886v1.886h-4.169v6.856h-2.208v-6.856h-4.17v-1.886h10.547zm11.59 4.358c0 3.035-1.631 4.509-5.396 4.509-3.778 0-5.397-1.461-5.397-4.509v-4.358h2.208v4.358c0 1.224.331 2.623 3.189 2.623s3.188-1.411 3.188-2.623v-4.358h2.208v4.358zm9.775-4.358h2.208v8.742h-3.005l-5.85-6.556v6.556h-2.208v-8.742h2.993l5.862 6.569v-6.569zm12.269 1.786h-6.867v1.773h6.867v1.623h-6.867v1.773h6.867v1.786h-9.075v-8.742h9.075v1.786z" fill="#fff"/></g><defs><clipPath id="A"><path fill="#fff" d="M0 0h114.62v31.444H0z"/></clipPath></defs></svg>