<svg xmlns="http://www.w3.org/2000/svg" width="184" height="32" fill="#fff5e5" xmlns:v="https://vecta.io/nano"><g clip-path="url(#A)"><path d="M4.062 6.673H16.02l-2.216 14.66h7.628L24.867 0H5.12L4.062 6.673z" fill="##fff5e5"/><path d="M11.172 10.666H3.435L0 32h19.716l1.07-6.671H8.956l2.216-14.662zm95.776-5.055h-5.739L97.64 26.853h10.073l.853-5.099h-4.333l2.715-16.143zm12.735 13.721c-.342 1.915-.8 2.535-1.861 2.535-.832 0-1.24-.507-1.197-1.493a9.62 9.62 0 0 1 .132-1.07l2.32-13.692h-5.767l-2.4 14.199a11.53 11.53 0 0 0-.155 1.584c-.161 3.696 2.272 5.833 6.402 5.833 2.181 0 3.988-.62 5.419-1.861 1.409-1.233 2.343-2.904 2.647-4.733l2.549-15.016h-5.767l-2.322 13.714zm15.616-6.791c.92-1.324 2.039-2 3.36-2 .918 0 1.731.422 2.44 1.267l1.011-6.057a7.62 7.62 0 0 0-2.817-.528c-3.128 0-5.795 1.267-7.972 3.804-2.175 2.506-3.347 5.69-3.515 9.551-.113 2.591.484 4.677 1.762 6.282 1.28 1.577 3.082 2.366 5.405 2.367 1.034 0 2.222-.254 3.564-.762l1.388-6.141c-2.347 1.832-4.495 1.718-5.468.366-.486-.704-.701-1.69-.644-3.014.092-2.093.597-3.811 1.486-5.136zm18.333-6.93l-4.932 9.1 1.66-9.1h-5.739l-3.567 21.242h5.738l1.519-9.804 2.155 9.804h6.197l-3.279-10.987 6.33-10.255h-6.082zm17.014 0l-1.603 3.184-1.525 3.381a28.34 28.34 0 0 0-.425-3.409l-.493-3.156h-5.993l3.227 12.256-1.511 8.977h5.767l1.511-8.977 7.02-12.256h-5.975zM42.833 21.354H38.5l2.714-16.143h-5.739l-3.569 21.244h10.071l.855-5.101zm12.558 0h-4.964l.543-3.239h4.448l.814-4.818h-4.448l.536-3.1h4.935l.85-4.987H47.403l-3.569 21.244h10.704l.853-5.101zm4.157 5.101h5.738l2.743-16.144h3.3l.853-5.099H59.961l-.855 5.099h3.157l-2.714 16.144zM80.652 7.213c-1.561 1.605-2.386 3.409-2.476 5.437-.084 1.936.685 3.381 2.587 5.156l.801.732c.523.479.789.986.767 1.465-.041.929-.844 1.584-1.963 1.584-1.291 0-2.377-.762-3.256-2.311l-1.124 6.65c1.468.591 2.831.901 4.064.901 2.21 0 4.08-.788 5.67-2.367a8.55 8.55 0 0 0 2.551-5.831c.079-1.802-.767-3.438-2.51-4.902l-.81-.685c-.636-.528-.93-1.042-.907-1.549.031-.704.866-1.438 1.755-1.438 1.176 0 2.284.901 2.997 2.339l1.086-6.481a7.73 7.73 0 0 0-3.969-1.098c-1.947.004-3.702.792-5.265 2.399zm-1.438-2.001h-4.062l-2.16 5.113h3.503l2.72-5.113zm99.03.371l-1.908 15.196h5.757L184 5.583h-5.756zm.677 16.922c-.896 0-1.696.352-2.407 1.056-.338.309-.608.683-.793 1.099s-.281.864-.283 1.318a2.61 2.61 0 0 0 .193 1.028c.134.327.333.624.585.874a2.69 2.69 0 0 0 .885.582 2.75 2.75 0 0 0 1.046.2 3.41 3.41 0 0 0 1.323-.264 3.35 3.35 0 0 0 1.109-.755 3.4 3.4 0 0 0 .768-1.106c.178-.415.271-.861.272-1.311.009-1.54-1.14-2.721-2.698-2.721z"/></g><defs><clipPath id="A"><path fill="fff5e5" d="M0 0h184v32H0z"/></clipPath></defs></svg>