<svg xmlns="http://www.w3.org/2000/svg" viewBox="0 0 1852 280" xmlns:v="https://vecta.io/nano"><path d="M1629 0l9.92 1.84c30.29 4.74 49.49 25.07 52.16 55.46.49 5.63.77 11.3.77 16.94l-.11 134.87c-.06 9.06-.9 18.41-3.27 27.12-6.38 23.44-22.6 36.8-46.09 41.75l-9.38 2.01h-25c-2.11-.65-4.17-1.52-6.32-1.92-26.99-5.01-45.22-24.2-48.72-51.55-.61-4.77-1.02-9.61-1.03-14.41l-.06-143.83c0-9.56 1.05-18.96 4.3-27.95 8.05-22.33 24.6-34.28 47.47-38.37 2.82-.5 5.58-1.3 8.37-1.96h17zm-31.03 140.38v70.98c0 2.5-.04 5.01.15 7.49.88 11.12 5.96 18.97 14.76 20.85 5.22 1.11 10.92 1.04 16.24.33 7.82-1.04 12.88-6.2 14.78-13.75 1.21-4.78 1.78-9.85 1.79-14.79l.05-142.46c0-2.99-.21-5.99-.56-8.97-1.68-14.41-10.78-21.83-25.31-20.7-1.49.12-2.98.34-4.46.6-7.49 1.35-13 5.44-15.24 12.72-1.39 4.53-2.07 9.45-2.11 14.2l-.09 73.48zM1133 0l8.88 1.83c28.88 4.64 47.15 23.27 50.11 52.52 1.38 13.66 1.02 27.49 1.45 41.46h-44.14v-4.92c-.07-10.32.17-20.66-.29-30.97-.55-12.18-7.09-19.04-19.13-20.31-14.91-1.57-25 4.99-26.17 20.28-.18 2.32-.38 4.65-.38 6.97l.06 146.91c.01 4.61.56 9.34 1.75 13.78 1.82 6.78 6.57 11.2 13.54 12.47 4.04.73 8.31 1.15 12.37.68 10.98-1.26 17.53-8.31 17.95-19.8.49-13.14.24-26.31.31-39.47v-6.29h43.38c.09.76.34 1.85.34 2.93.02 12.66.49 25.34-.19 37.97-.46 8.39-1.56 17.02-4.18 24.95-6.87 20.76-22.11 32.52-43.25 36.99l-9.39 2.02h-24c-2.12-.64-4.2-1.48-6.36-1.89-27.01-5.1-45.07-24.83-47.6-52.3a195.46 195.46 0 0 1-.83-17.94l.11-140.36c.06-8.39 1.09-17.04 3.36-25.09 6.57-23.35 22.96-36.12 46.42-40.44 3.31-.61 6.6-1.32 9.91-1.99h16zM495 280l-6.38-1.87c-25.29-4.76-42.45-21.61-46.49-47.01-1.8-11.28-1.9-22.82-2.81-34.7h44.6c0 6.4-.24 12.85.09 19.27.21 4.1.82 8.3 2.05 12.21 2.04 6.51 6.77 10.73 13.45 12.03 4.19.81 8.64 1.21 12.86.75 10.69-1.17 17.12-7.66 18.51-18.43 2.09-16.23-.86-31.41-11.98-43.86-7.4-8.29-15.56-15.99-23.96-23.29-12.08-10.5-24.34-20.75-34.54-33.19-19.26-23.48-23.76-50.24-16-78.89 6.43-23.74 23.33-36.72 47.22-41.06 2.82-.51 5.58-1.31 8.37-1.97h17c3.14.62 6.26 1.32 9.42 1.83C554.8 6.41 573 25.62 575.9 54.45c.83 8.25.95 16.58 1.42 25.25h-44.21c0-4.59.25-9.22-.07-13.81-.31-4.44-.75-8.97-1.94-13.24-2.09-7.46-7.6-11.42-15.1-12.75-1.31-.23-2.63-.45-3.96-.55-13.49-1.08-22.12 5.63-24.25 18.83-2.14 13.21 1.27 25.08 8.88 35.84 6.99 9.88 15.95 17.88 25.18 25.56 12.17 10.13 24.3 20.23 34.75 32.25 16.47 18.96 22.47 41.18 20.77 65.73-.49 7.08-1.56 14.31-3.69 21.06-7.01 22.23-22.79 34.81-45.34 39.41-2.8.57-5.56 1.3-8.34 1.96h-25zM0 4l40.44.3h5.77v232.65h75.51v38.85c-.66.07-1.44.22-2.22.22H3.01c-.66 0-1.33-.1-1.99-.15l-.05-6.49L.93 11.65C.93 9.77.32 7.88-.01 6V4zm928.75.47h62.52L1039 275.83h-46.12l-8.26-52.63h-52.46l-8.35 52.59h-42.78L928.75 4.47zm29.9 48.12l-1.01-.1-19.97 133.28h41.34L958.65 52.59zM773.02 276.13v-37.89c7.19 0 14.18.58 21.05-.12 13.35-1.37 20.08-8.95 20.84-22.38.13-2.33.09-4.66.09-7V10.28v-5.7h45.85c.08 1.38.21 2.66.21 3.94l-.13 204.46c-.03 8.07-1.13 16.32-3.05 24.16-4.71 19.22-17.07 31.5-36.13 36.91-16 4.54-32.2 4.15-48.74 2.09z" fill="#fff"/><path d="M690.45 185.62l-9.04 9.3c-26.01 26.6-70.22 16.15-81.18-18.1-6.08-18.99-2.35-36.44 12.06-50.94l30.38-30.4 40.27-40.3c2.54-2.54 4.96-5.2 7.21-7.56l37.49 37.56 40.62 40.65c27.23 27.38 15.72 72.27-21.33 82.33-17.81 4.83-33.6.14-46.97-12.51-3.13-2.96-5.95-6.25-9.52-10.03zm-.1-14.35l17.1 17.29c13.12 12.92 32.84 13.81 46.14 5.84 22.32-13.36 26.09-42.13 7.83-60.72L693.3 65.35c-2.35-2.37-3.82-2.25-6.1.06l-67.11 67.23c-5.89 5.9-9.77 12.81-11.59 21.08-3.62 16.42 5.84 35.47 21.3 42.13 15.78 6.79 31.96 3.85 44.18-8.14l16.36-16.45zm.06 30.81l37.57 37.58h-75.36l37.79-37.58zm12.49 27.77l.64-1.26-11.68-11.3c-.55-.51-2.22-.69-2.68-.26-4.18 3.83-8.21 7.83-12.29 11.78l.72 1.05h25.29z" fill="red"/><path d="M144.36 4.5h125.33v38.56h-79.21v71.73h62.78v38.92h-62.69v83.22h79.16v38.76H144.36V4.5zm281.85.12v38.29h-47.72v232.86h-46.32V43.2h-47.95V4.62h142zm840.02 271.26h-45.8V4.56h45.56V116.6l.91.42 2.36-4.23 53.4-104.24c1.68-3.31 3.56-4.41 7.2-4.35 13.33.23 26.66.09 40.93.09-.96 1.96-1.64 3.5-2.45 4.98l-49.82 90.39c-1.77 3.19-1.97 5.81-.85 9.25l52.72 162.56c.45 1.4.83 2.82 1.3 4.42h-48.1l-38.89-120.73-7.59 14.02c-3.59 6.75-8.55 13.17-10.33 20.37-1.82 7.39-.56 15.56-.57 23.39v62.93zm128.1-271.06c.6-.24.9-.46 1.2-.46 26.31.2 52.65-.23 78.93.86 17.31.71 32.77 7.15 43.79 21.57 6.65 8.69 10.41 18.71 11.42 29.4 1.93 20.24 2.68 40.61-.65 60.78-4.36 26.44-21.95 43.53-48.57 46.88-11.35 1.43-22.91 1.09-34.38 1.53-1.79.07-3.58 0-5.8 0V275.8h-45.95V4.82zm46.15 121.46c8.78 0 17.27.5 25.68-.12 11.09-.83 16.89-6.7 17.84-17.84.74-8.61.72-17.3.73-25.95 0-7.15-.07-14.34-.77-21.45-1-10.14-6.36-16.08-16.41-17.03-8.86-.83-17.86-.17-27.06-.17v82.56zM1850.79 4.49l.16 38.43-39.46.25h-7.98v232.59h-46.26V43.29h-47.98V4.3h3.09 135.96c.83 0 1.65.12 2.48.19z" fill="#fff"/><path d="M690.36 79.11l25.79 26.01 34.96 34.98c5.86 5.82 10.17 12.29 9.89 20.97-.37 11.63-5.87 19.91-16.51 24.53-10.44 4.53-20 2.25-28.13-5.21-7.6-6.98-14.68-14.52-21.99-21.82q-4.12-4.12-8.39.18l-20.88 20.82c-15.28 14.95-39.62 8.34-44.8-12.42-2.42-9.72.52-18.34 7.72-25.5l51.94-51.93 10.38-10.61zm.84 61.31c1.03 1.5 1.8 3.06 2.96 4.23l27.18 27.2c6.42 6.37 14.93 7.56 21.87 3.53 8.33-4.83 11.6-18.12 2.15-27.43l-51.91-51.91c-2.6-2.64-4.06-2.19-6.4.18l-44.45 44.54c-3.29 3.29-6.74 6.48-9.62 10.11-7.53 9.49-2.81 23.16 8.85 26.23 7.24 1.9 13-.68 18.06-5.71l31.32-30.97zm-.86-30.76l22.32 22.59 24.31 24.39c3.65 3.72 2.77 8.67-1.72 9.08-1.86.17-4.31-1.4-5.82-2.87l-30.06-29.93-5.98-6.01c-2.17-2.48-3.88-2.3-6.14 0l-27.49 27.57-9.91 9.85c-2.29 2.26-4.75 2.2-7.11.19-1.96-1.67-1.98-4.89.21-7.11l47.4-47.77z" fill="red"/></svg>