<svg xmlns="http://www.w3.org/2000/svg" width="112" height="27" fill="none" viewBox="0 0 112 27"><path fill="#44c811" d="M26.054 5.368c2.007.125 4.045.833 5.427 2.282 1.338 1.362 1.933 3.166 1.957 5.015-.008.844-.227 1.695-.387 2.524-3.324.011-6.647-.015-9.969.015.49.945 1.173 1.485 2.229 1.796 1.49.356 3.02.049 4.311-.726 1.177.835 2.353 1.67 3.472 2.576-1.524 1.44-3.555 2.094-5.652 2.261-1.277.01-2.497.138-3.695-.282a8.06 8.06 0 0 1-5.07-4.557c-1.61-3.405-.262-7.991 3.12-9.933 1.3-.689 2.764-1.08 4.257-.971m-3.001 5.891c1.819.09 3.651.048 5.474.029-.221-1.02-.876-1.697-1.951-1.9-.791-.054-1.572-.136-2.274.279-.684.352-.959.94-1.25 1.592"/><path fill="url(#paint0_linear_408_19273)" d="M26.054 5.368c2.007.125 4.045.833 5.427 2.282 1.338 1.362 1.933 3.166 1.957 5.015-.008.844-.227 1.695-.387 2.524-3.324.011-6.647-.015-9.969.015.49.945 1.173 1.485 2.229 1.796 1.49.356 3.02.049 4.311-.726 1.177.835 2.353 1.67 3.472 2.576-1.524 1.44-3.555 2.094-5.652 2.261-1.277.01-2.497.138-3.695-.282a8.06 8.06 0 0 1-5.07-4.557c-1.61-3.405-.262-7.991 3.12-9.933 1.3-.689 2.764-1.08 4.257-.971m-3.001 5.891c1.819.09 3.651.048 5.474.029-.221-1.02-.876-1.697-1.951-1.9-.791-.054-1.572-.136-2.274.279-.684.352-.959.94-1.25 1.592"/><path fill="#44c811" d="M40.778 5.8c2.27-.582 4.818-.237 6.76 1.058 1.432.97 2.58 2.318 3.138 3.922.485 1.212.508 2.47.372 3.746-.31 1.854-1.309 3.58-2.79 4.808-1.368 1.078-3.206 1.867-5.001 1.805-.977.015-1.92.013-2.845-.333-3.272-.974-5.743-4.064-5.619-7.384-.196-3.488 2.49-6.769 5.985-7.623m1.128 4.357c-1.83.489-3.003 2.555-2.283 4.267.457 1.382 1.925 2.31 3.416 2.297 1.238-.06 2.422-.735 2.995-1.8.435-.681.388-1.571.309-2.34-.287-1.364-1.606-2.51-3.084-2.51-.447-.01-.916-.012-1.353.086"/><path fill="url(#paint1_linear_408_19273)" d="M40.778 5.8c2.27-.582 4.818-.237 6.76 1.058 1.432.97 2.58 2.318 3.138 3.922.485 1.212.508 2.47.372 3.746-.31 1.854-1.309 3.58-2.79 4.808-1.368 1.078-3.206 1.867-5.001 1.805-.977.015-1.92.013-2.845-.333-3.272-.974-5.743-4.064-5.619-7.384-.196-3.488 2.49-6.769 5.985-7.623m1.128 4.357c-1.83.489-3.003 2.555-2.283 4.267.457 1.382 1.925 2.31 3.416 2.297 1.238-.06 2.422-.735 2.995-1.8.435-.681.388-1.571.309-2.34-.287-1.364-1.606-2.51-3.084-2.51-.447-.01-.916-.012-1.353.086"/><path fill="#44c811" d="M7.445 4.965c.777-.006 1.58-.025 2.347.106 1.316.29 2.562.9 3.572 1.76 1.645 1.438 2.545 3.544 2.53 5.67.01 2.613-.003 5.228.005 7.841q-2.329-.002-4.658.002c.002-2.43-.004-4.861.004-7.29-.016-.948-.113-1.936-.799-2.675-1.18-1.312-3.501-1.36-4.794-.176-.575.557-.949 1.297-.917 2.09q-.009 4.021 0 8.042c-1.578.015-3.156.002-4.733.01.006-2.555.002-5.108.002-7.661-.07-2.163.871-4.373 2.544-5.837C3.877 5.703 5.64 4.938 7.445 4.965"/><path fill="url(#paint2_linear_408_19273)" d="M7.445 4.965c.777-.006 1.58-.025 2.347.106 1.316.29 2.562.9 3.572 1.76 1.645 1.438 2.545 3.544 2.53 5.67.01 2.613-.003 5.228.005 7.841q-2.329-.002-4.658.002c.002-2.43-.004-4.861.004-7.29-.016-.948-.113-1.936-.799-2.675-1.18-1.312-3.501-1.36-4.794-.176-.575.557-.949 1.297-.917 2.09q-.009 4.021 0 8.042c-1.578.015-3.156.002-4.733.01.006-2.555.002-5.108.002-7.661-.07-2.163.871-4.373 2.544-5.837C3.877 5.703 5.64 4.938 7.445 4.965"/><path fill="#fff" d="M61.202 5.208a15.9 15.9 0 0 1 5.935 2.14 87 87 0 0 1-1.89 3.029c-1.746-1.125-3.772-1.837-5.902-1.56-.521.094-1.115.26-1.411.719-.251.297-.052.76.277.914.895.481 1.97.703 2.95.976 1.061.261 2.087.625 3.103 1.017 1.092.439 2.12 1.119 2.758 2.092.47.752.502 1.574.42 2.426-.165 1.494-1.098 2.877-2.45 3.636-1.149.688-2.43.934-3.764 1.025-3.168.087-5.947-.89-8.769-2.144.546-1.233 1.06-2.475 1.628-3.699 2.014 1.002 4.092 1.75 6.38 1.88.622.018 1.43-.058 1.882-.523.3-.245.276-.625.2-.963-.36-.4-1.02-.581-1.531-.744-1.35-.371-2.72-.638-4.041-1.11-1.382-.471-2.69-1.174-3.51-2.378-.527-.786-.553-1.801-.466-2.703.192-1.47 1.224-2.677 2.598-3.31 1.781-.882 3.652-.896 5.603-.72m42.344.305c.777-.005 1.58-.024 2.347.106a8.3 8.3 0 0 1 3.573 1.76c1.645 1.439 2.544 3.545 2.53 5.67.01 2.613-.004 5.229.004 7.842q-2.329-.002-4.658.002c.002-2.43-.004-4.862.004-7.291-.016-.947-.112-1.936-.798-2.674-1.181-1.313-3.502-1.36-4.795-.176-.575.556-.949 1.297-.917 2.09q-.009 4.021 0 8.041c-1.578.015-3.155.002-4.733.01.006-2.555.002-5.108.002-7.66-.07-2.163.872-4.373 2.544-5.837 1.329-1.144 3.092-1.91 4.897-1.883m-14.96.258c1.475 0 2.952-.004 4.427.002a9763 9763 0 0 0 0 15.114c-1.475.008-2.952.004-4.427.002q-.006-7.56 0-15.118m-10.338.125c3.45 0 6.601 2.304 7.616 5.448 1.241 3.5-.485 7.52-3.854 9.268-1.552.85-3.376 1.118-5.128.822-.882-.168-1.55-.617-2.285-1.076-.026 1.885-.002 3.767-.016 5.652-1.57.009-3.142.005-4.712.003-.01-3.882.002-7.764-.005-11.646-.052-1.459.233-3.006.958-4.301 1.402-2.593 4.366-4.301 7.426-4.17m-.532 4.48c-1.777.186-3.218 1.693-3.131 3.424-.004 1.856 1.732 3.396 3.661 3.288 1.876-.064 3.42-1.686 3.306-3.483-.006-1.897-1.882-3.44-3.836-3.229m-35.353 1.727c.499-.144 1.206-.164 1.614.225.616.508.71 1.552.164 2.148-.584.754-1.88.708-2.377-.131-.537-.76-.215-1.854.6-2.242"/><path fill="#a0dc04" d="M89.754.143c.803-.216 1.942-.247 2.598.337.992.761 1.143 2.327.265 3.221-.941 1.13-3.029 1.06-3.828-.197-.864-1.14-.346-2.78.965-3.361"/><defs><linearGradient id="paint0_linear_408_19273" x1="0" x2="51" y1="17.96" y2="12.96" gradientUnits="userSpaceOnUse"><stop stop-color="#44c811"/><stop offset="1" stop-color="#a4dd03"/></linearGradient><linearGradient id="paint1_linear_408_19273" x1="0" x2="51" y1="17.96" y2="12.96" gradientUnits="userSpaceOnUse"><stop stop-color="#44c811"/><stop offset="1" stop-color="#a4dd03"/></linearGradient><linearGradient id="paint2_linear_408_19273" x1="0" x2="51" y1="17.96" y2="12.96" gradientUnits="userSpaceOnUse"><stop stop-color="#44c811"/><stop offset="1" stop-color="#a4dd03"/></linearGradient></defs></svg>