<svg xmlns="http://www.w3.org/2000/svg" width="97" height="28" fill="none" viewBox="0 0 97 28"><g clip-path="url(#clip0_10174_181355)"><path fill="#ff2400" d="M26.084 3.14a3.08 3.08 0 0 1-.958 2.22 3.35 3.35 0 0 1-2.316.92c-.868 0-1.7-.331-2.316-.92a3.08 3.08 0 0 1-.958-2.22c0-.833.345-1.63.958-2.22A3.35 3.35 0 0 1 22.81 0c.868 0 1.7.331 2.316.92.611.588.958 1.387.958 2.22m0 5.005h-6.548v15.098h6.548zm31.843 6.381v-6.38H47.505v6.38zM8.825 17.479c4.874 0 8.825-3.913 8.825-8.738 0-4.826-3.95-8.739-8.825-8.739S0 3.915 0 8.741v14.502h6.385V8.74c0-1.335 1.094-2.418 2.442-2.418s2.442 1.083 2.442 2.418c0 1.334-1.093 2.417-2.442 2.417q-.292 0-.562-.065v6.369q.273.016.56.017m79.35.001C93.05 17.479 97 13.566 97 8.74 97 3.915 93.05.002 88.175.002s-8.824 3.913-8.824 8.739v14.502h6.385V8.74c0-1.335 1.093-2.418 2.442-2.418 1.348 0 2.442 1.083 2.442 2.418 0 1.334-1.094 2.417-2.442 2.417q-.292 0-.563-.065v6.369q.276.016.56.017M45.62 8.738V23.24h-6.385V8.923c0-.64-.257-1.255-.715-1.71a2.45 2.45 0 0 0-1.727-.707c-.648 0-1.268.254-1.727.708a2.4 2.4 0 0 0-.715 1.709V23.24h-6.385V8.738C27.966 3.913 31.916 0 36.79 0c4.876 0 8.83 3.913 8.83 8.738m14.194 5.767V.312H66.2v14.005c0 .641.257 1.256.716 1.71s1.079.708 1.726.708c.648 0 1.269-.255 1.727-.709a2.4 2.4 0 0 0 .715-1.709V.312h6.386v14.193c0 4.825-3.953 8.738-8.825 8.738-4.88 0-8.83-3.913-8.83-8.738"/><path fill="#00cfa6" d="M0 25.667h97V26a2 2 0 0 1-2 2H2a2 2 0 0 1-2-2z"/></g><defs><clipPath id="clip0_10174_181355"><path fill="#fff" d="M0 0h97v28H0z"/></clipPath></defs></svg>