<svg xmlns="http://www.w3.org/2000/svg" width="142" height="41" fill="none" viewBox="0 0 142 41"><path fill="#ff0123" d="M8.336 40.58H0V3.856h14.642q2.015 0 3.877.524Q20.38 4.905 22 5.865t2.958 2.305a14.76 14.76 0 0 1 3.776 6.492 14.4 14.4 0 0 1 .523 3.893q0 3.023-1.148 5.698a14.8 14.8 0 0 1-3.137 4.674 14.8 14.8 0 0 1-4.656 3.15q-2.666 1.152-5.675 1.152H8.336zm-.078-28.327v12.592h6.36q1.307 0 2.46-.494a6.5 6.5 0 0 0 2.017-1.349 6.3 6.3 0 0 0 1.363-2.007 6.1 6.1 0 0 0 .499-2.446q0-1.294-.499-2.446a6.4 6.4 0 0 0-1.363-2.007 6.4 6.4 0 0 0-2.017-1.349 6.2 6.2 0 0 0-2.46-.494zm31.795 28.308H31.83V3.837h8.224zm25.8.019L53.366 19.01v21.57h-8.214V3.856h8.484l12.442 21.491V3.856h8.251V40.58zm34.712-9.09a10.2 10.2 0 0 1-4.839 1.215c-5.718 0-10.354-4.696-10.354-10.49 0-5.792 4.636-10.489 10.354-10.489 1.749 0 3.396.44 4.841 1.215a21.8 21.8 0 0 1 4.884-6.735 18.3 18.3 0 0 0-9.696-2.771c-10.24 0-18.54 8.409-18.54 18.783 0 10.373 8.3 18.782 18.54 18.782 3.555 0 6.875-1.014 9.696-2.771a21.8 21.8 0 0 1-4.886-6.738"/><path fill="#ff0123" d="M120.037 3.417c-10.24 0-18.54 8.409-18.54 18.782 0 10.374 8.3 18.783 18.54 18.783s18.541-8.41 18.541-18.783-8.301-18.782-18.541-18.782M120 32.689c-5.718 0-10.354-4.697-10.354-10.49S114.282 11.71 120 11.71c5.719 0 10.355 4.697 10.355 10.49S125.719 32.69 120 32.69"/><path fill="#ff0123" d="M119.986 27.192c2.676 0 4.845-2.197 4.845-4.908 0-2.71-2.169-4.908-4.845-4.908s-4.845 2.197-4.845 4.908c0 2.71 2.17 4.908 4.845 4.908"/><path fill="#e9c05f" d="M141.894 6.523a1.395 1.395 0 0 0-1.289-.86h-4.277v-4.27a1.396 1.396 0 0 0-2.381-.985l-5.578 5.663a1.4 1.4 0 0 0-.409.985v4.993l-9.447 9.432a1.394 1.394 0 0 0 .93 2.435c.425 0 .749-.214 1.065-.488l9.424-9.41h5.001c.37 0 .725-.147.986-.408l5.672-5.57a1.39 1.39 0 0 0 .303-1.517"/></svg>