<svg xmlns="http://www.w3.org/2000/svg" xml:space="preserve" id="Layer_1" width="73" height="30" x="0" y="0" baseProfile="basic" viewBox="0 0 73 30"><path fill="#fff" d="m50.7 16.3-.8 4.5h-5.1l-1.2-1.5 1.6-9.4h4.7l1.3 1.4-.5 3-1.2.9zm-2.3-2 .4-2.3h-1.7l-.4 2.3zm-.4 4.5.4-2.5h-2l-.4 2.5zm4.8-8.8h5.3l-.4 2h-3l-.4 2.1h2.9l-.4 2H54l-.5 2.6h3.1l-.4 2.1h-5.4zm12.3 2H63l-1.5 8.8h-2.3l1.5-8.8h-2.1l.4-2h6.5zm5.4 8.9h-6l.6-3.4h2.3l-.2 1.3h1.4l.3-1.7-3.1-2.7.8-4.4h5.8l-.6 3.2h-2.1l.2-1.2h-1.5l-.2 1.4 3.2 2.7z"/><path fill="#ffb900" d="M11.2 5.5H2.8L0 20.9h6l1.8-10.2h2.4zm16.1 0h-2.5L24 10h1.7l-2 10.8-3.7 6.4 4.9 2.8 4.2-7.2 3.1-17.3zM33.2 0l-2.1 1.1L29.5 0l-2.2 1.1L25.9 0l-1 4.4h7.3zM12.4 5.5l-.8 4.5-.2.7h4.1l.2-.7H18l-.3 1.5h-6.4l-.8 4.1-.2 1.2-.7 4.1h11.2l.7-4.1.2-1.2.8-4.1.3-1.5.8-4.5zm4.3 11.3h-2.3l.2-1.2H17zM33.5 5.5l-.8 4.5-.2.7h4.1l.2-.7h2.3l-.3 1.5h-6.4l-.8 4.1-.2 1.2-.7 4.1h11.1l.5-2.5.3-1.5.2-1.2.8-4.1.3-1.5.8-4.5H33.5zm4.3 11.3h-2.3l.2-1.2H38z"/></svg>