<svg xmlns="http://www.w3.org/2000/svg" width="120" height="30" fill="none" viewBox="0 0 120 30"><g fill-rule="evenodd" clip-path="url(#clip0_39_30045)" clip-rule="evenodd"><path fill="#fff" d="M20.473.609A2.7 2.7 0 0 1 22.19 0h7.942c.607 0 1.167.198 1.62.533C33.08.16 34.533 0 36.05 0c1.556 0 3.207.284 4.536 1.263C41.914.284 43.566 0 45.12 0h9.89c1.423 0 2.926.238 4.19 1.028A2.72 2.72 0 0 1 61.332 0h7.942c1.09 0 2.032.64 2.468 1.565h7.421q.08 0 .157.005.129-.114.268-.223C80.936.3 82.637 0 84.236 0h9.89c1.13 0 2.313.15 3.384.609A2.7 2.7 0 0 1 99.228 0h7.942l.129.003h1.689l.129-.003h7.942a2.727 2.727 0 0 1 2.727 2.727v24.399a2.727 2.727 0 0 1-2.727 2.727H99.228c-.646 0-1.24-.225-1.707-.6-1.077.454-2.264.6-3.396.6h-9.889c-1.544 0-3.192-.271-4.521-1.23-1.33.959-2.978 1.23-4.522 1.23h-9.889c-1.422 0-2.932-.23-4.2-1.015a2.72 2.72 0 0 1-2.123 1.015H22.19c-.646 0-1.24-.225-1.707-.6-1.077.454-2.264.6-3.396.6H7.198c-1.581 0-3.272-.284-4.617-1.3C1.09 27.426.5 25.776.5 24.108v-4.582c0-.683.25-1.307.666-1.785C.7 16.868.5 15.889.5 14.907V5.82c0-1.667.576-3.326 2.051-4.473C3.898.3 5.6 0 7.198 0h9.89c1.13 0 2.313.15 3.384.609"/><path fill="#1e1e1e" d="M1.863 14.907c0 1.275.407 2.432 1.355 3.256a1.364 1.364 0 0 0-1.355 1.364v4.582c0 1.34.463 2.541 1.54 3.355 1.004.759 2.346 1.025 3.795 1.025h9.889c1.444 0 2.78-.264 3.784-1.017a1.364 1.364 0 0 0 1.319 1.017h36.79c.753 0 1.364-.61 1.364-1.364v-1.12c.25.56.632 1.057 1.164 1.459 1.004.759 2.346 1.025 3.795 1.025h9.89c1.448 0 2.79-.266 3.794-1.025q.425-.322.726-.72.301.398.726.72c1.005.759 2.346 1.025 3.796 1.025h9.889c1.444 0 2.78-.264 3.784-1.017a1.364 1.364 0 0 0 1.319 1.017h17.831c.753 0 1.363-.61 1.363-1.364V2.727c0-.753-.61-1.364-1.363-1.364h-17.83c-.64 0-1.178.441-1.324 1.036-1.002-.762-2.336-1.036-3.78-1.036h-9.888c-1.459 0-2.805.28-3.81 1.06q-.377.295-.656.648a1.36 1.36 0 0 0-.606-.142h-8.525v-.202c0-.753-.611-1.364-1.364-1.364h-7.942c-.753 0-1.364.61-1.364 1.364v.202h-.612a4 4 0 0 0-.537-.506c-1.005-.78-2.352-1.06-3.81-1.06h-9.889c-1.458 0-2.805.28-3.81 1.06q-.425.333-.725.74-.3-.407-.726-.74c-1.005-.78-2.352-1.06-3.81-1.06-1.764 0-3.354.231-4.708.735a1.36 1.36 0 0 0-1.21-.735H22.19c-.64 0-1.178.441-1.324 1.036-1.002-.762-2.336-1.036-3.78-1.036H7.199c-1.458 0-2.805.28-3.81 1.06-1.07.831-1.525 2.048-1.525 3.397z"/><path fill="url(#paint0_linear_39_30045)" d="M7.197 27.126h9.89c2.634 0 3.97-.993 3.97-3.017v-9.202c0-2.023-1.336-3.016-3.97-3.016h-5.842a.08.08 0 0 1-.077-.076V8.913c0-.038.039-.076.077-.076h1.794c.039 0 .077.038.077.076v1.413h7.942V5.82c0-2.062-1.337-3.092-3.971-3.092h-9.89c-2.634 0-3.97 1.03-3.97 3.092v9.088c0 2.061 1.336 3.092 3.97 3.092h5.842c.039 0 .077.038.077.077v2.901a.08.08 0 0 1-.077.077h-1.794a.08.08 0 0 1-.077-.077v-1.45H3.227v4.581c0 2.024 1.336 3.017 3.97 3.017m32.823 0h-7.94V8.913a.08.08 0 0 0-.077-.076h-1.794a.08.08 0 0 0-.077.076v18.213H22.19V2.728h7.942v1.565c1.337-1.03 3.322-1.565 5.919-1.565 2.634 0 3.97 1.03 3.97 3.092zM51.04 8.913v2.978h-1.947V8.913c0-.038.038-.076.076-.076h1.794c.039 0 .077.038.077.076m0 18.213h7.942V5.82c0-2.062-1.337-3.092-3.971-3.092h-9.89c-2.634 0-3.97 1.03-3.97 3.092v21.306h7.942V18h1.947zm24.154 0h-9.89c-2.634 0-3.97-.993-3.97-3.017V10.326h-1.947V4.293h1.947V2.728h7.942v1.565h9.889v6.033h-9.89v10.652c0 .039.039.077.077.077h1.833a.08.08 0 0 0 .076-.077v-9.087h7.904V24.11c0 2.024-1.337 3.017-3.971 3.017m9.042 0h9.89c2.634 0 3.97-.993 3.97-3.017v-8.82h-7.942v5.69a.08.08 0 0 1-.076.076h-1.794a.08.08 0 0 1-.077-.077V8.913c0-.038.038-.076.076-.076h1.795c.038 0 .076.038.076.076v4.124h7.942V5.82c0-2.062-1.336-3.092-3.97-3.092h-9.89c-2.634 0-3.97 1.03-3.97 3.092v18.29c0 2.023 1.336 3.016 3.97 3.016m24.881 0h7.942V2.728h-7.942v9.392h-1.947V2.728h-7.942v24.398h7.942v-9.393h1.947z"/><path fill="url(#paint1_radial_39_30045)" d="M7.197 27.126h9.89c2.634 0 3.97-.993 3.97-3.017v-9.202c0-2.023-1.336-3.016-3.97-3.016h-5.842a.08.08 0 0 1-.077-.076V8.913c0-.038.039-.076.077-.076h1.794c.039 0 .077.038.077.076v1.413h7.942V5.82c0-2.062-1.337-3.092-3.971-3.092h-9.89c-2.634 0-3.97 1.03-3.97 3.092v9.088c0 2.061 1.336 3.092 3.97 3.092h5.842c.039 0 .077.038.077.077v2.901a.08.08 0 0 1-.077.077h-1.794a.08.08 0 0 1-.077-.077v-1.45H3.227v4.581c0 2.024 1.336 3.017 3.97 3.017m32.823 0h-7.94V8.913a.08.08 0 0 0-.077-.076h-1.794a.08.08 0 0 0-.077.076v18.213H22.19V2.728h7.942v1.565c1.337-1.03 3.322-1.565 5.919-1.565 2.634 0 3.97 1.03 3.97 3.092zM51.04 8.913v2.978h-1.947V8.913c0-.038.038-.076.076-.076h1.794c.039 0 .077.038.077.076m0 18.213h7.942V5.82c0-2.062-1.337-3.092-3.971-3.092h-9.89c-2.634 0-3.97 1.03-3.97 3.092v21.306h7.942V18h1.947zm24.154 0h-9.89c-2.634 0-3.97-.993-3.97-3.017V10.326h-1.947V4.293h1.947V2.728h7.942v1.565h9.889v6.033h-9.89v10.652c0 .039.039.077.077.077h1.833a.08.08 0 0 0 .076-.077v-9.087h7.904V24.11c0 2.024-1.337 3.017-3.971 3.017m9.042 0h9.89c2.634 0 3.97-.993 3.97-3.017v-8.82h-7.942v5.69a.08.08 0 0 1-.076.076h-1.794a.08.08 0 0 1-.077-.077V8.913c0-.038.038-.076.076-.076h1.795c.038 0 .076.038.076.076v4.124h7.942V5.82c0-2.062-1.336-3.092-3.97-3.092h-9.89c-2.634 0-3.97 1.03-3.97 3.092v18.29c0 2.023 1.336 3.016 3.97 3.016m24.881 0h7.942V2.728h-7.942v9.392h-1.947V2.728h-7.942v24.398h7.942v-9.393h1.947z"/></g><defs><radialGradient id="paint1_radial_39_30045" cx="0" cy="0" r="1" gradientTransform="matrix(0 52.5 -57.9545 0 60.265 2.58)" gradientUnits="userSpaceOnUse"><stop stop-color="#ffdf28"/><stop offset="1" stop-color="#ffdf28" stop-opacity="0"/></radialGradient><linearGradient id="paint0_linear_39_30045" x1="60.265" x2="60.265" y1="2.58" y2="34.626" gradientUnits="userSpaceOnUse"><stop stop-color="#ffcf34"/><stop offset="1" stop-color="#feba15"/></linearGradient><clipPath id="clip0_39_30045"><path fill="#fff" d="M.5 0h119.286v29.853H.5z"/></clipPath></defs></svg>