<svg xmlns="http://www.w3.org/2000/svg" width="102" height="24" fill="none" viewBox="0 0 102 24"><g clip-path="url(#clip0_3215_20975)"><path fill="url(#paint0_linear_3215_20975)" d="M99.404 10.863c-.775-.532-2.29-1.222-4.642-2.116-1.217-.478-1.727-.806-1.944-.997-.34-.3-.34-.526-.34-.601 0-.294 0-.656.904-.656.632 0 1.8.321 3.779 1.85l.51.397 4.01-5.183-.449-.403c-2.386-2.13-5.145-3.188-8.204-3.113-2.25.048-4.16.758-5.661 2.123-1.523 1.386-2.298 3.134-2.298 5.203 0 1.161.197 2.213.598 3.12a5.9 5.9 0 0 0 1.788 2.315c.727.567 1.454 1.045 2.161 1.4.694.355 1.564.71 2.583 1.045 1.387.457 1.87.75 2.04.88.21.164.298.356.298.615 0 .212-.075.369-.251.526-.184.164-.524.252-.993.252-1.543 0-3.079-.764-4.553-2.26l-.503-.512-3.881 4.766L77.443.341h-6.531L63.489 20.86V9.757H53.457v6.05h3.208v.97a7.3 7.3 0 0 1-2.63.497c-1.461 0-2.576-.477-3.405-1.46-.857-1.018-1.271-2.247-1.271-3.763 0-1.645.421-2.895 1.291-3.83.863-.915 1.883-1.366 3.133-1.366 1.7 0 3.147.608 4.439 1.871l.414.41 5.112-4.302-.408-.498c-1.135-1.38-2.59-2.458-4.323-3.21C57.291.383 55.53 0 53.783 0c-3.629 0-6.552 1.154-8.68 3.434-2.113 2.267-3.187 5.162-3.187 8.61 0 1.905.313 3.605.925 5.1h-9.122v-1.809h4.99V8.917h-4.99V6.89h8.904V.341H26.74v23.352h16.537v-5.6a10.1 10.1 0 0 0 2.093 2.712c2.277 2.102 5.193 3.168 8.66 3.168 1.705 0 3.411-.267 5.063-.792 1.658-.526 3.045-1.202 4.132-2.008l.204-.15-.965 2.67h7.544l1.115-3.571h6.104l1.114 3.57h7.518l-1.163-3.215c2.359 2.335 5.173 3.53 8.374 3.53 1.04 0 2.06-.13 3.031-.396.98-.267 1.924-.69 2.821-1.256.938-.601 1.699-1.448 2.25-2.534.55-1.072.829-2.335.829-3.762 0-2.267-.877-4.015-2.596-5.196m-23.53 3.025h-3.48l1.74-5.599z"/><path fill="#ff2b39" d="M27.452.348 18.984 23.68h-7.348L18.8.349z"/><path fill="#ff2b39" d="m11.596.348 6.966 23.331h-6.94l-2.344-8.767-3.093-5.1L2.475.348z"/><path fill="url(#paint1_linear_3215_20975)" d="m23.238 12.017-8.577 3.059-3.045 8.617 7.367-.014z"/><path fill="url(#paint2_linear_3215_20975)" d="M11.616.348 8.578 8.965l-2.393.847L2.475.348z"/><path fill="#01c9ff" d="M-.019 11.792 8.56 8.74 11.597.124l3.038 8.616 8.578 3.052-8.578 3.052-3.038 8.617-3.038-8.617z"/><path fill="url(#paint3_linear_3215_20975)" d="M11.597 23.468V11.793H23.22l-8.578 3.058z"/><path fill="url(#paint4_linear_3215_20975)" d="M11.618.124v11.675H-.005L8.573 8.74z"/></g><defs><linearGradient id="paint0_linear_3215_20975" x1="26.739" x2="102" y1="12.003" y2="12.003" gradientUnits="userSpaceOnUse"><stop offset=".175" stop-color="#ff2b39"/><stop offset=".8" stop-color="#00c9ff"/></linearGradient><linearGradient id="paint1_linear_3215_20975" x1="14.688" x2="18.264" y1="10.993" y2="19.865" gradientUnits="userSpaceOnUse"><stop stop-opacity="0"/><stop offset="1" stop-color="#ff2b39"/></linearGradient><linearGradient id="paint2_linear_3215_20975" x1="16.856" x2="2.036" y1="7.388" y2="3.122" gradientUnits="userSpaceOnUse"><stop offset=".15" stop-opacity="0"/><stop offset=".775" stop-color="#ff2b39"/></linearGradient><linearGradient id="paint3_linear_3215_20975" x1="9.973" x2="17.505" y1="9.963" y2="17.651" gradientUnits="userSpaceOnUse"><stop offset=".21" stop-color="#fff501"/><stop offset="1" stop-color="#01c9ff"/></linearGradient><linearGradient id="paint4_linear_3215_20975" x1="13.242" x2="4.803" y1="13.629" y2="5.311" gradientUnits="userSpaceOnUse"><stop offset=".265" stop-color="#01c9ff"/><stop offset=".832" stop-color="#f3f30d"/></linearGradient><clipPath id="clip0_3215_20975"><path fill="#fff" d="M0 0h102v24H0z"/></clipPath></defs></svg>