<svg xmlns="http://www.w3.org/2000/svg" width="110" height="45" fill="none" viewBox="0 0 110 45"><path fill="#fff" d="m26.134 22.613-6.151 15.654h-4.65l-.59-10.156-3.814 10.156H6.304L5 22.612h4.207l.197 11.194 4.06-11.193h4.452l.616 11.193 3.64-11.193z"/><path fill="#54fcab" d="m31.76 22.512-1.22 7.877-1.22 7.878h-4.072l2.44-15.756z"/><path fill="url(#paint0_linear_18456_246259)" d="m31.76 22.512-1.22 7.877-1.22 7.878h-4.072l2.44-15.756z"/><path fill="#fff" d="M42.614 22.444q2.066 0 3.247 1.319 1.18 1.319 1.181 3.675 0 .786-.148 1.683l-1.426 9.146h-4.183l1.329-8.5q.073-.479.073-.842 0-1.179-.59-1.824-.565-.645-1.6-.645-1.23 0-2.066.87-.837.87-1.082 2.44v-.14l-1.329 8.64h-4.207l2.411-15.653h4.207l-.32 2.104a6.15 6.15 0 0 1 1.969-1.656 5.4 5.4 0 0 1 2.534-.617m16.651 0q2.018 0 3.174 1.319 1.18 1.319 1.181 3.675 0 .786-.148 1.683l-1.427 9.146h-4.182l1.328-8.5q.074-.479.074-.842 0-1.179-.59-1.824-.565-.645-1.6-.645-1.23 0-2.066.87t-1.083 2.44v-.056l-1.328 8.557h-4.207l3.223-20.76h4.207l-1.107 7.182a5.8 5.8 0 0 1 1.993-1.628 5.44 5.44 0 0 1 2.558-.617m14.265-.056q2.657 0 4.208 1.655 1.575 1.628 1.574 4.46 0 .927-.123 1.656-.098.645-.295 1.375h-9.521q-.025.168-.025.533 0 1.235.59 1.88.592.645 1.575.645 1.575 0 2.411-1.515h4.478a8.5 8.5 0 0 1-2.879 3.9q-1.992 1.514-4.477 1.514-2.657 0-4.257-1.683-1.575-1.684-1.574-4.573 0-.87.148-1.795.369-2.442 1.525-4.265t2.878-2.805a7.47 7.47 0 0 1 3.765-.982m1.526 6.705q.05-.393.05-.533 0-1.123-.616-1.711-.615-.617-1.624-.617-1.082 0-1.919.757-.81.73-1.18 2.104zm11.248-3.647q.96-1.403 2.19-2.188 1.254-.814 2.607-.814l-.787 5.078h-1.156q-1.575 0-2.485.786-.911.756-1.206 2.693l-1.132 7.266H80.13l2.411-15.655h4.207zm10.621 13.045q-1.77 0-3.149-.813-1.377-.815-2.14-2.3-.738-1.488-.738-3.451 0-2.666 1.107-4.854t3.05-3.422q1.945-1.263 4.33-1.263 1.772 0 3.15.842a5.5 5.5 0 0 1 2.165 2.3q.762 1.487.763 3.45 0 2.694-1.132 4.882-1.107 2.16-3.076 3.395-1.943 1.234-4.33 1.234m.59-4.124q1.035 0 1.846-.701.837-.73 1.279-1.852a6.3 6.3 0 0 0 .468-2.384q0-1.404-.664-2.16-.664-.758-1.673-.758-1.059 0-1.87.73-.788.7-1.23 1.851a6.7 6.7 0 0 0-.443 2.413q0 1.374.64 2.132.639.73 1.648.73"/><g filter="url(#filter0_d_18456_246259)"><g fill-rule="evenodd" clip-rule="evenodd" filter="url(#filter1_d_18456_246259)"><path fill="#54fcab" d="m27.613 17.72-.224 2.989c-.016.21.171.354.338.26 1.182-.662 4.885-3.094 6.762-8.44.086-.244-.145-.466-.343-.327-1.108.776-3.531 2.38-5.028 2.687 0 0 .959-.666 1.532-1.689a.31.31 0 0 0-.01-.319l-2.094-3.017c-.124-.178-.378-.104-.423.124l-.652 3.315-3.058 2.67c-.153.133-.122.403.055.475z"/><path fill="url(#paint1_linear_18456_246259)" d="m27.613 17.72-.224 2.989c-.016.21.171.354.338.26 1.182-.662 4.885-3.094 6.762-8.44.086-.244-.145-.466-.343-.327-1.108.776-3.531 2.38-5.028 2.687 0 0 .959-.666 1.532-1.689a.31.31 0 0 0-.01-.319l-2.094-3.017c-.124-.178-.378-.104-.423.124l-.652 3.315-3.058 2.67c-.153.133-.122.403.055.475z"/><path fill="#54fcab" d="M33.021 16.543c-.194.27-.61.826-.996 1.166a.145.145 0 0 0 .022.237l2.035 1.278c.123.076.288-.015.267-.148-.094-.61-.367-1.884-1.057-2.552-.077-.075-.21-.067-.271.019"/><path fill="url(#paint2_linear_18456_246259)" d="M33.021 16.543c-.194.27-.61.826-.996 1.166a.145.145 0 0 0 .022.237l2.035 1.278c.123.076.288-.015.267-.148-.094-.61-.367-1.884-1.057-2.552-.077-.075-.21-.067-.271.019"/></g></g><defs><linearGradient id="paint0_linear_18456_246259" x1="55.232" x2="55.232" y1="35.061" y2="17.507" gradientUnits="userSpaceOnUse"><stop stop-color="#ff9500"/><stop offset="1" stop-color="#feed2d"/></linearGradient><linearGradient id="paint1_linear_18456_246259" x1="29.411" x2="29.411" y1="19.163" y2="9.765" gradientUnits="userSpaceOnUse"><stop stop-color="#ff9500"/><stop offset="1" stop-color="#feed2d"/></linearGradient><linearGradient id="paint2_linear_18456_246259" x1="33.162" x2="33.162" y1="18.797" y2="16.473" gradientUnits="userSpaceOnUse"><stop stop-color="#ff9500"/><stop offset="1" stop-color="#feed2d"/></linearGradient><filter id="filter0_d_18456_246259" width="17.663" height="17.663" x="20.607" y="9.252" color-interpolation-filters="sRGB" filterUnits="userSpaceOnUse"><feFlood flood-opacity="0" result="BackgroundImageFix"/><feColorMatrix in="SourceAlpha" result="hardAlpha" values="0 0 0 0 0 0 0 0 0 0 0 0 0 0 0 0 0 0 127 0"/><feOffset dy="2.681"/><feGaussianBlur stdDeviation="1.34"/><feComposite in2="hardAlpha" operator="out"/><feColorMatrix values="0 0 0 0 0 0 0 0 0 0 0 0 0 0 0 0 0 0 0.25 0"/><feBlend in2="BackgroundImageFix" result="effect1_dropShadow_18456_246259"/><feBlend in="SourceGraphic" in2="effect1_dropShadow_18456_246259" result="shape"/></filter><filter id="filter1_d_18456_246259" width="28.958" height="29.999" x="14.932" y=".382" color-interpolation-filters="sRGB" filterUnits="userSpaceOnUse"><feFlood flood-opacity="0" result="BackgroundImageFix"/><feColorMatrix in="SourceAlpha" result="hardAlpha" values="0 0 0 0 0 0 0 0 0 0 0 0 0 0 0 0 0 0 127 0"/><feOffset/><feGaussianBlur stdDeviation="4.691"/><feComposite in2="hardAlpha" operator="out"/><feColorMatrix values="0 0 0 0 1 0 0 0 0 0.909804 0 0 0 0 0.203922 0 0 0 0.4 0"/><feBlend in2="BackgroundImageFix" result="effect1_dropShadow_18456_246259"/><feBlend in="SourceGraphic" in2="effect1_dropShadow_18456_246259" result="shape"/></filter></defs></svg>