<svg xmlns="http://www.w3.org/2000/svg" width="102" height="28" fill="none" viewBox="0 0 102 28"><g id="Frame 1948757390"><path id="Rectangle 240648455" fill="#000" d="M3 5h18v18H3z"/><path id="Vector" fill="#ef013d" d="M21.524 2H2.474A2.474 2.474 0 0 0 0 4.473v19.054A2.474 2.474 0 0 0 2.473 26h19.05a2.474 2.474 0 0 0 2.474-2.473V4.473A2.474 2.474 0 0 0 21.524 2m-2.327 8.626a.973.973 0 0 1-.974.973h-2.85a.974.974 0 0 0-.974.974v2.852a.974.974 0 0 1-.974.974h-2.852a.973.973 0 0 0-.974.974v2.852a.974.974 0 0 1-.973.974H5.774a.975.975 0 0 1-.974-.974v-2.852c0-.538.437-.974.974-.974h2.852a.973.973 0 0 0 .973-.974v-2.852c0-.537.436-.974.974-.974h2.852a.974.974 0 0 0 .974-.973V7.775c0-.539.435-.974.974-.974h2.85c.538 0 .974.435.974.973z"/><path id="Union" fill="#fff" fill-rule="evenodd" d="M47.316 2h3.08v7.84h.336c.756-1.204 1.988-2.436 4.564-2.436 3.556 0 6.412 3.024 6.412 7.28s-2.856 7.308-6.412 7.308c-2.576 0-3.808-1.232-4.564-2.464h-.392V21.6h-3.024zm7.168 8.148c-2.436 0-4.088 1.708-4.088 4.536s1.652 4.564 4.088 4.564c2.38 0 4.144-1.652 4.144-4.564s-1.764-4.536-4.144-4.536m26.108-2.352h-3.668v2.66h3.668v8.624c0 1.484 1.064 2.52 2.52 2.52h3.696v-2.66h-2.38c-.504 0-.756-.252-.756-.812v-7.672h3.92v-2.66h-2.835c-.903 0-1.685.143-2.085.233l-.09-.157c.52-.608.79-.937.935-1.33.155-.42.155-.877.155-1.791V3.26h-3.08zm8.622 3.778c0-2.576 2.408-4.172 5.404-4.172 2.828 0 4.76 1.176 6.776 3.36l-2.24 1.708c-1.288-1.624-2.828-2.548-4.564-2.548-1.428 0-2.352.616-2.352 1.624 0 1.176 1.176 1.372 2.66 1.568l.812.112c3.78.476 5.824 1.428 5.824 4.144s-2.548 4.62-6.16 4.62c-3.864 0-6.02-2.128-7.196-4.116l2.576-1.512c.868 1.932 2.688 3.052 4.704 3.052 1.708 0 3.052-.756 3.052-1.96 0-1.192-1.494-1.388-2.936-1.577l-.144-.019-.812-.112c-3.5-.448-5.404-1.568-5.404-4.172M69.867 7.375c-4.032 0-6.916 3.08-6.916 7.196 0 4.228 2.968 7.42 7.168 7.42 3.5 0 5.18-1.904 6.188-3.472l-2.548-1.456c-.616 1.204-1.708 2.268-3.696 2.268-2.24 0-3.78-1.484-3.92-3.64h10.444v-1.344c0-4.088-2.688-6.972-6.72-6.972m3.556 6.02h-7.28c.252-2.072 1.512-3.36 3.696-3.36 2.128 0 3.444 1.288 3.584 3.36M45.756 7.797h-3.332l-3.864 12.74h-.336l-3.892-12.74H31L35.452 21.6h2.66l-1.995 5.8h3.33z" clip-rule="evenodd"/></g></svg>