<svg xmlns="http://www.w3.org/2000/svg" xml:space="preserve" id="Capa_1" width="512" height="512" viewBox="0 0 512 512"><path d="M512 402.282c0 16.716-13.55 30.267-30.265 30.267H30.265C13.55 432.549 0 418.996 0 402.282V109.717c0-16.716 13.55-30.266 30.265-30.266h451.469c16.716 0 30.265 13.551 30.265 30.266z" style="fill:#e7e8e3"/><path d="M21.517 402.282V109.717c0-16.716 13.552-30.266 30.267-30.266h-21.52C13.55 79.451 0 93.003 0 109.717v292.565c0 16.716 13.55 30.267 30.265 30.267h21.52c-16.715 0-30.268-13.553-30.268-30.267" style="opacity:.15;fill:#202121"/><path d="M146.165 179.389h38.042c14.009-.227 29.384 3.418 29.384 20.389 0 7.289-4.329 13.211-10.706 16.4 8.654 2.505 14.011 10.024 14.011 19.249 0 19.363-14.239 25.284-31.665 25.284h-39.066zm21.183 32.006h16.404c3.643 0 8.654-1.937 8.654-7.745 0-5.923-4.215-7.858-8.654-7.858h-16.404zm0 32.346h16.972c6.719 0 11.389-2.391 11.389-9.111 0-7.176-5.011-9.568-11.389-9.568h-16.972zm83.139-64.352h21.524l30.411 81.322h-22.096l-5.011-14.578h-28.36l-5.126 14.578h-21.754zm1.365 51.028h18.45l-8.998-28.474h-.226zm56.484-51.028h21.757l28.246 50.115h.226v-50.115H378.5v81.322h-21.757l-28.246-50.682h-.226v50.682h-19.935zm84.621 0h21.185v31.209l26.765-31.209h26.311l-30.07 32.006 33.829 49.317h-26.309l-21.869-34.167-8.656 9.112v25.056h-21.185z" style="fill:#006e90"/><path d="M92.893 290.217H76.184v43.452H61.598v-43.452H44.891v-12.55h48.002zm6.431-12.549h28.55c9.883 0 19.608 4.472 19.608 15.764 0 6.04-2.899 11.766-8.783 14.042v.155c5.96 1.414 7.684 8.078 8.156 13.413.157 2.352.394 10.587 2.354 12.629h-14.435c-1.254-1.882-1.489-7.373-1.646-8.941-.394-5.648-1.332-11.451-8.156-11.451h-11.059v20.392H99.324zm14.592 24.313h12.232c4.393 0 6.746-2.352 6.746-6.586 0-4.156-3.294-6.042-7.372-6.042h-11.607zm57.253-24.313h14.824l20.941 56.002h-15.218l-3.448-10.041h-19.531l-3.528 10.041h-14.983zm.942 35.138h12.707l-6.197-19.611h-.157zm38.904-35.138h14.98l19.453 34.511h.159v-34.511h13.726v56.002h-14.98l-19.455-34.902h-.157v34.902h-13.726zm69.65 37.177c.315 6.588 4.393 8.704 10.59 8.704 4.391 0 8.941-1.567 8.941-5.724 0-4.941-8.001-5.882-16.078-8.159-8.001-2.274-16.394-5.88-16.394-16.157 0-12.235 12.315-17.02 22.826-17.02 11.137 0 22.352 5.41 22.432 18.039h-14.589c.235-5.098-4.55-6.745-9.021-6.745-3.137 0-7.059 1.097-7.059 4.785 0 4.313 8.078 5.097 16.235 7.373 8.081 2.274 16.237 6.038 16.237 16.156 0 14.198-12.08 18.748-24.393 18.748-12.863 0-24.234-5.649-24.316-20.001zm40.943-37.177h41.258v11.686h-26.667v11.452h23.059v11.292h-23.059v21.572h-14.591zm47.927 0h44.629v11.686h-30.041v9.805h27.452v11.294h-27.452v10.668h30.826v12.548h-45.413zm53.728 0h28.55c9.883 0 19.606 4.472 19.606 15.764 0 6.04-2.9 11.766-8.783 14.042v.155c5.96 1.414 7.687 8.078 8.156 13.413.159 2.352.392 10.587 2.354 12.629h-14.433c-1.257-1.882-1.489-7.373-1.647-8.941-.392-5.648-1.332-11.451-8.156-11.451h-11.058v20.392h-14.589zm14.589 24.313h12.237c4.391 0 6.742-2.352 6.742-6.586 0-4.156-3.291-6.042-7.372-6.042h-11.607z" style="fill:#66cde7"/><path d="M44.889 179.38h88.3v17.682h-88.3zm0 63.65h88.3v17.681h-88.3zm0-31.83h88.3v17.682h-88.3z" style="fill:#d92b2b"/></svg>