<svg xmlns="http://www.w3.org/2000/svg" width="137" height="46" fill="none" viewBox="0 0 137 46"><path fill="#00afd8" fill-rule="evenodd" d="M68.816 9.154q1.388 0 2.782-.007c1.694 2.89 3.292 5.834 5.013 8.71-.019-2.906-.004-5.808-.016-8.71q1.175.006 2.345.007c.019 4.137-.004 8.274.015 12.41a599 599 0 0 1-2.69-.018c-1.664-2.97-3.38-5.913-5.093-8.857.038 2.959.004 5.913.034 8.872H68.8c.02-4.133-.003-8.27.016-12.407m12.605 0 2.619-.003c-.011 1.738-.008 3.482-.008 5.22 1.595-1.757 3.243-3.466 4.865-5.201q1.674-.023 3.349-.023c-1.682 1.679-3.643 3.237-5.135 5.07 1.706 2.447 3.536 4.818 5.29 7.235-1.076-.068-2.405.132-3.413-.174-1.34-1.704-2.497-3.568-3.753-5.333-.438.418-.875.84-1.313 1.257a221 221 0 0 0-.004 4.227q-1.252-.006-2.497-.007c.004-4.088-.003-8.18 0-12.268M59.54 16.837c.435-1.231.872-2.462 1.287-3.7l.438-1.299c.556 1.66 1.054 3.339 1.61 4.999zM62.7 9.15c-.97-.003-1.957-.045-2.92.05-1.586 4.012-2.927 8.175-4.422 12.229q1.335-.008 2.671-.026.407-1.237.807-2.473c1.572-.008 3.14-.008 4.712-.015q.364 1.324.74 2.65 1.392-.008 2.793-.004c-1.5-4.122-2.928-8.273-4.381-12.41M50.205 19.167c-1.329.388-2.874.185-4.251.207q-.013-1.727-.008-3.448c1.53.06 3.528-.218 4.91.523.75.81.426 2.323-.651 2.718m.007-7.735c1.077.357.974 2.093-.053 2.409-1.336.331-2.832.188-4.202.2a308 308 0 0 1-.01-2.737c1.395.034 2.895-.159 4.265.128m1.865 3.429c1.139-.937 1.576-1.623 1.363-3.15-.22-1.732-1.941-2.523-3.524-2.651-2.144-.124-4.302-.011-6.452-.049.05 4.137.02 8.274.02 12.41 2.252-.025 4.513.065 6.762-.037 1.005-.041 1.911-.346 2.566-1.13 1.43-1.576 1.305-4.358-.735-5.393m48.523 9.953c1.1.745 1.347 1.829 1.64 3.037q-1.215.007-2.432-.003c-.385-.652-.575-1.325-1.355-1.608-.833-.245-1.85-.282-2.68-.004-.874.38-1.29 1.363-.696 2.172 1.9 1.028 4.385 1.013 6.264 2.067 1.314.816 1.409 2.469 1.082 3.82-.408 1.314-1.546 2.086-2.832 2.436-2.04.53-4.49.316-6.2-.998-.978-.775-1.093-1.806-1.317-2.943q1.263-.008 2.52.007c.3.629.403 1.46 1.134 1.747 1.077.274 2.424.387 3.486-.008.918-.44 1.264-1.652.35-2.28-1.739-.987-4.639-.735-6.283-2.09-1.652-1.45-1.134-4.611.853-5.571 1.842-1.009 4.734-1.028 6.466.219m-57.558-.67c3.429-.076 6.862-.02 10.295-.03q-.001 1.095.004 2.19a319 319 0 0 0-3.799-.019c-.003 3.43.004 6.858 0 10.287h-2.729c-.003-3.429 0-6.858 0-10.29q-1.906.009-3.813.007c.015-.716.026-1.43.042-2.146m37.096-.031 2.771-.008c1.656 2.888 3.266 5.801 4.972 8.658.044-2.883.003-5.77.022-8.654h2.36q.01 6.232.004 12.463-1.325-.001-2.642.004c-1.709-2.955-3.38-5.928-5.115-8.868-.05 2.955-.03 5.91-.011 8.864h-2.371c.026-4.151.003-8.304.01-12.46m24.359 0c2.95-.011 5.895 0 8.845-.008.012.73.019 1.461.03 2.191-2.119-.015-4.239-.007-6.355-.01l-.008 2.849q2.751.006 5.504-.004l-.004 2.108a148 148 0 0 0-5.481-.011 392 392 0 0 0-.011 5.198q-1.267 0-2.528.003c.019-4.106.001-8.21.008-12.316m10.748 0c3.041-.008 6.086 0 9.127-.008l.007 2.188a997 997 0 0 0-6.652 0q.005 1.353.003 2.706 3.051-.025 6.102-.011v2.096c-2.037 0-4.073-.007-6.109.004q.006 1.617 0 3.233c2.318-.01 4.635-.007 6.953-.007l.008 2.258h-9.45c.015-4.151 0-8.307.011-12.46m-53.721 5.496c-1.317.237-2.737.071-4.076.101.003-1.136.007-2.277.007-3.414 1.264.011 2.592-.116 3.837.102 1.138.594 1.484 2.553.232 3.211m2.767 2.149c-.308-.433-.823-.738-1.241-1.065 1.953-.896 2.432-3.294 1.271-4.999-.765-1.19-2.036-1.476-3.372-1.554-2.002-.087-4.012-.004-6.017-.035-.065 4.156.015 8.312-.046 12.467h2.588a217 217 0 0 1-.015-4.912c1.172.136 3.62-.452 4.32.708.406 1.287.197 2.853.335 4.204 1.004-.003 2.009 0 3.014.023-.834-1.604-.095-3.267-.837-4.837m69.177-2.115c-1.305.169-2.66.052-3.977.067a485 485 0 0 1 0-3.41c1.298.015 2.786-.173 4.031.237 1.035.55 1.213 2.71-.054 3.106m2.881 2.334c-.19-.67-.856-1.001-1.362-1.423.555-.406 1.161-.72 1.488-1.344.78-1.48.259-3.531-1.165-4.446-1.111-.666-2.31-.749-3.581-.756-1.675 0-3.345.015-5.02.007 0 4.137.019 8.278-.012 12.414l2.524-.01a262 262 0 0 1-.008-4.94c1.229.099 3.136-.293 4.16.471.689 1.239.331 3.072.605 4.472 1.009 0 2.014.008 3.022.038-.67-1.48-.228-2.982-.651-4.483m-65.474-.147c.59-1.559 1.028-3.174 1.678-4.71.826 1.39 1.05 3.204 1.648 4.713q-1.665-.004-3.326-.003m3.086-7.736c-.913.004-1.838-.03-2.747.056-.32.347-.454.878-.629 1.31-1.278 3.716-2.568 7.428-3.931 11.116q1.342-.005 2.684-.004.428-1.268.867-2.537 2.34-.005 4.681 0l.72 2.534 2.797.007c-1.53-4.144-2.9-8.341-4.442-12.482M4 17.003c2.212.021 4.424-.006 6.633.016l.005 1.57-1.169.024c-.01 3.962-.005 7.92-.002 11.882l1.163.017.008 1.469c-2.211.024-4.426-.003-6.638.016q.004-.76.003-1.523.614.019 1.224.035c.005-3.973.002-7.945.002-11.918l-1.226.016q0-.802-.003-1.604m10.23.03c2.188-.066 4.383.007 6.573-.03l.003 1.602-1.123-.011c-.016 3.972.01 7.945-.016 11.917l1.139-.04V32a669 669 0 0 0-6.597-.003q0-.747-.003-1.494.563-.004 1.125-.005c.008-3.962-.008-7.926.008-11.888q-.562-.006-1.125-.01c-.006-.523-.022-1.048.016-1.568m10.07-.022c2.234-.006 4.465.01 6.696-.011l.002 1.607c-.395-.002-.787-.008-1.182-.01 0 3.97-.003 7.94 0 11.912L31 30.477 30.995 32a554 554 0 0 0-6.696-.003l-.008-1.515 1.24.024c-.016-3.972-.002-7.942-.008-11.912q-.615.004-1.23.013 0-.798.006-1.596M2 33c10.332.009 20.665.002 30.997.004q0 .498.003.996c-10.333-.005-20.665-.002-30.997-.002Q1.999 33.5 2 33" clip-rule="evenodd"/><path fill="#26505d" fill-rule="evenodd" d="M.005 36.002q17.5-.005 34.995 0v.996c-11.666 0-23.334-.007-35 .002q.005-.499.005-.998M17.448 5c5.196 2.177 10.344 4.483 15.535 6.674.028 1.441.013 2.882.013 4.326-10.322-.005-20.646-.003-30.97-.003-.018-1.43.005-2.857-.026-4.287C7.14 9.46 12.286 7.199 17.448 5" clip-rule="evenodd"/></svg>