<svg xmlns="http://www.w3.org/2000/svg" width="2500" height="1154" fill="none" viewBox="0.004 -0.187 65.01 30.504"><g fill="#000"><path d="M60.824 6.42c0-1.199.95-2.198 2.088-2.198 1.152 0 2.102.985 2.088 2.198 0 1.2-.95 2.198-2.088 2.198s-2.088-.999-2.088-2.198m-4.244 9.635c-1.098-1.156-2.142-1.67-3.416-1.67-2.44 0-4.366 2.127-4.352 4.839v.042c0 2.698 1.98 4.896 4.406 4.896 1.152 0 2.142-.442 3.132-1.413l2.711 2.755c-1.68 1.741-3.592 2.598-5.884 2.598-4.515 0-8.189-3.954-8.189-8.793v-.043c0-4.853 3.674-8.792 8.216-8.792 2.888 0 4.719 1.356 5.993 2.683z"/><path fill-rule="evenodd" d="M42.968 11.759c0 1.498-.502 3.011-1.586 4.167 1.559 1.142 2.25 3.083 2.237 5.067 0 3.769-1.925 6.752-7.511 6.752h-7.552V5.378h7.416c5.233 0 6.996 2.884 6.996 6.38zm-6.915-2.413h-3.687v4.868h3.918c2.06 0 2.549-1.27 2.549-2.455 0-1.228-.407-2.413-2.78-2.413M32.38 23.791h3.85c2.726 0 3.282-1.384 3.309-2.783 0-1.927-.881-2.826-3.24-2.826H32.38z" clip-rule="evenodd"/><path d="M61.027 10.445h3.81V27.76h-3.81z"/></g><path fill="#ef3942" d="M.004 26.972c.048 1.485 1.103 2.751 2.51 2.988.191.033.383.05.575.033a2.87 2.87 0 0 0 2.061-.995 3.18 3.18 0 0 0 .783-2.245c0-2.262 1.23-3.798 2.909-5.537 1.758-1.367 4.267-3.038 7.8-5.114 4.394-2.465 7.255-5.385 7.878-7.765l.016-.067q.12-.456.096-.912c-.048-1.485-1.103-2.751-2.51-2.987-.191-.034-.383-.05-.575-.034a2.87 2.87 0 0 0-2.061.996 3.18 3.18 0 0 0-.783 2.245c0 2.38-1.359 3.966-3.197 5.806-3.915 3.224-7.527 4.844-7.527 4.844C3.584 20.694.723 23.614.1 25.994l-.016.068a3.7 3.7 0 0 0-.08.911z"/><path fill="#0c9647" d="M17.712 17.452s3.196.895 2.19 5.638c-.049.253-.08.506-.049.776.112 1.401 1.279 2.43 2.605 2.313 1.327-.118 2.302-1.35 2.19-2.752-.224-3.291-6.105-7.325-6.904-7.224 0 0-.464.017-.464.641 0 .507.432.608.432.608"/><path fill="#fdd700" d="M17.179 18.798s2.094.59 1.438 3.68c0 0-.687 2.92-5.114 3.68-5.002.877-4.922-1.064-4.922-1.064-.048-.962-.384-2.127 4.587-5.3 0 0 2.509-1.62 4.011-.996"/><path fill="#2c70b8" d="M4.655 4.658c.287 4.22 6.009 9.266 9.429 11.224.927.54 2.078.422 2.413.287 1.566-.76-.112-1.4-.112-1.4s-5.386-1.52-3.708-9.52q.144-.634.096-1.317C12.582 1.569 10.616-.187 8.378.016 6.125.218 4.463 2.295 4.655 4.658"/></svg>