<svg xmlns="http://www.w3.org/2000/svg" xml:space="preserve" id="Layer_1" width="375" height="346.5" x="0" y="0" viewBox="0 0 375 346.5"><g id="Layer_2_1_"><path id="Layer_1-2" d="M102.8 172c-.8 13.9 9.9 25.8 23.8 26.6h1.5c14 0 25.3-11.3 25.2-25.3 0-14-11.3-25.3-25.3-25.2-13.4 0-24.5 10.5-25.2 23.9m-94.2-6.5a8.17 8.17 0 1 0 7.7 8.6c.3-4.5-3.2-8.3-7.7-8.6m92.6-140.1c4-2 5.6-7 3.6-11s-7-5.6-11-3.6-5.6 6.9-3.6 10.9c2 4.1 6.9 5.8 11 3.7-.1 0 0 0 0 0m25.6 44.7c6.2-3.1 8.7-10.7 5.6-16.9s-10.7-8.7-16.9-5.6-8.7 10.7-5.6 16.9 10.7 8.7 16.9 5.6m-86.2 30.7c4.8 3.1 11.2 1.8 14.4-3 3.1-4.8 1.8-11.2-3-14.4-4.8-3.1-11.2-1.8-14.4 3s-1.8 11.3 3 14.4M55.9 161c-7-.4-12.9 4.9-13.3 11.9s4.9 12.9 11.9 13.3 12.9-4.9 13.3-11.9c.4-6.9-4.9-12.9-11.9-13.3M42 245.7a10.43 10.43 0 0 0 9.4 18.6c5.1-2.6 7.2-8.8 4.6-14-2.6-5.1-8.9-7.2-14-4.6m49-110.8c6.9 4.5 16.1 2.6 20.5-4.3 4.5-6.9 2.6-16.1-4.3-20.5-6.9-4.5-16.1-2.6-20.5 4.3-4.5 6.8-2.6 16 4.3 20.5m155.5-65.8c5.8 3.8 13.7 2.2 17.5-3.6s2.2-13.7-3.6-17.5-13.7-2.2-17.5 3.6a12.5 12.5 0 0 0 3.6 17.5m25.8-44.5c3.8 2.5 8.8 1.4 11.3-2.4s1.4-8.8-2.4-11.3a8.2 8.2 0 0 0-11.3 2.3 8.4 8.4 0 0 0 2.4 11.4m-23.9 123.3a25.2 25.2 0 0 0-26.6 23.8 25.2 25.2 0 0 0 23.8 26.6h1.4c13.9 0 25.2-11.3 25.2-25.3.1-13.3-10.4-24.4-23.8-25.1m-113.3-14.8a25.24 25.24 0 0 0 47.8-11.4c0-3.9-.9-7.8-2.7-11.4a25.2 25.2 0 0 0-33.9-11.2 25.35 25.35 0 0 0-11.2 34M333 100.8c5.1-2.6 7.1-8.9 4.5-14a10.42 10.42 0 0 0-18.6 9.4c2.7 5.1 8.9 7.2 14.1 4.6m-64 8a14.83 14.83 0 1 0 19.9 6.6 14.9 14.9 0 0 0-19.9-6.6m-82.5-88c5.7.3 10.6-4.1 11-9.8S193.4.4 187.7 0c-5.7-.3-10.6 4-11 9.7-.3 5.8 4.1 10.7 9.8 11.1m-.1 65.3c8.2.5 15.2-5.8 15.6-14 .5-8.2-5.8-15.2-14-15.6-8.2-.5-15.2 5.8-15.6 14a14.8 14.8 0 0 0 14 15.6M106 237.7a14.83 14.83 0 1 0-13.31-26.5A14.83 14.83 0 0 0 106 237.7m90-129.9a25.2 25.2 0 0 0 7.3 34.9c11.7 7.6 27.3 4.4 34.9-7.3a25.18 25.18 0 0 0-21.1-39c-8.5 0-16.4 4.3-21.1 11.4m43.9 105.6a25.2 25.2 0 0 0-33.9-11.2 25.2 25.2 0 0 0-11.2 33.9 25.2 25.2 0 0 0 33.9 11.2 25.13 25.13 0 0 0 11.3-33.7c0-.1 0-.1-.1-.2m44.1-1.8c-6.9-4.5-16.1-2.6-20.5 4.3-4.5 6.9-2.6 16.1 4.3 20.5 6.9 4.5 16.1 2.6 20.5-4.3 4.5-6.8 2.6-16-4.3-20.5m48.4-37.9c.4-7-4.9-12.9-11.9-13.3s-12.9 4.9-13.3 11.9 4.9 12.9 11.9 13.3c6.9.4 12.9-5 13.3-11.9m34.9-9a8.17 8.17 0 1 0 7.7 8.6c.2-4.5-3.2-8.3-7.7-8.6m-32.9 81c-4.8-3.1-11.2-1.8-14.4 3-3.1 4.8-1.8 11.2 3 14.4 4.8 3.1 11.2 1.8 14.4-3s1.8-11.3-3-14.4m-231.8 76.2a8.2 8.2 0 0 0-11.3 2.3 8.2 8.2 0 0 0 2.3 11.3c3.8 2.5 8.8 1.4 11.3-2.3 2.6-3.7 1.5-8.8-2.3-11.3m171.2-.8c-4 2-5.6 7-3.6 11s7 5.6 11 3.6 5.6-6.9 3.6-10.9c-2-4.1-6.9-5.8-11-3.7.1 0 0 0 0 0M179 238.7c7.6-11.7 4.4-27.3-7.3-35a25.3 25.3 0 0 0-35 7.3 25.23 25.23 0 0 0 21.1 39.1c8.6.1 16.5-4.2 21.2-11.4m-50.5 38.7c-5.8-3.8-13.7-2.2-17.5 3.6s-2.2 13.7 3.6 17.5 13.7 2.2 17.5-3.6c3.9-5.8 2.3-13.7-3.6-17.5m58.9 48.3c-5.7-.3-10.6 4.1-11 9.8s4.1 10.6 9.8 11c5.7.3 10.6-4 11-9.7.3-5.8-4.1-10.7-9.8-11.1m.1-65.3c-8.2-.5-15.2 5.8-15.6 14-.5 8.2 5.8 15.2 14 15.6s15.2-5.8 15.6-14c.5-8.1-5.8-15.2-14-15.6m60.7 16a12.64 12.64 0 0 0 11.5 22.5c6.2-3.1 8.7-10.7 5.6-16.9-3.2-6.2-10.8-8.8-17.1-5.6" style="fill:#0033ad"/></g></svg>