<svg xmlns="http://www.w3.org/2000/svg" id="svg8" width="1543" height="2500" viewBox="0 0 365.5 592"><style>.st1{fill:#0b8311}</style><g id="layer5"><g id="g1627"><path id="path1599" d="m0 322.4 183.5 97.7 182-97.7a85400 85400 0 0 1-182 269.6C122.2 502 54.5 402.7 0 322.4m7-27 176.7-94.3 174.4 93.6-174.3 94.4zm176.5-124.5L0 267.5 182.7 0l182.8 268.1z" style="fill:#3ab83a"/><path id="path1593" d="m183.5 420.1 182-97.7-182 269.6zm.2-219 174.4 93.6-174.3 94.4zm-.2-30.2L182.7 0l182.8 268.1z" class="st1"/><path id="path1603" d="m7 295.4 176.7 14.5 174.4-15.1-174.3 94.4z" class="st1"/><path id="path1606" d="m183.7 309.9 174.4-15.1-174.3 94.4z" style="fill:#146714"/></g></g></svg>