<svg xmlns="http://www.w3.org/2000/svg" width="64" height="18" fill="none" viewBox="0 0 64 18"><path fill="#ff6300" fill-rule="evenodd" d="M8.186.12V0h4.854v12c0 3.314-2.717 6-6.067 6S.906 15.314.906 12H5.76c0 .663.543 1.2 1.213 1.2s1.213-.537 1.213-1.2zm17.525 6.322a5.8 5.8 0 0 1 1.231 2.077c.275.792.415 1.689.415 2.665q0 .352-.027.633c-.025.258-.049.372-.097.468l-.134.267h-8.394q.063.286.184.536c.15.313.352.589.599.819a2.73 2.73 0 0 0 1.899.733c.734 0 1.293-.159 1.661-.472l.197-.167 3.558.98-.38.553a5.4 5.4 0 0 1-1.25 1.29 6 6 0 0 1-1.691.863 6.7 6.7 0 0 1-2.095.313c-.865 0-1.7-.152-2.481-.453a6.1 6.1 0 0 1-2.082-1.33 6.5 6.5 0 0 1-1.429-2.122c-.355-.831-.535-1.787-.535-2.839 0-.987.171-1.897.51-2.704a6.5 6.5 0 0 1 1.376-2.085 6.3 6.3 0 0 1 1.998-1.352 6 6 0 0 1 2.352-.483c.964 0 1.846.157 2.62.467a5.5 5.5 0 0 1 1.995 1.343m-2.237 3.11h-4.656a2.55 2.55 0 0 1 .588-.95 2.3 2.3 0 0 1 .733-.495c.284-.124.615-.187.981-.187.42 0 .782.06 1.078.18q.444.18.739.471a1.9 1.9 0 0 1 .436.661q.06.156.1.32zm25.413-3.013a6.4 6.4 0 0 1 1.39 2.113c.33.807.497 1.7.497 2.652s-.167 1.848-.496 2.662a6.4 6.4 0 0 1-1.39 2.127 6.5 6.5 0 0 1-2.099 1.4 6.8 6.8 0 0 1-2.64.507c-.934 0-1.818-.17-2.626-.506a6.3 6.3 0 0 1-2.102-1.404 6.5 6.5 0 0 1-1.377-2.124 7.1 7.1 0 0 1-.495-2.662c0-.954.167-1.846.496-2.652a6.5 6.5 0 0 1 1.376-2.11 6.3 6.3 0 0 1 2.102-1.405 6.8 6.8 0 0 1 2.626-.505c.951 0 1.84.17 2.64.506s1.506.807 2.098 1.401m-1.923 4.765c0 .546-.079 1.03-.235 1.438-.154.4-.363.736-.622.999a2.6 2.6 0 0 1-.891.598 2.8 2.8 0 0 1-1.067.205 2.8 2.8 0 0 1-1.066-.205 2.5 2.5 0 0 1-.875-.594 3.1 3.1 0 0 1-.629-1.01c-.163-.405-.245-.887-.245-1.431s.082-1.02.244-1.417.374-.734.63-1c.248-.26.54-.454.867-.58.338-.13.7-.195 1.074-.195s.735.066 1.074.195q.497.192.884.584c.26.264.469.597.623.99.155.398.234.877.234 1.423m16.746-3.48a6.4 6.4 0 0 1 .289 1.944v7.872h-3.785v-7.392c0-.615-.154-1.139-.456-1.557-.27-.373-.756-.555-1.486-.555-.654 0-1.127.201-1.446.615-.35.454-.52.999-.52 1.665v7.224h-3.785V4.992h3.713v.698a3.7 3.7 0 0 1 .85-.545 5.1 5.1 0 0 1 2.159-.49c.794 0 1.499.136 2.094.404.6.27 1.103.65 1.498 1.13.385.47.679 1.02.875 1.635M35.538 14.27a4 4 0 0 1-.33.05q-.262.032-.523.032c-.38 0-.657-.074-.803-.213-.141-.135-.216-.402-.216-.771V8.424h2.451V4.992h-2.451V1.416h-3.761v3.576h-1.456v3.432h1.456v5.4c0 1.233.367 2.213 1.093 2.911.721.696 1.709 1.049 2.935 1.049.565 0 .994-.04 1.313-.124.393-.103.522-.147.59-.175l.305-.12V14.12z" clip-rule="evenodd"/></svg>