<svg xmlns="http://www.w3.org/2000/svg" width="226" height="149" fill="none" viewBox="0 0 226 149"><path fill="url(#paint0_linear_318_4582)" d="M209.328 22.588q.486.662.894 1.374a36.5 36.5 0 0 0-3.295-8.727c-12.088-22.162-45.676-15.529-79.184 9.571a126.5 126.5 0 0 0-23.587 22.976c4.168 2.262 7.943 5.455 11.587 8.176a48.7 48.7 0 0 0 7.069 4.29 171 171 0 0 1 6.641-7.273c29.849-30.758 67.837-46.41 79.875-30.387"/><path fill="url(#paint1_linear_318_4582)" d="m211.437 41.375.626-.182c1.069-6.931.64-12.932-1.84-17.23a55.5 55.5 0 0 1 1.214 17.412"/><g fill="#e7e6e6" style="mix-blend-mode:soft-light"><path d="M210.142 23.854a15 15 0 0 0-.902-1.375l-.138-.153c.269.83.509 1.695.727 2.568q.546.936.953 1.942a36 36 0 0 0-.64-2.982"/><path d="M127.408 26.18C160.807.893 194.366-5.93 206.549 16.159a34.5 34.5 0 0 1 2.603 6.124l.139.153q.486.662.894 1.375a36 36 0 0 0-3.331-8.692C194.679-6.97 161.112-.156 127.721 25.141a123.2 123.2 0 0 0-30.766 33.617l.19.247a123.5 123.5 0 0 1 30.263-32.824"/></g><path fill="url(#paint2_linear_318_4582)" d="M117.865 48.015c-3.098-2.61-6.233-5.09-9.128-7.898a150 150 0 0 1-19.187 18.91c-29.893 24.73-62.099 32.882-71.932 18.278a8 8 0 0 1-.43-.728 30.7 30.7 0 0 1-4.152-9.026 34.45 34.45 0 0 1 .312-18.765c-4.553 9.23-5.818 18.365-2.945 26.184 7.651 20.634 41.537 24.11 75.707 7.76 15.921-7.615 29.093-18.183 37.821-29.412-2.022-1.775-3.979-3.572-6.066-5.303"/><path fill="url(#paint3_linear_318_4582)" d="M45.432 17.17c-1.6.127-3.18.442-4.706.938l.095.225-.276-.13c-6.597 4.698-6.816 4.727.269.13a75.4 75.4 0 0 0-11.638 8.917 81 81 0 0 0-14.684 19.252 45 45 0 0 0-1.179 2.277 34.45 34.45 0 0 0-.312 18.765 30.7 30.7 0 0 0 4.175 9.055 31 31 0 0 1-3.986-14.823c.123-12.997 11.128-30.184 18.59-36.606 4.226-3.637 8.197-5.026 11.71-5.331a9.7 9.7 0 0 1 1.942-2.67"/><path fill="url(#paint4_linear_318_4582)" d="M73.943 70.526c14.001-8.728 26.613-20.678 30.548-25.77l2.269-2.48c1.775-1.672 3.979-5.09 5.724-6.698 4.459-2.313 12.758-8.117 21.449-13.892 3.739-2.48 7.499-4.917 9.623-6.066l10.182 16.881c-6.364 4.132-22.663 17.885-28.416 22.787-1.819 1.542.349-1.847-1.353-.247l-12.19 10.91a120.8 120.8 0 0 1-27.675 17.601z" opacity=".71" style="mix-blend-mode:multiply"/><path fill="url(#paint5_linear_318_4582)" d="M204.643 11.882c24.875 47.058-31.726 69.161-61.422 36.679-12.51-15.718-13.892-23.566-21.704-31.573C88.155-15.444 40.057 4.71 15.059 45.353c3.316-3.978 24.452-28.082 55.175-24.242 23.747 2.968 27.638 33.37 62.768 51.313 39.864 20.365 111.542-7.2 71.641-60.542"/><path fill="#1887b2" d="M134.064 71.217c-35.137-17.943-39.02-48.353-62.768-51.32-29.311-3.695-49.887 18.125-54.622 23.558v.087C22.907 36.683 42.719 17.73 70.22 21.17c23.747 2.968 27.638 33.378 62.768 51.32 24.685 12.605 61.561 6.823 76.594-12.066-15.63 17.878-51.392 23.108-75.518 10.794" opacity=".57" style="mix-blend-mode:darken"/><path fill="#fff" d="M205.865 13.424c-.407-.56-.8-1.12-1.222-1.688 24.358 46.09-29.427 68.223-59.553 38.607 29.769 30.518 84.093 8.895 60.775-36.92" style="mix-blend-mode:soft-light"/><path fill="#2d9dd3" d="M39.219 110.027a3.5 3.5 0 0 0-.618-.189c-1.673-.429-5.819-.567-7.157.524l-.073.065a2.3 2.3 0 0 0-.53.728 172 172 0 0 0-10.765 16.095L10.06 111.191l-.036-.08a2.3 2.3 0 0 0-.553-.727l-.065-.059c-1.164-.967-4.648-.938-6.546-.611-.45.048-.893.153-1.317.313a2.06 2.06 0 0 0-1.258 1.869v33.901c0 .676.313 1.862 2.408 2.182q1.046.141 2.102.131c1.454 0 4.516 0 4.516-2.313v-19.529a97 97 0 0 1 3.273 5.593q2.865 5.303 3.848 6.932l.385.727c.344.521.78.975 1.288 1.339a4.97 4.97 0 0 0 3.636.567 2.4 2.4 0 0 0 .844-.422 6.2 6.2 0 0 0 1.455-1.382l.872-1.535q.633-1.098 2.968-5.498t3.55-6.408v19.66c0 2.313 3.047 2.313 4.509 2.313s4.51 0 4.51-2.313v-33.916a2.06 2.06 0 0 0-1.23-1.898m10.969 13.485c-2.873 0-3.266.516-3.266 1.076v21.645c0 .553.393 1.07 3.266 1.07s3.273-.517 3.273-1.07v-21.659c0-.546-.422-1.062-3.273-1.062"/><path fill="#2d9dd3" d="M50.188 148.575c-1.454 0-4.51 0-4.51-2.312v-21.689c0-2.313 3.048-2.313 4.51-2.313s4.517 0 4.517 2.313v21.645c0 2.356-3.047 2.356-4.517 2.356m-2.029-2.64c1.347.214 2.719.214 4.066 0v-21.019a13 13 0 0 0-4.066 0zm35.019-34.672h-18.86c-1.978.066-2.989.248-2.989 1.062v33.908c0 .553.393 1.069 3.252 1.069s3.258-.516 3.258-1.069v-14.008h13.477c1.04 0 1.71-1.178 1.71-3.004s-.67-3.011-1.71-3.011H67.84v-8.91h15.34c1.04 0 1.709-1.178 1.709-3.004 0-1.825-.67-3.033-1.71-3.033"/><path fill="#2d9dd3" d="M64.589 148.575c-1.455 0-4.495 0-4.495-2.313v-33.937c0-2.182 2.524-2.247 4.19-2.298h18.91c1.36 0 2.953 1.113 2.953 4.255s-1.593 4.247-2.953 4.247H69.076v6.445h12.241c1.36 0 2.953 1.112 2.953 4.254s-1.593 4.248-2.953 4.248h-12.24v12.765c0 2.334-3.034 2.334-4.488 2.334m-2.015-2.64c1.332.213 2.69.213 4.022 0v-14.946h14.721c.131-.044.473-.568.473-1.768s-.342-1.724-.465-1.775H66.596v-11.404H83.18c.08 0 .473-.473.473-1.767s-.393-1.746-.465-1.775H64.32q-.88.007-1.746.16zm69.889-34.671c-2.865 0-3.258.56-3.258 1.105v22.387l-15.434-22.86-.073-.087c-.727-.727-4.756-.604-5.673-.218a.84.84 0 0 0-.611.778v33.821c0 .356 0 1.105 3.251 1.105s3.259-.727 3.259-1.105v-22.344l15.441 22.809c.364.502 1.702.677 3.004.677a10.3 10.3 0 0 0 2.553-.262c.654-.204.793-.582.793-.858v-33.821c0-.567-.386-1.127-3.252-1.127"/><path fill="#2d9dd3" d="M132.368 148.575c-2.829 0-3.637-.683-4.015-1.192l-13.194-19.493v18.329c0 2.342-3.032 2.342-4.494 2.342s-4.488 0-4.488-2.342v-33.821a2.07 2.07 0 0 1 1.375-1.927c.931-.386 5.666-.858 7.018.487l.226.276 13.157 19.449v-18.314c0-2.349 3.149-2.349 4.495-2.349s4.488 0 4.488 2.349v33.821a2.18 2.18 0 0 1-1.651 2.044c-.954.236-1.934.351-2.917.341m-2.058-2.727a6 6 0 0 0 2.058.247 10.6 10.6 0 0 0 2.102-.174v-33.246a11.6 11.6 0 0 0-4.022 0v26.103l-17.616-26.053a11.8 11.8 0 0 0-4.175-.043v33.202a11.6 11.6 0 0 0 4.022 0v-26.096zm17.28-34.599c-2.872 0-3.273.516-3.273 1.076v33.908c0 .553.401 1.07 3.273 1.07 2.873 0 3.273-.517 3.273-1.07v-33.908c-.007-.56-.363-1.076-3.273-1.076"/><path fill="#2d9dd3" d="M147.591 148.575c-1.455 0-4.51 0-4.51-2.313v-33.937c0-2.312 3.048-2.312 4.51-2.312s4.509 0 4.509 2.312v33.908c-.007 2.342-3.055 2.342-4.509 2.342m-2.037-2.64a13 13 0 0 0 4.073 0v-33.282a13 13 0 0 0-4.073 0zm-50.149-34.686c-2.91 0-3.273.516-3.273 1.076v33.908c0 .553.393 1.07 3.273 1.07s3.273-.517 3.273-1.07v-33.908c0-.56-.4-1.076-3.273-1.076"/><path fill="#2d9dd3" d="M95.406 148.575c-1.455 0-4.51 0-4.51-2.313v-33.937c0-2.313 3.048-2.313 4.51-2.313s4.51 0 4.51 2.313v33.908c0 2.342-3.048 2.342-4.51 2.342m-2.036-2.64a13 13 0 0 0 4.073 0v-33.282a13 13 0 0 0-4.073 0zm92.34-34.672h-26.409c-.552 0-1.076.393-1.076 3.252s.524 3.251 1.076 3.251h9.957v28.467c0 .553.393 1.069 3.252 1.069s3.251-.516 3.251-1.069v-28.467h9.949c.561 0 1.077-.393 1.077-3.251 0-2.859-.516-3.252-1.077-3.252"/><path fill="#2d9dd3" d="M172.509 148.575c-1.455 0-4.495 0-4.495-2.313v-27.26h-8.728c-2.313 0-2.313-3.033-2.313-4.487s0-4.495 2.313-4.495h26.409c2.32 0 2.32 3.04 2.32 4.495 0 1.454 0 4.487-2.32 4.487h-8.728v27.231c.029 2.342-3.004 2.342-4.458 2.342m-2.015-2.64c1.335.213 2.695.213 4.029 0v-29.406h10.888a12.7 12.7 0 0 0 0-4.029h-25.783a12.7 12.7 0 0 0 0 4.029h10.866zm52.958-34.337c-1.207-.422-5.775-.531-6.633.546l-8.226 12.808-8.248-12.794c-.8-1.062-5.339-.982-6.546-.567-.684.225-.829.611-.829.902v.174l12.365 19.282v14.161c0 .305 0 1.229 3.272 1.229 3.273 0 3.273-.924 3.273-1.229v-14.161l12.365-19.274v-.182c0-.284-.138-.662-.793-.895"/><path fill="#2d9dd3" d="M208.577 148.575c-1.12 0-4.517 0-4.517-2.466V132.29l-12.364-19.281v-.538a2.18 2.18 0 0 1 1.672-2.08c1.193-.4 6.583-.822 7.95 1.003l.051.073 7.208 11.172 7.273-11.288c1.455-1.797 6.88-1.339 8.001-.939a2.19 2.19 0 0 1 1.614 2.059v.545l-12.364 19.282v13.819c-.015 2.458-3.411 2.458-4.524 2.458m-2.037-2.706a9.3 9.3 0 0 0 4.066 0v-14.284l12.146-18.911c-1.265-.269-4.284-.189-4.967.248l-9.186 14.306-9.23-14.292c-.684-.429-3.637-.509-4.939-.247l12.11 18.91zM51.251 110.332H48.83a3.54 3.54 0 0 0-3.542 3.542v2.488a3.54 3.54 0 0 0 3.542 3.542h2.422a3.54 3.54 0 0 0 3.542-3.542v-2.488a3.54 3.54 0 0 0-3.542-3.542"/><defs><linearGradient id="paint0_linear_318_4582" x1="97.135" x2="212.658" y1="30.459" y2="31.668" gradientUnits="userSpaceOnUse"><stop offset=".01" stop-color="#ffa220"/><stop offset=".04" stop-color="#ffa61c"/><stop offset=".34" stop-color="#ffc000"/><stop offset=".61" stop-color="#fdc200"/><stop offset=".74" stop-color="#f6c900"/><stop offset=".75" stop-color="#f5cb00"/><stop offset=".78" stop-color="#f3c200"/><stop offset=".84" stop-color="#f0b100"/><stop offset=".89" stop-color="#efab00"/><stop offset="1" stop-color="#b74600"/></linearGradient><linearGradient id="paint1_linear_318_4582" x1="97.124" x2="212.647" y1="31.484" y2="32.694" gradientUnits="userSpaceOnUse"><stop offset=".01" stop-color="#ffa220"/><stop offset=".04" stop-color="#ffa61c"/><stop offset=".34" stop-color="#ffc000"/><stop offset=".61" stop-color="#fdc200"/><stop offset=".74" stop-color="#f6c900"/><stop offset=".75" stop-color="#f5cb00"/><stop offset=".78" stop-color="#f3c200"/><stop offset=".84" stop-color="#f0b100"/><stop offset=".89" stop-color="#efab00"/><stop offset="1" stop-color="#b74600"/></linearGradient><linearGradient id="paint2_linear_318_4582" x1="13.162" x2="121.018" y1="52.904" y2="77.711" gradientUnits="userSpaceOnUse"><stop offset=".01" stop-color="#c59252"/><stop offset=".22" stop-color="#eba31c"/><stop offset=".34" stop-color="#ffac00"/><stop offset=".51" stop-color="#fdac03"/><stop offset=".63" stop-color="#f6ab0d"/><stop offset=".75" stop-color="#e9aa1e"/><stop offset=".78" stop-color="#e4a925"/><stop offset=".8" stop-color="#e7ac21"/><stop offset=".86" stop-color="#f4b70f"/><stop offset=".93" stop-color="#fcbe04"/><stop offset="1" stop-color="#ffc000"/></linearGradient><linearGradient id="paint3_linear_318_4582" x1="35.667" x2="11.622" y1="23.587" y2="77.357" gradientUnits="userSpaceOnUse"><stop offset=".01" stop-color="#c59252"/><stop offset=".22" stop-color="#eba31c"/><stop offset=".34" stop-color="#ffac00"/><stop offset=".51" stop-color="#fdac03"/><stop offset=".63" stop-color="#f6ab0d"/><stop offset=".75" stop-color="#e9aa1e"/><stop offset=".78" stop-color="#e4a925"/><stop offset=".8" stop-color="#e7ac21"/><stop offset=".86" stop-color="#f4b70f"/><stop offset=".93" stop-color="#fcbe04"/><stop offset="1" stop-color="#ffc000"/></linearGradient><linearGradient id="paint4_linear_318_4582" x1="131.265" x2="55.888" y1="7.985" y2="51.501" gradientUnits="userSpaceOnUse"><stop offset=".11" stop-color="#fff"/><stop offset=".61" stop-color="#878787"/><stop offset=".95" stop-color="#fff"/></linearGradient><linearGradient id="paint5_linear_318_4582" x1="235.533" x2="29.591" y1="86.695" y2="-8.462" gradientUnits="userSpaceOnUse"><stop offset=".01" stop-color="#001f2a"/><stop offset=".16" stop-color="#004b5d"/><stop offset=".2" stop-color="#00576e"/><stop offset=".31" stop-color="#00799f"/><stop offset=".42" stop-color="#0094c7"/><stop offset=".52" stop-color="#00a8e3"/><stop offset=".61" stop-color="#00b4f4"/><stop offset=".67" stop-color="#00b8fa"/><stop offset=".76" stop-color="#00b6f7"/><stop offset=".83" stop-color="#01aeec"/><stop offset=".9" stop-color="#03a2da"/><stop offset=".97" stop-color="#0691c1"/><stop offset="1" stop-color="#0788b3"/></linearGradient></defs></svg>