<svg xmlns="http://www.w3.org/2000/svg" width="179" height="37" fill="none" viewBox="0 0 179 37"><g clip-path="url(#clip0_6125_66271)"><path fill="#fff" d="M40.985 25.582h1.065l3.134 8.463h-1.1l-.823-2.274h-3.51l-.823 2.274h-1.076zm.206 2.212-1.113 3.07h2.855l-1.113-3.07c-.11-.303-.29-.955-.29-.955h-.036s-.194.64-.303.955"/><path fill="url(#paint0_linear_6125_66271)" d="M40.985 25.582h1.065l3.134 8.463h-1.1l-.823-2.274h-3.51l-.823 2.274h-1.076zm.206 2.212-1.113 3.07h2.855l-1.113-3.07c-.11-.303-.29-.955-.29-.955h-.036s-.194.64-.303.955"/><path fill="#fff" d="M89.055 25.582h5.47v.908h-4.43v2.707h4.248v.907h-4.248v3.035h4.441v.907h-5.481z"/><path fill="url(#paint1_linear_6125_66271)" d="M89.055 25.582h5.47v.908h-4.43v2.707h4.248v.907h-4.248v3.035h4.441v.907h-5.481z"/><path fill="#fff" d="m94.89 34.045 2.119-3.18-1.924-2.913h1.077l1.38 2.115 1.393-2.115H100l-1.924 2.888 2.106 3.205h-1.077l-1.574-2.406-1.586 2.406z"/><path fill="url(#paint2_linear_6125_66271)" d="m94.89 34.045 2.119-3.18-1.924-2.913h1.077l1.38 2.115 1.393-2.115H100l-1.924 2.888 2.106 3.205h-1.077l-1.574-2.406-1.586 2.406z"/><path fill="#fff" d="M106.204 30.998c0 1.79-1.077 3.143-2.59 3.143h-.387c-.617 0-1.295-.435-1.634-.968v3.337h-.968v-8.56h.968v.87c.327-.53 1.016-.967 1.658-.967h.374c1.489 0 2.578 1.391 2.578 3.143zm-3.086 2.285h.472c.811 0 1.609-.907 1.609-2.285s-.799-2.285-1.609-2.285h-.472c-.884 0-1.609.92-1.609 2.285s.725 2.285 1.609 2.285"/><path fill="url(#paint3_linear_6125_66271)" d="M106.204 30.998c0 1.79-1.077 3.143-2.59 3.143h-.387c-.617 0-1.295-.435-1.634-.968v3.337h-.968v-8.56h.968v.87c.327-.53 1.016-.967 1.658-.967h.374c1.489 0 2.578 1.391 2.578 3.143zm-3.086 2.285h.472c.811 0 1.609-.907 1.609-2.285s-.799-2.285-1.609-2.285h-.472c-.884 0-1.609.92-1.609 2.285s.725 2.285 1.609 2.285"/><path fill="#fff" d="M109.198 27.855h.509c1.38 0 2.397 1.329 2.397 2.84 0 .23-.012.352-.024.473h-4.43c.073 1.294.763 2.115 1.574 2.115h.472c.763 0 1.283-.556 1.404-1.196h.933a2.32 2.32 0 0 1-2.324 2.055h-.495c-1.428 0-2.566-1.342-2.566-3.18 0-1.836 1.307-3.106 2.554-3.106zm1.912 2.478c-.024-.859-.629-1.62-1.405-1.62h-.472c-.69 0-1.33.605-1.525 1.62z"/><path fill="url(#paint4_linear_6125_66271)" d="M109.198 27.855h.509c1.38 0 2.397 1.329 2.397 2.84 0 .23-.012.352-.024.473h-4.43c.073 1.294.763 2.115 1.574 2.115h.472c.763 0 1.283-.556 1.404-1.196h.933a2.32 2.32 0 0 1-2.324 2.055h-.495c-1.428 0-2.566-1.342-2.566-3.18 0-1.836 1.307-3.106 2.554-3.106zm1.912 2.478c-.024-.859-.629-1.62-1.405-1.62h-.472c-.69 0-1.33.605-1.525 1.62z"/><path fill="#fff" d="M113.686 30.563v3.482h-.967v-6.093h.967v.98c.194-.58.642-.98 1.235-.98h.847v.833h-.932c-.738 0-1.151 1.064-1.151 1.778z"/><path fill="url(#paint5_linear_6125_66271)" d="M113.686 30.563v3.482h-.967v-6.093h.967v.98c.194-.58.642-.98 1.235-.98h.847v.833h-.932c-.738 0-1.151 1.064-1.151 1.778z"/><path fill="#fff" d="M116.258 25.655h1.1v1.233h-1.1zm.072 2.297h.968v6.093h-.968z"/><path fill="url(#paint6_linear_6125_66271)" d="M116.258 25.655h1.1v1.233h-1.1zm.072 2.297h.968v6.093h-.968z"/><path fill="#fff" d="M120.473 27.855h.508c1.381 0 2.396 1.329 2.396 2.84 0 .23-.012.352-.024.473h-4.429c.072 1.294.762 2.115 1.574 2.115h.472c.762 0 1.283-.556 1.404-1.196h.932a2.317 2.317 0 0 1-2.323 2.055h-.496c-1.428 0-2.565-1.342-2.565-3.18 0-1.836 1.307-3.106 2.553-3.106zm1.911 2.478c-.023-.859-.629-1.62-1.404-1.62h-.472c-.69 0-1.33.605-1.525 1.62z"/><path fill="url(#paint7_linear_6125_66271)" d="M120.473 27.855h.508c1.381 0 2.396 1.329 2.396 2.84 0 .23-.012.352-.024.473h-4.429c.072 1.294.762 2.115 1.574 2.115h.472c.762 0 1.283-.556 1.404-1.196h.932a2.317 2.317 0 0 1-2.323 2.055h-.496c-1.428 0-2.565-1.342-2.565-3.18 0-1.836 1.307-3.106 2.553-3.106zm1.911 2.478c-.023-.859-.629-1.62-1.404-1.62h-.472c-.69 0-1.33.605-1.525 1.62z"/><path fill="#fff" d="M124.055 27.952h.967v1.028c.291-.617.956-1.124 1.67-1.124h.593c1.053 0 1.888.98 1.888 2.309v3.88h-.967V30.26c0-.882-.472-1.535-1.175-1.535h-.483c-.921 0-1.526 1.003-1.526 2.043v3.277h-.967z"/><path fill="url(#paint8_linear_6125_66271)" d="M124.055 27.952h.967v1.028c.291-.617.956-1.124 1.67-1.124h.593c1.053 0 1.888.98 1.888 2.309v3.88h-.967V30.26c0-.882-.472-1.535-1.175-1.535h-.483c-.921 0-1.526 1.003-1.526 2.043v3.277h-.967z"/><path fill="#fff" d="M129.828 30.998c0-1.62.956-3.142 2.639-3.142h.423c1.284 0 2.24.991 2.324 2.369h-.968c-.086-.834-.593-1.512-1.356-1.512h-.436c-1.065 0-1.621 1.075-1.621 2.285s.544 2.285 1.609 2.285h.448c.751 0 1.198-.665 1.356-1.426h.968c-.158 1.208-.993 2.285-2.335 2.285h-.424c-1.695 0-2.626-1.524-2.626-3.143z"/><path fill="url(#paint9_linear_6125_66271)" d="M129.828 30.998c0-1.62.956-3.142 2.639-3.142h.423c1.284 0 2.24.991 2.324 2.369h-.968c-.086-.834-.593-1.512-1.356-1.512h-.436c-1.065 0-1.621 1.075-1.621 2.285s.544 2.285 1.609 2.285h.448c.751 0 1.198-.665 1.356-1.426h.968c-.158 1.208-.993 2.285-2.335 2.285h-.424c-1.695 0-2.626-1.524-2.626-3.143z"/><path fill="#fff" d="M138.301 27.855h.507c1.381 0 2.397 1.329 2.397 2.84 0 .23-.012.352-.023.473h-4.43c.072 1.294.762 2.115 1.574 2.115h.472c.762 0 1.283-.556 1.404-1.196h.932a2.317 2.317 0 0 1-2.323 2.055h-.496c-1.428 0-2.565-1.342-2.565-3.18 0-1.836 1.307-3.106 2.553-3.106zm1.912 2.478c-.024-.859-.63-1.62-1.405-1.62h-.472c-.69 0-1.33.605-1.525 1.62z"/><path fill="url(#paint10_linear_6125_66271)" d="M138.301 27.855h.507c1.381 0 2.397 1.329 2.397 2.84 0 .23-.012.352-.023.473h-4.43c.072 1.294.762 2.115 1.574 2.115h.472c.762 0 1.283-.556 1.404-1.196h.932a2.317 2.317 0 0 1-2.323 2.055h-.496c-1.428 0-2.565-1.342-2.565-3.18 0-1.836 1.307-3.106 2.553-3.106zm1.912 2.478c-.024-.859-.63-1.62-1.405-1.62h-.472c-.69 0-1.33.605-1.525 1.62z"/><path fill="#fff" d="M48.79 25.575h3.406c1.576 0 2.557 1.03 2.557 2.507s-.982 2.507-2.557 2.507h-2.364v3.464h-1.043zm3.32 4.105c1.152 0 1.589-.776 1.589-1.6 0-.822-.449-1.598-1.589-1.598h-2.278v3.196h2.278z"/><path fill="url(#paint11_linear_6125_66271)" d="M48.79 25.575h3.406c1.576 0 2.557 1.03 2.557 2.507s-.982 2.507-2.557 2.507h-2.364v3.464h-1.043zm3.32 4.105c1.152 0 1.589-.776 1.589-1.6 0-.822-.449-1.598-1.589-1.598h-2.278v3.196h2.278z"/><path fill="#fff" d="M54.878 32.452c0-1.199.921-1.731 2.206-1.95l1.745-.29v-.072c0-.849-.472-1.43-1.115-1.43h-.51c-.679 0-1.2.424-1.272 1.2h-.982c.097-1.272 1.103-2.06 2.255-2.06h.509c1.273 0 2.085.946 2.085 2.313v2.543c0 .472.17.509.715.509v.835h-.68c-.557 0-.982-.242-.958-1.017-.327.666-1.127 1.114-2.037 1.114-1.2 0-1.964-.653-1.964-1.695zm2.048.835c1.08 0 1.904-.714 1.904-1.89v-.387l-1.54.279c-.86.157-1.407.363-1.407 1.113 0 .546.437.884 1.043.884z"/><path fill="url(#paint12_linear_6125_66271)" d="M54.878 32.452c0-1.199.921-1.731 2.206-1.95l1.745-.29v-.072c0-.849-.472-1.43-1.115-1.43h-.51c-.679 0-1.2.424-1.272 1.2h-.982c.097-1.272 1.103-2.06 2.255-2.06h.509c1.273 0 2.085.946 2.085 2.313v2.543c0 .472.17.509.715.509v.835h-.68c-.557 0-.982-.242-.958-1.017-.327.666-1.127 1.114-2.037 1.114-1.2 0-1.964-.653-1.964-1.695zm2.048.835c1.08 0 1.904-.714 1.904-1.89v-.387l-1.54.279c-.86.157-1.407.363-1.407 1.113 0 .546.437.884 1.043.884z"/><path fill="#fff" d="m62.156 34.151-.328-.9-1.953-5.303h1.018l1.442 4.02c.121.328.29.921.29.921h.037s.182-.593.291-.92l1.419-4.021h.994l-2.583 7.17c-.339.92-.86 1.405-1.673 1.405h-.667v-.8h.57c.787 0 .966-1.06 1.14-1.57z"/><path fill="url(#paint13_linear_6125_66271)" d="m62.156 34.151-.328-.9-1.953-5.303h1.018l1.442 4.02c.121.328.29.921.29.921h.037s.182-.593.291-.92l1.419-4.021h.994l-2.583 7.17c-.339.92-.86 1.405-1.673 1.405h-.667v-.8h.57c.787 0 .966-1.06 1.14-1.57z"/><path fill="#fff" d="M65.313 32.295h.97c.072.618.594.992 1.163.992h.486c.545 0 1.08-.253 1.08-.932 0-.52-.291-.8-.91-.908l-1.114-.205c-1.018-.194-1.528-.763-1.528-1.635 0-1.053.933-1.743 1.916-1.743h.521c.983 0 1.928.702 1.952 1.743h-.959c-.035-.495-.485-.885-1.006-.885h-.497c-.508 0-.933.28-.933.823 0 .412.243.727.8.835l1.163.23c.933.182 1.588.533 1.588 1.683s-.994 1.853-2.036 1.853h-.522c-1.104 0-2.086-.726-2.135-1.853z"/><path fill="url(#paint14_linear_6125_66271)" d="M65.313 32.295h.97c.072.618.594.992 1.163.992h.486c.545 0 1.08-.253 1.08-.932 0-.52-.291-.8-.91-.908l-1.114-.205c-1.018-.194-1.528-.763-1.528-1.635 0-1.053.933-1.743 1.916-1.743h.521c.983 0 1.928.702 1.952 1.743h-.959c-.035-.495-.485-.885-1.006-.885h-.497c-.508 0-.933.28-.933.823 0 .412.243.727.8.835l1.163.23c.933.182 1.588.533 1.588 1.683s-.994 1.853-2.036 1.853h-.522c-1.104 0-2.086-.726-2.135-1.853z"/><path fill="#fff" d="M76.896 28.917h-1.334v-.835h1.334v-.932c0-1.005.448-1.575 1.466-1.575h1.345v.835h-1.103c-.497 0-.74.205-.74.823v.848h1.965v.835h-1.964v5.134h-.97z"/><path fill="url(#paint15_linear_6125_66271)" d="M76.896 28.917h-1.334v-.835h1.334v-.932c0-1.005.448-1.575 1.466-1.575h1.345v.835h-1.103c-.497 0-.74.205-.74.823v.848h1.965v.835h-1.964v5.134h-.97z"/><path fill="#fff" d="M82.228 27.852h.509c1.382 0 2.4 1.332 2.4 2.846 0 .23-.011.352-.023.473h-4.436c.072 1.295.764 2.12 1.575 2.12h.473c.764 0 1.285-.558 1.407-1.2h.934a2.32 2.32 0 0 1-2.328 2.059h-.497c-1.43 0-2.57-1.344-2.57-3.185s1.31-3.112 2.557-3.112zm1.916 2.482c-.024-.86-.63-1.622-1.407-1.622h-.474c-.691 0-1.333.606-1.527 1.622z"/><path fill="url(#paint16_linear_6125_66271)" d="M82.228 27.852h.509c1.382 0 2.4 1.332 2.4 2.846 0 .23-.011.352-.023.473h-4.436c.072 1.295.764 2.12 1.575 2.12h.473c.764 0 1.285-.558 1.407-1.2h.934a2.32 2.32 0 0 1-2.328 2.059h-.497c-1.43 0-2.57-1.344-2.57-3.185s1.31-3.112 2.557-3.112zm1.916 2.482c-.024-.86-.63-1.622-1.407-1.622h-.474c-.691 0-1.333.606-1.527 1.622z"/><path fill="#fff" d="M75.329 32.706v-2.543c0-1.369-.813-2.312-2.085-2.312h-.51c-1.056 0-1.988.664-2.21 1.755h.995c.165-.581.632-.897 1.216-.897h.509c.643 0 1.115.581 1.115 1.43v.072l-1.746.29c-1.285.218-2.207.75-2.207 1.95 0 1.041.764 1.695 1.965 1.695.908 0 1.709-.449 2.036-1.114-.023.776.4 1.017.959 1.017h.68v-.835c-.546 0-.716-.036-.716-.51zm-.97-1.308c0 1.174-.825 1.89-1.904 1.89-.606 0-1.043-.34-1.043-.884 0-.751.546-.958 1.407-1.114l1.54-.279v.388z"/><path fill="url(#paint17_linear_6125_66271)" d="M75.329 32.706v-2.543c0-1.369-.813-2.312-2.085-2.312h-.51c-1.056 0-1.988.664-2.21 1.755h.995c.165-.581.632-.897 1.216-.897h.509c.643 0 1.115.581 1.115 1.43v.072l-1.746.29c-1.285.218-2.207.75-2.207 1.95 0 1.041.764 1.695 1.965 1.695.908 0 1.709-.449 2.036-1.114-.023.776.4 1.017.959 1.017h.68v-.835c-.546 0-.716-.036-.716-.51zm-.97-1.308c0 1.174-.825 1.89-1.904 1.89-.606 0-1.043-.34-1.043-.884 0-.751.546-.958 1.407-1.114l1.54-.279v.388z"/></g><path fill="#fff" d="M122.023 9.48c0-6.147 4.081-9.424 7.885-9.424h1.368c3.844 0 6.542 3.027 6.897 6.884h-3.211c-.211-2.29-1.698-4.028-3.646-4.028h-1.395c-2.264 0-4.528 2.435-4.528 6.568s2.185 6.568 4.488 6.568h1.356c1.961 0 3.462-1.817 3.738-4.028h3.212c-.303 3.923-3.567 6.884-6.95 6.884h-1.356c-3.935 0-7.858-3.29-7.858-9.424m33.679 1.819v7.41h-3.093V5.442h3.093V7.27c.487-1.145 1.435-1.83 2.672-1.83h1.698v2.593h-1.935c-1.54 0-2.435 1.725-2.435 3.265M29.233 9.516v.01c0 .103-.04.202-.113.275l-9.186 9.185a.2.2 0 0 1-.137.057h-.058a.194.194 0 0 1-.193-.194V9.528a.4.4 0 0 1-.114.274l-9.129 9.129a.4.4 0 0 1-.274.113h-.01a.4.4 0 0 1-.274-.113L.613 9.802A.4.4 0 0 1 .5 9.528v-.01c0-.103.04-.202.113-.274l9.13-9.13A.4.4 0 0 1 10.015 0h.01c.103 0 .202.04.274.113l9.13 9.13a.4.4 0 0 1 .113.273V.193c0-.106.087-.193.194-.193h.057q.08.001.137.057l9.186 9.185a.4.4 0 0 1 .113.274zm20.434-8.493q-1.31-.72-3.08-.721h-7.603v18.35h3.304v-7.039h4.3q1.77 0 3.08-.721a4.93 4.93 0 0 0 2.006-2q.695-1.277.695-2.93 0-1.652-.695-2.936a4.93 4.93 0 0 0-2.006-2.006zm-.944 6.364q-.302.636-.924 1.01-.622.372-1.566.373h-3.946V3.146h3.946q1.39 0 2.09.794.701.794.702 2.025 0 .788-.302 1.423zM76.481 5.44l-5.532 15.31q-.603 1.678-1.586 2.464T66.912 24h-1.684v-2.556h1.447q.681 0 1.127-.478c.297-.319.82-1.672.952-2.103L63.857 5.44h3.198l3.172 9.477c.21-.778 3.11-9.477 3.11-9.477zm9.674 6.678q.839.846.838 2.59 0 1.206-.635 2.149a4.3 4.3 0 0 1-1.712 1.474 5.2 5.2 0 0 1-2.333.53h-1.076a5.9 5.9 0 0 1-2.417-.498c-.748-.332-1.355-.791-1.776-1.442-.434-.67-.638-1.563-.656-2.386h3.041c.053.533.146 1.194.517 1.507.419.353.837.446 1.318.446h.89q.735 0 1.233-.367.497-.367.497-1.14 0-.655-.38-1.016-.38-.36-1.166-.504l-2.53-.498q-1.586-.313-2.418-1.278-.832-.963-.832-2.444 0-1.153.616-2.07t1.652-1.416a5.1 5.1 0 0 1 2.229-.498h1.009q1.205 0 2.242.484 1.035.485 1.678 1.37c.428.59.651 1.663.668 2.432H83.69c-.036-.454-.114-1.1-.491-1.461a1.62 1.62 0 0 0-1.188-.466h-.851q-.668 0-1.102.36-.433.36-.433.99 0 .512.36.891.36.38 1.056.524l2.583.537q1.69.354 2.53 1.2m12.992 3.619q-.158-.216-.158-.662v-4.916q0-1.377-.59-2.51a4.3 4.3 0 0 0-1.704-1.776q-1.114-.642-2.622-.642h-.957q-1.336 0-2.49.556a4.9 4.9 0 0 0-1.887 1.58c-.49.682-.691 1.302-.761 2.176h3.08c.043-.612.183-.961.576-1.311.394-.35.904-.498 1.481-.498h.957q.498 0 .93.295.433.296.682.825.249.531.249 1.186v.263l-3.5.524q-2.11.341-3.375 1.377t-1.265 2.831q0 1.155.544 2.02.544.864 1.54 1.337.997.471 2.307.472 1.403 0 2.478-.55 1.074-.55 1.586-1.507.052.957.622 1.403t1.553.446h2.059v-2.582q-.591 0-.885-.06a.7.7 0 0 1-.452-.275zm-3.211-2.563q0 .97-.4 1.718a2.85 2.85 0 0 1-1.127 1.16q-.729.412-1.672.413-.8 0-1.31-.433-.512-.434-.511-1.128 0-.865.57-1.265t1.762-.61l2.688-.497zm-30.59 2.897q-.59 0-.884-.06a.7.7 0 0 1-.453-.274q-.157-.216-.157-.662v-4.916q-.001-1.377-.59-2.51a4.3 4.3 0 0 0-1.705-1.776q-1.114-.642-2.622-.642h-.956q-1.337 0-2.49.556a4.9 4.9 0 0 0-1.888 1.58c-.49.682-.691 1.302-.76 2.176h3.08c.043-.612.182-.961.576-1.311s.904-.498 1.48-.498h.957q.499 0 .93.295.434.296.683.825.248.531.248 1.186v.263l-3.5.524q-2.11.341-3.374 1.377-1.266 1.037-1.265 2.831 0 1.155.544 2.02.543.864 1.54 1.337.996.471 2.307.472 1.401 0 2.477-.55 1.074-.55 1.586-1.507.051.957.623 1.403.57.446 1.553.446h2.058v-2.582zm-4.548-2.897q0 .97-.4 1.718a2.85 2.85 0 0 1-1.127 1.16q-.728.412-1.671.413-.8 0-1.311-.433-.511-.434-.511-1.128 0-.865.57-1.265t1.762-.61l2.688-.497zm48.067-5.178h-3.592v10.658h-3.08V7.996h-2.57V5.44h2.57V4.195q0-1.9.957-2.897.957-.995 2.687-.996h3.029v2.556h-2.097q-.76 0-1.126.4-.368.4-.368 1.225v.957h3.592v2.556zm9.45-1.914a4.8 4.8 0 0 0-2.778-.851h-1.01q-1.468 0-2.785.832-1.318.833-2.13 2.391-.812 1.56-.812 3.553c0 1.328.252 2.502.754 3.546q.755 1.566 2.084 2.437a5.25 5.25 0 0 0 2.943.871h.97q1.377 0 2.536-.602a5.3 5.3 0 0 0 1.908-1.659 4.85 4.85 0 0 0 .878-2.353h-2.937a2.56 2.56 0 0 1-.819 1.448q-.65.584-1.54.583h-.97q-.759 0-1.383-.53-.622-.532-.99-1.52a6 6 0 0 1-.33-1.515h9.034c.01-.092.053-.834.053-1.14q0-1.729-.721-3.185-.721-1.454-1.953-2.307zm-6.297 4.365q.094-.415.241-.786.393-.982 1.03-1.494.635-.51 1.33-.51h.918q.615 0 1.153.367t.858 1.016q.32.65.347 1.41h-5.877zm38.656 5.563a.7.7 0 0 1-.452-.276q-.158-.215-.158-.662v-4.916q-.001-1.376-.59-2.51a4.3 4.3 0 0 0-1.704-1.775q-1.115-.642-2.622-.643h-.957a5.65 5.65 0 0 0-2.49.557 4.9 4.9 0 0 0-1.888 1.58c-.489.681-.691 1.301-.761 2.175h3.08c.044-.612.183-.96.577-1.31s.904-.498 1.481-.498h.956q.499 0 .931.295t.682.825q.249.532.249 1.186v.263l-3.5.524q-2.111.34-3.375 1.377-1.265 1.035-1.265 2.83 0 1.155.544 2.02.543.864 1.54 1.337.995.471 2.307.472 1.403 0 2.477-.55t1.586-1.507q.051.958.623 1.403.57.447 1.553.447h2.058V16.07q-.59 0-.884-.06zm-3.664-2.839q0 .97-.4 1.718a2.85 2.85 0 0 1-1.127 1.16q-.727.413-1.671.413-.8.001-1.311-.433-.511-.433-.511-1.128 0-.864.57-1.265t1.764-.61l2.688-.497v.643zm18.891 3.033h.882c1.606 0 2.883-1.724 2.883-4.186 0-2.46-1.277-4.185-2.883-4.185h-.882c-1.513 0-2.869 1.711-2.869 4.185 0 2.475 1.343 4.186 2.869 4.186m-6.002-4.186c0-3.79 2.238-6.844 5.621-6.844h.803c1.171 0 2.487.803 3.119 1.764V.302h3.08v18.35h-3.08v-1.527c-.737 1.014-2.198 1.738-3.212 1.738h-.763c-3.212 0-5.568-3.172-5.568-6.845"/><defs><linearGradient id="paint0_linear_6125_66271" x1="41.518" x2="41.518" y1="25.582" y2="34.045" gradientUnits="userSpaceOnUse"><stop stop-color="#fff"/><stop offset="1" stop-color="#fff" stop-opacity="0"/></linearGradient><linearGradient id="paint1_linear_6125_66271" x1="91.796" x2="91.796" y1="25.582" y2="34.046" gradientUnits="userSpaceOnUse"><stop stop-color="#fff"/><stop offset="1" stop-color="#fff" stop-opacity="0"/></linearGradient><linearGradient id="paint2_linear_6125_66271" x1="97.536" x2="97.536" y1="27.952" y2="34.045" gradientUnits="userSpaceOnUse"><stop stop-color="#fff"/><stop offset="1" stop-color="#fff" stop-opacity="0"/></linearGradient><linearGradient id="paint3_linear_6125_66271" x1="103.414" x2="103.414" y1="27.853" y2="36.51" gradientUnits="userSpaceOnUse"><stop stop-color="#fff"/><stop offset="1" stop-color="#fff" stop-opacity="0"/></linearGradient><linearGradient id="paint4_linear_6125_66271" x1="109.376" x2="109.376" y1="27.855" y2="34.142" gradientUnits="userSpaceOnUse"><stop stop-color="#fff"/><stop offset="1" stop-color="#fff" stop-opacity="0"/></linearGradient><linearGradient id="paint5_linear_6125_66271" x1="114.243" x2="114.243" y1="27.952" y2="34.045" gradientUnits="userSpaceOnUse"><stop stop-color="#fff"/><stop offset="1" stop-color="#fff" stop-opacity="0"/></linearGradient><linearGradient id="paint6_linear_6125_66271" x1="116.808" x2="116.808" y1="25.655" y2="34.045" gradientUnits="userSpaceOnUse"><stop stop-color="#fff"/><stop offset="1" stop-color="#fff" stop-opacity="0"/></linearGradient><linearGradient id="paint7_linear_6125_66271" x1="120.649" x2="120.649" y1="27.855" y2="34.142" gradientUnits="userSpaceOnUse"><stop stop-color="#fff"/><stop offset="1" stop-color="#fff" stop-opacity="0"/></linearGradient><linearGradient id="paint8_linear_6125_66271" x1="126.614" x2="126.614" y1="27.856" y2="34.045" gradientUnits="userSpaceOnUse"><stop stop-color="#fff"/><stop offset="1" stop-color="#fff" stop-opacity="0"/></linearGradient><linearGradient id="paint9_linear_6125_66271" x1="132.521" x2="132.521" y1="27.856" y2="34.142" gradientUnits="userSpaceOnUse"><stop stop-color="#fff"/><stop offset="1" stop-color="#fff" stop-opacity="0"/></linearGradient><linearGradient id="paint10_linear_6125_66271" x1="138.478" x2="138.478" y1="27.855" y2="34.142" gradientUnits="userSpaceOnUse"><stop stop-color="#fff"/><stop offset="1" stop-color="#fff" stop-opacity="0"/></linearGradient><linearGradient id="paint11_linear_6125_66271" x1="51.771" x2="51.771" y1="25.575" y2="34.053" gradientUnits="userSpaceOnUse"><stop stop-color="#fff"/><stop offset="1" stop-color="#fff" stop-opacity="0"/></linearGradient><linearGradient id="paint12_linear_6125_66271" x1="57.695" x2="57.695" y1="27.851" y2="34.147" gradientUnits="userSpaceOnUse"><stop stop-color="#fff"/><stop offset="1" stop-color="#fff" stop-opacity="0"/></linearGradient><linearGradient id="paint13_linear_6125_66271" x1="62.62" x2="62.62" y1="27.948" y2="36.523" gradientUnits="userSpaceOnUse"><stop stop-color="#fff"/><stop offset="1" stop-color="#fff" stop-opacity="0"/></linearGradient><linearGradient id="paint14_linear_6125_66271" x1="67.659" x2="67.659" y1="27.864" y2="34.146" gradientUnits="userSpaceOnUse"><stop stop-color="#fff"/><stop offset="1" stop-color="#fff" stop-opacity="0"/></linearGradient><linearGradient id="paint15_linear_6125_66271" x1="77.696" x2="77.696" y1="25.575" y2="34.05" gradientUnits="userSpaceOnUse"><stop stop-color="#fff"/><stop offset="1" stop-color="#fff" stop-opacity="0"/></linearGradient><linearGradient id="paint16_linear_6125_66271" x1="82.405" x2="82.405" y1="27.852" y2="34.15" gradientUnits="userSpaceOnUse"><stop stop-color="#fff"/><stop offset="1" stop-color="#fff" stop-opacity="0"/></linearGradient><linearGradient id="paint17_linear_6125_66271" x1="73.226" x2="73.226" y1="27.851" y2="34.146" gradientUnits="userSpaceOnUse"><stop stop-color="#fff"/><stop offset="1" stop-color="#fff" stop-opacity="0"/></linearGradient><clipPath id="clip0_6125_66271"><path fill="#fff" d="M.5 0h177.893v36.522H.5z"/></clipPath></defs></svg>