<svg width="140" height="80" viewBox="0 0 140 80" fill="none" xmlns="http://www.w3.org/2000/svg">
<g clip-path="url(#clip0_2059_8556)">
<path d="M17.2831 45.7909C17.2831 48.5552 16.4077 50.6953 14.6268 52.2113C12.876 53.7272 10.4008 54.5 7.26154 54.5C5.93338 54.5 4.69577 54.3514 3.51854 54.0541C2.34131 53.7272 1.34519 53.311 0.5 52.7166V46.207C1.49612 46.8609 2.64317 47.4257 3.94114 47.8715C5.23911 48.3174 6.41634 48.5552 7.47283 48.5552C8.34821 48.5552 9.04248 48.3471 9.49526 47.9904C9.94804 47.604 10.1895 47.069 10.1895 46.3556C10.1895 46.0287 10.1292 45.7017 9.97822 45.4045C9.8273 45.1072 9.616 44.81 9.37451 44.5425C9.10285 44.2452 8.40858 43.621 7.26154 42.6104C5.87301 41.4512 4.8467 40.2622 4.21281 39.0435C3.57891 37.8248 3.27706 36.4873 3.27706 35.0308C3.27706 33.396 3.66947 31.9395 4.45429 30.6614C5.23911 29.3535 6.35597 28.3726 7.77469 27.6592C9.1934 26.9459 10.7932 26.5892 12.5742 26.5892C15.4418 26.5892 18.0075 27.2431 20.3016 28.5807L17.8566 34.1093C15.804 33.0096 14.0834 32.4745 12.6345 32.4745C11.8799 32.4745 11.2762 32.6529 10.8536 33.0096C10.431 33.3662 10.2499 33.8715 10.2499 34.5255C10.2499 35.12 10.4612 35.7144 10.8536 36.2197C11.246 36.7548 12.0308 37.4384 13.1477 38.3301C14.5664 39.4002 15.5927 40.5594 16.287 41.7484C16.9209 42.9076 17.2831 44.2452 17.2831 45.7909ZM29.6591 54.1433H22.6561L26.9122 32.9501H21.2374L22.475 26.9459H40.9183L39.6505 32.9501H33.9454L29.6591 54.1433ZM37.779 54.1433L43.3331 26.9459H50.4569L44.9028 54.1433H37.779ZM64.6138 32.5934C63.3159 32.5934 62.1386 33.069 61.1123 34.0499C60.086 35.0308 59.271 36.3386 58.6673 38.0626C58.0636 39.7569 57.7919 41.5998 57.7919 43.5913C57.7919 45.2558 58.124 46.5042 58.7881 47.3068C59.4521 48.1093 60.4181 48.5255 61.6858 48.5255C62.682 48.5255 63.6781 48.4066 64.7044 48.1391C65.7307 47.8715 66.9079 47.4554 68.2965 46.8312V52.8355C65.8514 53.965 63.2253 54.5 60.3879 54.5C57.2788 54.5 54.8639 53.5786 53.2038 51.7357C51.5134 49.8928 50.6984 47.2771 50.6984 43.9183C50.6984 40.6189 51.3021 37.587 52.5095 34.8524C53.7169 32.0881 55.3771 30.0372 57.4599 28.6104C59.5427 27.2134 61.9273 26.5 64.644 26.5C67.8135 26.5 70.6811 27.3025 73.2771 28.9374L70.6207 34.6146C69.5039 33.931 68.4776 33.4257 67.5418 33.069C66.5759 32.7718 65.61 32.5934 64.6138 32.5934ZM92.9278 35.0902C92.9278 38.2113 91.9015 40.6783 89.8488 42.4321C87.7962 44.2155 84.989 45.1072 81.4271 45.1072H79.8575L78.0463 54.1433H71.0433L76.5975 26.9459H83.2986C86.4077 26.9459 88.7924 27.6592 90.4224 29.0563C92.0826 30.483 92.9278 32.5042 92.9278 35.0902ZM81.1253 39.1921H82.2723C83.359 39.1921 84.2344 38.8355 84.8984 38.0924C85.5625 37.379 85.8946 36.4575 85.8946 35.328C85.8946 34.5849 85.6833 34.0202 85.2607 33.5446C84.8381 33.0987 84.2344 32.8609 83.4797 32.8609H82.4232L81.1253 39.1921ZM107.296 49.0605H99.2667L97.0028 54.1433H89.7281L103.07 26.9459H112.095L114.299 54.1433H107.477L107.296 49.0605ZM101.832 43.2643H107.085L106.783 35.3875L106.753 33.7824C106.753 32.8609 106.783 32.0287 106.813 31.345C106.541 32.4151 106.149 33.4554 105.726 34.4363L101.832 43.2643ZM127.067 37.052L132.682 26.9459H140.5L129.512 43.5913L127.339 54.1433H120.306L122.449 43.5913L118.193 26.9459H125.437L127.067 37.052Z" fill="#EA5504"/>
</g>
<defs>
<clipPath id="clip0_2059_8556">
<rect width="140" height="80" fill="white"/>
</clipPath>
</defs>
</svg>
